<svg xmlns="http://www.w3.org/2000/svg" width="500" height="350" fill="none"><path fill="#000" d="m40.606 42.328-6.132.582-.81 3.467-3.969.377 4.81-17.533 2.52-.24.95-.09 8.06 16.31-3.981.379-1.448-3.252Zm-1.279-2.857-2.665-5.975-1.482 6.369 4.147-.394Zm13.156-7.805c.182-.018.377-.02.586-.01.208.004.378.02.508.046l.275 3.399a9.607 9.607 0 0 0-1.28.028c-1.284.121-2.08.615-2.39 1.481l.772 8.125-3.589.34L46.171 32.5l3.375-.32.251 1.512c.263-.595.622-1.067 1.077-1.415a3.102 3.102 0 0 1 1.609-.61Zm14.178 7.132c.085.891-.077 1.712-.486 2.462-.408.75-1.001 1.362-1.78 1.835-.77.471-1.65.755-2.641.849-1.291.122-2.41-.049-3.358-.514a5.222 5.222 0 0 1-2.235-2.075c-.535-.918-.86-1.99-.977-3.214l-.029-.302c-.116-1.225.002-2.338.354-3.341a5.243 5.243 0 0 1 1.793-2.457c.843-.636 1.906-1.014 3.19-1.136 1.054-.1 2.004.013 2.85.34.853.317 1.542.83 2.065 1.539.521.7.83 1.559.927 2.574l-3.363.32c-.067-.62-.301-1.114-.704-1.482-.403-.368-.929-.522-1.578-.46-.872.083-1.44.461-1.703 1.135-.264.666-.345 1.542-.242 2.627l.029.302c.105 1.108.345 1.96.722 2.558.385.597 1.024.853 1.92.768.617-.059 1.097-.268 1.439-.63.34-.36.489-.82.444-1.378l3.363-.32Zm7.995-9.238c1.347-.128 2.43.164 3.249.876.827.71 1.322 1.926 1.485 3.647l.749 7.88-3.589.34-.75-7.903c-.073-.76-.29-1.278-.652-1.556-.354-.28-.868-.387-1.541-.323-.96.091-1.616.497-1.97 1.22l.85 8.949-3.59.34-1.695-17.852 3.589-.341.629 6.625c.38-.552.84-.99 1.386-1.316a4.412 4.412 0 0 1 1.85-.586Zm8.288-5.654c.602-.058 1.101.067 1.498.373.405.298.631.71.681 1.238.05.526-.094.978-.434 1.354-.333.368-.8.58-1.403.638-.594.056-1.093-.064-1.497-.362-.397-.307-.62-.723-.67-1.25-.05-.527.091-.974.424-1.342.34-.377.807-.593 1.4-.65Zm-.108 17.8-1.194-12.575 3.6-.342 1.195 12.576-3.6.342ZM98.932 27.49l-3.108 12.985-2.257.214-1.225.116-5.507-12.166 3.767-.358 3.082 8.093 1.493-8.527 3.754-.357Zm13.467 6.215-8.127.772c.208.77.6 1.362 1.175 1.776.574.407 1.277.571 2.109.492a4.303 4.303 0 0 0 1.679-.5 3.59 3.59 0 0 0 1.257-1.163l1.907 1.778c-.391.678-1.002 1.276-1.832 1.792-.822.516-1.816.83-2.98.94-1.315.125-2.486-.038-3.512-.488a5.738 5.738 0 0 1-2.444-1.996c-.603-.88-.958-1.883-1.064-3.007l-.042-.441c-.119-1.255.016-2.398.406-3.428a5.43 5.43 0 0 1 1.873-2.5c.857-.644 1.908-1.026 3.152-1.144 1.212-.115 2.27.039 3.173.461.904.423 1.621 1.078 2.153 1.965.532.88.857 1.948.976 3.203l.141 1.488Zm-3.767-2.293c-.08-.68-.325-1.2-.735-1.56-.402-.36-.968-.506-1.696-.437-.682.065-1.195.336-1.542.815-.338.477-.53 1.11-.575 1.896l4.575-.435-.027-.279Z"/><path fill="#EDEDED" d="M403.498 32.17 38.61 66.823c-3.836.365-6.649 3.788-6.282 7.647l.619 6.522c.366 3.859 3.773 6.692 7.61 6.328l364.887-34.653c3.836-.364 6.649-3.788 6.283-7.647l-.62-6.522c-.366-3.859-3.773-6.692-7.609-6.328ZM435.405 29.14l-6.905.656c-4.086.388-7.101 3.83-6.735 7.69l.62 6.522c.366 3.858 3.976 6.672 8.062 6.284l6.905-.655c4.086-.388 7.102-3.831 6.735-7.69l-.619-6.522c-.367-3.86-3.977-6.673-8.063-6.285Z"/><path fill="#6755B8" d="m121.194 97.91-76.482 7.264c-5.182.492-8.981 5.132-8.484 10.364l3.239 34.104c.497 5.232 5.1 9.075 10.284 8.582l76.481-7.263c5.183-.492 8.981-5.132 8.485-10.365l-3.239-34.104c-.497-5.232-5.101-9.074-10.284-8.582Z"/><path fill="#F34C88" d="m226.088 87.949-76.481 7.263c-5.183.492-8.982 5.132-8.485 10.365l3.239 34.104c.497 5.232 5.101 9.074 10.284 8.582l76.481-7.264c5.183-.492 8.982-5.132 8.485-10.364l-3.239-34.104c-.497-5.232-5.101-9.075-10.284-8.582Z"/><path fill="#F5E341" d="m330.985 77.987-76.482 7.263c-5.183.493-8.981 5.133-8.484 10.365l3.239 34.104c.497 5.232 5.101 9.074 10.284 8.582l76.481-7.264c5.183-.492 8.981-5.132 8.485-10.364l-3.239-34.104c-.497-5.232-5.101-9.074-10.284-8.582Z"/><path fill="#6755B8" d="m437.084 67.91-76.481 7.264c-5.183.492-8.982 5.13-8.485 10.359l11.599 122.131c.496 5.229 5.1 9.069 10.283 8.576l76.481-7.263c5.183-.492 8.982-5.13 8.485-10.359L447.368 76.487c-.497-5.229-5.101-9.069-10.284-8.576Z"/><path fill="#F5E341" d="m127.147 160.607-76.482 7.263c-5.182.492-8.983 5.116-8.488 10.327l3.36 35.385c.496 5.211 5.098 9.036 10.281 8.544l76.482-7.263c5.182-.492 8.983-5.116 8.488-10.327l-3.361-35.385c-.495-5.211-5.097-9.037-10.28-8.544ZM242.838 261.166l-76.481 7.264c-5.183.492-8.983 5.115-8.488 10.327l3.36 35.384c.495 5.212 5.098 9.037 10.281 8.545l76.481-7.263c5.183-.492 8.983-5.116 8.488-10.327l-3.36-35.385c-.495-5.211-5.098-9.037-10.281-8.545Z"/><path fill="#F34C88" d="m336.938 140.683-76.482 7.263a9.428 9.428 0 0 0-8.492 10.278l11.499 121.088c.493 5.184 5.093 8.987 10.276 8.495l76.481-7.263c5.183-.493 8.985-5.094 8.493-10.278l-11.499-121.088c-.493-5.184-5.093-8.987-10.276-8.495Z"/><path fill="#24B4A4" d="m452.686 220.067-76.481 7.263c-5.183.493-8.981 5.142-8.483 10.384l8.159 85.91c.497 5.243 5.102 9.094 10.285 8.602l76.482-7.263c5.183-.493 8.98-5.142 8.482-10.384l-8.158-85.91c-.498-5.243-5.103-9.094-10.286-8.602Z"/><path fill="#F34C88" d="m133.1 223.303-76.481 7.263c-5.183.492-8.982 5.132-8.485 10.365l3.239 34.104c.497 5.232 5.101 9.074 10.284 8.582l76.481-7.264c5.183-.492 8.982-5.132 8.485-10.364l-3.239-34.104c-.497-5.232-5.101-9.074-10.284-8.582Z"/><path fill="#24B4A4" d="m232.041 150.645-76.481 7.263c-5.183.492-8.994 5.004-8.512 10.078l1.919 20.209c.482 5.074 5.074 8.788 10.257 8.295l76.482-7.263c5.182-.492 8.993-5.004 8.511-10.077l-1.919-20.21c-.482-5.074-5.074-8.787-10.257-8.295Z"/><path fill="#6755B8" d="m236.622 198.873-76.482 7.263c-5.183.492-8.981 5.132-8.484 10.365l3.238 34.103c.497 5.233 5.101 9.075 10.284 8.583l76.482-7.264c5.183-.492 8.981-5.132 8.484-10.364l-3.239-34.104c-.496-5.232-5.101-9.075-10.283-8.582Z"/></svg>