<svg xmlns="http://www.w3.org/2000/svg" width="500" height="350" fill="none"><path fill="#04FFB4" d="m19.974 58.516 444.243-24.682 14.727 265.072-444.242 24.682z"/><path stroke="#212121" stroke-width="2.739" d="M319.445 91.467H52.424v205.401h267.021V91.467Z"/><path fill="#fff" d="M295.481 101.737H76.387c-7.563 0-13.694 6.131-13.694 13.693v54.774c0 7.562 6.131 13.693 13.694 13.693H295.48c7.563 0 13.693-6.131 13.693-13.693V115.43c0-7.562-6.13-13.693-13.693-13.693Z"/><path fill="#EFEFEF" d="M288.634 123.989H151.7a6.846 6.846 0 0 0-6.846 6.847 6.846 6.846 0 0 0 6.846 6.846h136.934a6.847 6.847 0 1 0 0-13.693ZM250.977 142.817h-102.7a3.423 3.423 0 0 0 0 6.847h102.7a3.424 3.424 0 0 0 0-6.847ZM278.364 154.799H148.277a3.423 3.423 0 0 0 0 6.847h130.087a3.424 3.424 0 0 0 0-6.847ZM103.774 170.204c15.125 0 27.386-12.262 27.386-27.387s-12.261-27.387-27.386-27.387c-15.126 0-27.387 12.262-27.387 27.387s12.261 27.387 27.387 27.387Z"/><path fill="#3A3A3A" d="M295.481 204.437H76.387c-7.563 0-13.694 6.131-13.694 13.693v54.774c0 7.563 6.131 13.693 13.694 13.693H295.48c7.563 0 13.693-6.13 13.693-13.693V218.13c0-7.562-6.13-13.693-13.693-13.693Z"/><path fill="#555" d="M288.634 226.689H151.7a6.846 6.846 0 0 0-6.846 6.847 6.846 6.846 0 0 0 6.846 6.846h136.934a6.847 6.847 0 1 0 0-13.693ZM250.977 245.517h-102.7a3.423 3.423 0 0 0 0 6.847h102.7a3.424 3.424 0 0 0 0-6.847ZM278.364 257.499H148.277a3.423 3.423 0 0 0 0 6.847h130.087a3.424 3.424 0 0 0 0-6.847ZM103.774 272.904c15.125 0 27.386-12.262 27.386-27.387s-12.261-27.387-27.386-27.387c-15.126 0-27.387 12.262-27.387 27.387s12.261 27.387 27.387 27.387Z"/><path fill="#fff" stroke="#212121" stroke-width="2.739" d="M55.847 88.044H49v6.846h6.847v-6.846ZM55.847 293.444H49v6.847h6.847v-6.847Z"/><g filter="url(#a)"><path fill="#fff" d="M439.261 23H196.204a2.739 2.739 0 0 0-2.739 2.739v294.407a2.739 2.739 0 0 0 2.739 2.739h243.057a2.739 2.739 0 0 0 2.739-2.739V25.739A2.739 2.739 0 0 0 439.261 23Z"/><path fill="#000B07" d="m208.713 43.126.565-1.688h2.574l.568 1.688h1.324l-2.414-6.847h-1.531l-2.41 6.847h1.324Zm.899-2.685.926-2.758h.054l.926 2.758h-1.906Zm7.223-2.45h-1.013v-1.23h-1.21v1.23h-.729v.936h.729v2.855c-.007.966.695 1.44 1.604 1.414.345-.01.582-.077.712-.12l-.203-.946a1.513 1.513 0 0 1-.355.046c-.304 0-.548-.107-.548-.595v-2.654h1.013v-.936Zm2.332-1.712h-1.21v6.847h1.21v-6.847Zm2.723 6.95c.805 0 1.287-.377 1.507-.809h.04v.706h1.164v-3.437c0-1.357-1.107-1.765-2.086-1.765-1.08 0-1.909.481-2.177 1.418l1.13.16c.121-.351.462-.652 1.053-.652.562 0 .87.288.87.792v.02c0 .348-.365.365-1.271.462-.996.107-1.949.404-1.949 1.561 0 1.01.739 1.544 1.719 1.544Zm.314-.889c-.505 0-.866-.23-.866-.675 0-.465.405-.659.946-.736.318-.043.953-.123 1.11-.25v.605c0 .572-.461 1.056-1.19 1.056Zm7.672-2.992c-.167-.87-.862-1.424-2.066-1.424-1.237 0-2.079.608-2.076 1.558-.003.749.458 1.243 1.444 1.447l.876.184c.472.104.692.294.692.585 0 .351-.381.615-.956.615-.555 0-.916-.24-1.019-.702l-1.181.114c.151.943.943 1.501 2.204 1.501 1.283 0 2.189-.665 2.193-1.638-.004-.732-.475-1.18-1.445-1.39l-.875-.188c-.522-.117-.729-.297-.726-.595-.003-.348.381-.588.886-.588.558 0 .852.304.946.642l1.103-.12Zm7.529.428h-4.707v.996h4.707v-.996Zm2.71-2.457h2.116v5.807h1.23v-5.807h2.116v-1.04h-5.462v1.04Zm7.672 2.798c0-.742.461-1.17 1.11-1.17.635 0 1.01.404 1.01 1.096v3.083h1.21v-3.27c0-1.24-.702-1.932-1.769-1.932-.789 0-1.29.358-1.528.94h-.06v-2.585h-1.183v6.847h1.21v-3.009Zm6.837 3.11c1.197 0 2.019-.586 2.233-1.478l-1.13-.128c-.164.435-.565.662-1.087.662-.782 0-1.3-.514-1.31-1.394h3.577v-.37c0-1.803-1.083-2.595-2.347-2.595-1.471 0-2.43 1.08-2.43 2.664 0 1.612.946 2.638 2.494 2.638Zm-1.291-3.153c.037-.656.522-1.207 1.244-1.207.695 0 1.163.508 1.17 1.207h-2.414Zm4.598 3.052h1.21v-3.123c0-.632.421-1.06.943-1.06.511 0 .862.345.862.873v3.31h1.187v-3.203c0-.578.344-.98.93-.98.488 0 .875.288.875.923v3.26h1.214v-3.447c0-1.147-.662-1.755-1.605-1.755-.745 0-1.314.368-1.541.94h-.053c-.198-.582-.696-.94-1.388-.94-.688 0-1.203.354-1.417.94h-.06v-.873h-1.157v5.135Zm10.722.1c1.197 0 2.019-.585 2.233-1.477l-1.13-.128c-.164.435-.565.662-1.086.662-.783 0-1.301-.514-1.311-1.394h3.577v-.37c0-1.803-1.083-2.595-2.346-2.595-1.471 0-2.431 1.08-2.431 2.664 0 1.612.946 2.638 2.494 2.638Zm-1.29-3.152c.036-.656.521-1.207 1.243-1.207.696 0 1.164.508 1.17 1.207h-2.413Zm6.986-3.795v6.847h1.19v-4.714h.064l1.892 4.694h.889l1.892-4.684h.064v4.704h1.19v-6.847h-1.518l-2.033 4.961h-.08l-2.032-4.96h-1.518Zm9.956 6.95c.805 0 1.287-.377 1.507-.809h.041v.706h1.163v-3.437c0-1.357-1.107-1.765-2.086-1.765-1.08 0-1.909.481-2.177 1.418l1.13.16c.121-.351.462-.652 1.054-.652.561 0 .869.288.869.792v.02c0 .348-.365.365-1.271.462-.996.107-1.949.404-1.949 1.561 0 1.01.739 1.544 1.719 1.544Zm.314-.889c-.505 0-.866-.23-.866-.675 0-.465.405-.659.946-.736.318-.043.953-.123 1.11-.25v.605c0 .572-.461 1.056-1.19 1.056Zm4.824-2.223c0-.742.448-1.17 1.087-1.17.625 0 .999.411.999 1.096v3.083h1.21v-3.27c.004-1.23-.698-1.932-1.758-1.932-.769 0-1.297.368-1.531.94h-.06v-.873h-1.157v5.135h1.21v-3.009Zm6.004 3.113c.806 0 1.287-.378 1.508-.81h.04v.706h1.164v-3.437c0-1.357-1.107-1.765-2.087-1.765-1.079 0-1.909.481-2.176 1.418l1.13.16c.12-.351.461-.652 1.053-.652.562 0 .869.288.869.792v.02c0 .348-.364.365-1.27.462-.996.107-1.949.404-1.949 1.561 0 1.01.739 1.544 1.718 1.544Zm.314-.89c-.504 0-.865-.23-.865-.675 0-.465.404-.659.946-.736.317-.043.953-.123 1.11-.25v.605c0 .572-.462 1.056-1.191 1.056Zm5.848 2.818c1.387 0 2.41-.635 2.41-1.949v-5.218h-1.194v.849h-.066c-.184-.371-.569-.916-1.475-.916-1.186 0-2.119.93-2.119 2.618 0 1.675.933 2.51 2.116 2.51.879 0 1.29-.471 1.478-.849h.06v.973c0 .755-.502 1.066-1.19 1.066-.729 0-1.05-.344-1.197-.645l-1.09.264c.221.72.959 1.297 2.267 1.297Zm.01-3.055c-.799 0-1.221-.622-1.221-1.568 0-.933.415-1.618 1.221-1.618.779 0 1.206.645 1.206 1.618 0 .98-.434 1.568-1.206 1.568Zm5.914 1.123c1.196 0 2.019-.585 2.233-1.477l-1.13-.128c-.164.435-.565.662-1.087.662-.782 0-1.3-.514-1.31-1.394h3.577v-.37c0-1.803-1.083-2.595-2.347-2.595-1.471 0-2.43 1.08-2.43 2.664 0 1.612.946 2.638 2.494 2.638Zm-1.291-3.152c.037-.656.522-1.207 1.244-1.207.695 0 1.163.508 1.17 1.207h-2.414Zm4.598 3.052h1.21v-3.019c0-.652.491-1.113 1.157-1.113.204 0 .458.037.561.07v-1.113a2.91 2.91 0 0 0-.434-.034c-.589 0-1.08.335-1.267.93h-.054v-.856h-1.173v5.135Z"/><mask id="b" width="11" height="12" x="419" y="34" maskUnits="userSpaceOnUse" style="mask-type:luminance"><path fill="#fff" d="M427.965 34.982h-6.847c-.945 0-1.712.766-1.712 1.711v6.847c0 .945.767 1.712 1.712 1.712h6.847c.945 0 1.711-.767 1.711-1.712v-6.847c0-.945-.766-1.711-1.711-1.711Z"/></mask><g mask="url(#b)"><path fill="#000B07" d="m424.541 39.512 4.098-4.1.606.606-4.1 4.1 4.1 4.098-.606.605-4.099-4.1-4.099 4.1-.605-.605 4.1-4.1-4.101-4.098.606-.605 4.1 4.099Z"/></g><path stroke="#EFEFEF" stroke-width=".856" d="M193.465 56.806h248.192"/><path fill="#fff" d="M436.522 115.43H198.599c-.945 0-1.711.766-1.711 1.712v23.963c0 .945.766 1.712 1.711 1.712h237.923c.945 0 1.712-.767 1.712-1.712v-23.963c0-.946-.767-1.712-1.712-1.712Z"/><mask id="c" width="9" height="8" x="421" y="128" maskUnits="userSpaceOnUse" style="mask-type:luminance"><path fill="#fff" d="M429.693 128.142h-8v7h8v-7Z"/></mask><g mask="url(#c)"><path fill="#B2B2B2" fill-rule="evenodd" d="m425.34 133.496-3-3 .708-.708 2.646 2.647 2.646-2.647.708.708-3 3-.354.353-.354-.353Z" clip-rule="evenodd"/></g><mask id="d" width="193" height="13" x="225" y="123" maskUnits="userSpaceOnUse" style="mask-type:luminance"><path fill="#fff" d="M417.693 123.133H225.986v11.982h191.707v-11.982Z"/></mask><g mask="url(#d)"><path fill="#333" d="M228.527 132.133h4.012v-.736h-3.183v-6.111h-.829v6.847Zm5.283 0h.789v-5.135h-.789v5.135Zm.401-5.991c.307 0 .562-.241.562-.535 0-.294-.255-.535-.562-.535-.308 0-.562.241-.562.535 0 .294.254.535.562.535Zm4 8.023c1.23 0 2.219-.561 2.219-1.885v-5.282h-.762v.816h-.08c-.174-.268-.495-.883-1.498-.883-1.297 0-2.193 1.03-2.193 2.608 0 1.604.936 2.514 2.18 2.514 1.003 0 1.324-.589 1.498-.87h.066v1.043c0 .856-.601 1.244-1.43 1.244-.933 0-1.261-.491-1.471-.776l-.629.442c.321.538.953 1.029 2.1 1.029Zm-.027-2.821c-.99 0-1.498-.749-1.498-1.819 0-1.043.495-1.885 1.498-1.885.963 0 1.471.775 1.471 1.885 0 1.137-.522 1.819-1.471 1.819Zm4.574-2.3c0-.896.571-1.404 1.35-1.404.743 0 1.191.468 1.191 1.283v3.21h.789v-3.263c0-1.321-.703-1.939-1.752-1.939-.809 0-1.271.338-1.511.869h-.067v-2.514h-.789v6.847h.789v-3.089Zm7.1-2.046h-1.096v-1.23h-.789v1.23h-.776v.668h.776v3.21c0 .896.722 1.324 1.39 1.324.295 0 .482-.054.589-.094l-.161-.709c-.066.014-.173.04-.347.04-.348 0-.682-.107-.682-.775v-2.996h1.096v-.668Z"/></g><path fill="#F4F4F4" d="M214.86 136.827a7.702 7.702 0 0 0 7.702-7.703 7.702 7.702 0 1 0-15.405 0 7.703 7.703 0 0 0 7.703 7.703Z"/><path stroke="#000" stroke-opacity=".08" stroke-width=".856" d="M214.86 136.399a7.275 7.275 0 0 0 7.274-7.275 7.275 7.275 0 1 0-7.274 7.275Z"/><path fill="#fff" d="M436.522 88.044H198.599c-.945 0-1.711.766-1.711 1.711v23.964a1.71 1.71 0 0 0 1.711 1.711h237.923c.945 0 1.712-.766 1.712-1.711V89.755c0-.945-.767-1.711-1.712-1.711Z"/><mask id="e" width="9" height="8" x="421" y="100" maskUnits="userSpaceOnUse" style="mask-type:luminance"><path fill="#fff" d="M429.693 100.755h-8v7h8v-7Z"/></mask><g mask="url(#e)"><path fill="#B2B2B2" fill-rule="evenodd" d="m425.34 106.109-3-3 .708-.708 2.646 2.647 2.646-2.647.708.708-3 3-.354.353-.354-.353Z" clip-rule="evenodd"/></g><mask id="f" width="193" height="13" x="225" y="95" maskUnits="userSpaceOnUse" style="mask-type:luminance"><path fill="#fff" d="M417.693 95.746H225.986v11.982h191.707V95.746Z"/></mask><g mask="url(#f)"><path fill="#333" d="M230.64 104.746c2.086 0 3.263-1.297 3.263-3.437 0-2.126-1.177-3.41-3.169-3.41h-2.207v6.847h2.113Zm-1.284-.735v-5.376h1.324c1.605 0 2.42 1.016 2.42 2.674 0 1.672-.815 2.702-2.514 2.702h-1.23Zm7.436.855c.896 0 1.364-.481 1.524-.815h.04v.695h.789v-3.383c0-1.632-1.243-1.819-1.899-1.819-.775 0-1.658.268-2.059 1.204l.749.267c.174-.374.585-.775 1.337-.775.726 0 1.083.384 1.083 1.043v.026c0 .382-.387.348-1.324.468-.952.124-1.992.335-1.992 1.512 0 1.002.776 1.577 1.752 1.577Zm.12-.708c-.628 0-1.083-.281-1.083-.829 0-.602.548-.789 1.163-.87.335-.04 1.231-.133 1.364-.294v.722c0 .642-.508 1.271-1.444 1.271Zm3.768.588h.789v-3.249c0-.696.548-1.204 1.297-1.204.21 0 .428.04.481.054v-.803a7.544 7.544 0 0 0-.415-.013c-.615 0-1.15.347-1.337.856h-.053v-.776h-.762v5.135Zm3.596 0h.789v-1.922l.552-.512 1.922 2.434h1.003l-2.33-2.942 2.17-2.193h-.976l-2.247 2.287h-.094v-3.999h-.789v6.847Z"/></g><path fill="#555" d="M214.86 109.44a7.702 7.702 0 0 0 7.702-7.703 7.703 7.703 0 1 0-7.702 7.703Z"/><path stroke="#000" stroke-opacity=".08" stroke-width=".856" d="M214.86 109.012a7.275 7.275 0 1 0-.001-14.55 7.275 7.275 0 0 0 .001 14.55Z"/><mask id="g" width="243" height="29" x="196" y="60" maskUnits="userSpaceOnUse" style="mask-type:luminance"><path fill="#fff" d="M438.234 60.657H196.888v27.386h241.346V60.657Z"/></mask><g mask="url(#g)"><path fill="#000B07" d="M211.554 72.692h1.194c-.024-1.156-1.01-1.976-2.468-1.976-1.437 0-2.517.81-2.514 2.02 0 .983.699 1.547 1.826 1.838l.779.201c.739.187 1.227.418 1.23.95-.003.585-.558.976-1.367.976-.776 0-1.378-.348-1.428-1.067h-1.22c.05 1.36 1.063 2.126 2.658 2.126 1.641 0 2.594-.819 2.597-2.026-.003-1.186-.983-1.728-2.012-1.972l-.642-.16c-.562-.134-1.17-.371-1.164-.943.004-.515.465-.893 1.241-.893.739 0 1.227.344 1.29.926Zm4.613 5.065c1.197 0 2.019-.585 2.233-1.478l-1.13-.127c-.164.435-.565.662-1.086.662-.783 0-1.301-.515-1.311-1.394h3.577v-.37c0-1.803-1.083-2.595-2.347-2.595-1.471 0-2.43 1.08-2.43 2.664 0 1.612.946 2.638 2.494 2.638Zm-1.291-3.153c.037-.655.522-1.206 1.244-1.206.695 0 1.163.508 1.17 1.207h-2.414Zm5.808-3.794h-1.21v6.847h1.21V70.81Zm3.518 6.947c1.197 0 2.019-.585 2.233-1.478l-1.13-.127c-.164.435-.565.662-1.086.662-.783 0-1.301-.515-1.311-1.394h3.577v-.37c0-1.803-1.083-2.595-2.347-2.595-1.471 0-2.43 1.08-2.43 2.664 0 1.612.946 2.638 2.494 2.638Zm-1.29-3.153c.036-.655.521-1.206 1.243-1.206.696 0 1.164.508 1.17 1.207h-2.413Zm6.837 3.153c1.29 0 2.113-.766 2.2-1.855h-1.157c-.104.551-.501.869-1.033.869-.755 0-1.244-.632-1.244-1.682 0-1.036.499-1.658 1.244-1.658.582 0 .939.374 1.033.87h1.157c-.084-1.114-.953-1.846-2.207-1.846-1.504 0-2.454 1.086-2.454 2.654 0 1.555.927 2.648 2.461 2.648Zm5.758-5.235h-1.013v-1.23h-1.21v1.23h-.729v.936h.729v2.855c-.007.966.695 1.44 1.604 1.414.345-.01.582-.077.712-.12l-.204-.947a1.503 1.503 0 0 1-.354.047c-.304 0-.548-.107-.548-.595v-2.654h1.013v-.936Zm1.012 5.135h1.21v-5.135h-1.21v5.135Zm.608-5.864c.385 0 .699-.294.699-.655 0-.365-.314-.659-.699-.659-.388 0-.702.294-.702.659 0 .36.314.655.702.655Zm4.086 5.964c1.505 0 2.461-1.06 2.461-2.648 0-1.591-.956-2.654-2.461-2.654-1.504 0-2.46 1.063-2.46 2.654 0 1.588.956 2.648 2.46 2.648Zm.007-.97c-.832 0-1.24-.742-1.24-1.681 0-.94.408-1.692 1.24-1.692.819 0 1.227.752 1.227 1.692s-.408 1.681-1.227 1.681Zm4.691-2.14c0-.741.448-1.17 1.087-1.17.625 0 .999.412.999 1.097v3.083h1.211v-3.27c.003-1.23-.699-1.932-1.759-1.932-.769 0-1.297.368-1.531.94h-.06v-.873h-1.157v5.135h1.21v-3.01Z"/></g><path stroke="#EFEFEF" stroke-width=".856" d="M193.465 180.046H442"/><path fill="#fff" d="M436.522 211.284H198.599c-.945 0-1.711.766-1.711 1.712v23.963c0 .945.766 1.712 1.711 1.712h237.923c.945 0 1.712-.767 1.712-1.712v-23.963c0-.946-.767-1.712-1.712-1.712Z"/><mask id="h" width="193" height="13" x="225" y="218" maskUnits="userSpaceOnUse" style="mask-type:luminance"><path fill="#fff" d="M417.693 218.986H225.986v11.982h191.707v-11.982Z"/></mask><g mask="url(#h)"><path fill="#333" d="M228.527 227.986h4.012v-.735h-3.183v-6.111h-.829v6.846Zm5.283 0h.789v-5.135h-.789v5.135Zm.401-5.99c.307 0 .562-.241.562-.535 0-.294-.255-.535-.562-.535-.308 0-.562.241-.562.535 0 .294.254.535.562.535Zm4 8.023c1.23 0 2.219-.562 2.219-1.885v-5.283h-.762v.816h-.08c-.174-.267-.495-.882-1.498-.882-1.297 0-2.193 1.029-2.193 2.607 0 1.605.936 2.514 2.18 2.514 1.003 0 1.324-.588 1.498-.869h.066v1.043c0 .856-.601 1.244-1.43 1.244-.933 0-1.261-.492-1.471-.776l-.629.441c.321.539.953 1.03 2.1 1.03Zm-.027-2.822c-.99 0-1.498-.748-1.498-1.818 0-1.043.495-1.886 1.498-1.886.963 0 1.471.776 1.471 1.886 0 1.136-.522 1.818-1.471 1.818Zm4.574-2.3c0-.896.571-1.404 1.35-1.404.743 0 1.191.468 1.191 1.284v3.209h.789v-3.262c0-1.321-.703-1.939-1.752-1.939-.809 0-1.271.337-1.511.869h-.067v-2.514h-.789v6.846h.789v-3.089Zm7.1-2.046h-1.096v-1.23h-.789v1.23h-.776v.669h.776v3.209c0 .896.722 1.324 1.39 1.324.295 0 .482-.053.589-.093l-.161-.709c-.066.013-.173.04-.347.04-.348 0-.682-.107-.682-.776v-2.995h1.096v-.669Z"/></g><path fill="#F4F4F4" d="M214.86 231.824a7.702 7.702 0 0 0 7.702-7.703 7.702 7.702 0 1 0-15.405 0 7.703 7.703 0 0 0 7.703 7.703Z"/><path stroke="#000" stroke-opacity=".08" stroke-width=".856" d="M214.86 231.396a7.275 7.275 0 0 0 7.274-7.275 7.275 7.275 0 1 0-7.274 7.275Z"/><path fill="#fff" d="M436.522 238.671H198.599c-.945 0-1.711.766-1.711 1.712v23.963c0 .945.766 1.712 1.711 1.712h237.923c.945 0 1.712-.767 1.712-1.712v-23.963c0-.946-.767-1.712-1.712-1.712Z"/><mask id="i" width="193" height="13" x="225" y="246" maskUnits="userSpaceOnUse" style="mask-type:luminance"><path fill="#fff" d="M417.693 246.373H225.986v11.982h191.707v-11.982Z"/></mask><g mask="url(#i)"><path fill="#333" d="M230.64 255.373c2.086 0 3.263-1.297 3.263-3.436 0-2.127-1.177-3.41-3.169-3.41h-2.207v6.846h2.113Zm-1.284-.735v-5.376h1.324c1.605 0 2.42 1.016 2.42 2.675 0 1.671-.815 2.701-2.514 2.701h-1.23Zm7.436.856c.896 0 1.364-.482 1.524-.816h.04v.695h.789v-3.383c0-1.631-1.243-1.819-1.899-1.819-.775 0-1.658.268-2.059 1.204l.749.267c.174-.374.585-.775 1.337-.775.726 0 1.083.384 1.083 1.043v.027c0 .381-.387.347-1.324.468-.952.123-1.992.334-1.992 1.511 0 1.003.776 1.578 1.752 1.578Zm.12-.709c-.628 0-1.083-.281-1.083-.829 0-.602.548-.789 1.163-.869.335-.041 1.231-.134 1.364-.295v.723c0 .641-.508 1.27-1.444 1.27Zm3.768.588h.789v-3.249c0-.696.548-1.204 1.297-1.204.21 0 .428.04.481.054v-.803a8.34 8.34 0 0 0-.415-.013c-.615 0-1.15.348-1.337.856h-.053v-.776h-.762v5.135Zm3.596 0h.789v-1.922l.552-.511 1.922 2.433h1.003l-2.33-2.942 2.17-2.193h-.976l-2.247 2.287h-.094v-3.998h-.789v6.846Z"/></g><path fill="#555" d="M214.86 259.211a7.702 7.702 0 0 0 7.702-7.703 7.702 7.702 0 1 0-15.405 0 7.703 7.703 0 0 0 7.703 7.703Z"/><path stroke="#000" stroke-opacity=".08" stroke-width=".856" d="M214.86 258.783a7.275 7.275 0 0 0 7.274-7.275 7.275 7.275 0 1 0-7.274 7.275Z"/><path fill="#fff" d="M436.522 266.057H198.599c-.945 0-1.711.766-1.711 1.712v23.963c0 .945.766 1.712 1.711 1.712h237.923c.945 0 1.712-.767 1.712-1.712v-23.963c0-.946-.767-1.712-1.712-1.712Z"/><mask id="j" width="193" height="13" x="225" y="273" maskUnits="userSpaceOnUse" style="mask-type:luminance"><path fill="#fff" d="M417.693 273.76H225.986v11.982h191.707V273.76Z"/></mask><g mask="url(#j)"><path fill="#333" d="M228.527 282.76h.829v-3.062h2.969v-.736h-2.969v-2.313h3.276v-.736h-4.105v6.847Zm7.222.107c1.39 0 2.327-1.056 2.327-2.648 0-1.604-.937-2.661-2.327-2.661-1.391 0-2.327 1.057-2.327 2.661 0 1.592.936 2.648 2.327 2.648Zm0-.709c-1.057 0-1.538-.909-1.538-1.939 0-1.029.481-1.952 1.538-1.952 1.056 0 1.538.923 1.538 1.952 0 1.03-.482 1.939-1.538 1.939Zm3.625.602h.789v-3.249c0-.696.548-1.204 1.297-1.204.211 0 .428.04.482.053v-.802a7.343 7.343 0 0 0-.415-.013c-.615 0-1.15.347-1.337.856h-.054v-.776h-.762v5.135Zm5.594.107c1.043 0 1.805-.522 2.046-1.297l-.763-.214c-.2.535-.665.802-1.283.802-.926 0-1.565-.598-1.602-1.698h3.728v-.334c0-1.913-1.137-2.568-2.207-2.568-1.39 0-2.313 1.097-2.313 2.675 0 1.578.909 2.634 2.394 2.634Zm-1.602-3.089c.054-.799.619-1.511 1.521-1.511.856 0 1.404.642 1.404 1.511h-2.925Zm8.659-1.003c-.247-.729-.802-1.217-1.818-1.217-1.083 0-1.886.615-1.886 1.484 0 .709.422 1.184 1.364 1.405l.856.2c.518.121.762.368.762.722 0 .442-.468.803-1.203.803-.645 0-1.05-.278-1.19-.829l-.749.187c.184.872.902 1.337 1.952 1.337 1.194 0 2.006-.652 2.006-1.538 0-.715-.448-1.167-1.364-1.391l-.762-.187c-.609-.15-.883-.354-.883-.749 0-.441.468-.762 1.097-.762.688 0 .973.381 1.11.736l.708-.201Zm3.609-1.15h-1.097v-1.23h-.788v1.23h-.776v.669h.776v3.209c0 .896.722 1.324 1.39 1.324.294 0 .482-.054.589-.094l-.161-.708c-.067.013-.174.04-.348.04-.347 0-.682-.107-.682-.776v-2.995h1.097v-.669Z"/></g><path fill="#829692" d="M214.86 286.598a7.702 7.702 0 1 0 0-15.405 7.702 7.702 0 0 0 0 15.405Z"/><path stroke="#000" stroke-opacity=".08" stroke-width=".856" d="M214.86 286.17a7.275 7.275 0 0 0 7.274-7.275 7.275 7.275 0 1 0-7.274 7.275Z"/><mask id="k" width="243" height="29" x="196" y="183" maskUnits="userSpaceOnUse" style="mask-type:luminance"><path fill="#fff" d="M438.234 183.897H196.888v27.387h241.346v-27.387Z"/></mask><g mask="url(#k)"><path fill="#000B07" d="M207.833 200.897h4.256v-1.039h-3.015v-5.807h-1.241v6.846Zm7.519.101c1.504 0 2.46-1.06 2.46-2.648 0-1.592-.956-2.655-2.46-2.655s-2.461 1.063-2.461 2.655c0 1.588.957 2.648 2.461 2.648Zm.007-.97c-.833 0-1.241-.742-1.241-1.682 0-.939.408-1.691 1.241-1.691.819 0 1.227.752 1.227 1.691 0 .94-.408 1.682-1.227 1.682Zm5.721.97c1.29 0 2.112-.766 2.199-1.856h-1.156c-.104.552-.502.869-1.033.869-.756 0-1.244-.632-1.244-1.681 0-1.037.498-1.658 1.244-1.658.581 0 .939.374 1.033.869h1.156c-.083-1.114-.953-1.846-2.206-1.846-1.505 0-2.454 1.087-2.454 2.655 0 1.554.926 2.648 2.461 2.648Zm4.671.003c.805 0 1.287-.378 1.507-.809h.041v.705h1.163v-3.437c0-1.357-1.107-1.765-2.086-1.765-1.08 0-1.909.482-2.177 1.418l1.13.16c.121-.351.462-.652 1.054-.652.561 0 .869.288.869.793v.02c0 .347-.365.364-1.271.461-.996.107-1.949.405-1.949 1.561 0 1.01.739 1.545 1.719 1.545Zm.314-.889c-.505 0-.866-.231-.866-.676 0-.464.405-.658.946-.735.318-.044.953-.124 1.11-.251v.605c0 .572-.461 1.057-1.19 1.057Zm4.824-6.061h-1.21v6.846h1.21v-6.846Zm3.332 1.039h2.116v5.807h1.231v-5.807h2.116v-1.039h-5.463v1.039Zm7.673 2.798c0-.742.461-1.17 1.11-1.17.635 0 1.009.405 1.009 1.097v3.082h1.21v-3.269c0-1.241-.702-1.933-1.768-1.933-.789 0-1.29.358-1.528.94h-.06v-2.584h-1.183v6.846h1.21v-3.009Zm6.836 3.11c1.197 0 2.02-.586 2.234-1.478l-1.13-.127c-.164.434-.565.662-1.087.662-.782 0-1.3-.515-1.31-1.394h3.577v-.371c0-1.802-1.083-2.595-2.347-2.595-1.471 0-2.431 1.08-2.431 2.665 0 1.611.947 2.638 2.494 2.638Zm-1.29-3.153c.037-.655.521-1.207 1.244-1.207.695 0 1.163.508 1.17 1.207h-2.414Zm4.598 3.052h1.21v-3.122c0-.632.421-1.06.943-1.06.511 0 .862.344.862.873v3.309h1.187v-3.202c0-.579.344-.98.929-.98.488 0 .876.287.876.923v3.259h1.214v-3.447c0-1.146-.662-1.755-1.605-1.755-.746 0-1.314.368-1.541.94h-.054c-.197-.582-.695-.94-1.387-.94-.689 0-1.204.355-1.418.94h-.06v-.873h-1.156v5.135Zm10.722.101c1.197 0 2.019-.586 2.233-1.478l-1.13-.127c-.164.434-.565.662-1.087.662-.782 0-1.3-.515-1.31-1.394h3.577v-.371c0-1.802-1.083-2.595-2.347-2.595-1.471 0-2.43 1.08-2.43 2.665 0 1.611.946 2.638 2.494 2.638Zm-1.291-3.153c.037-.655.522-1.207 1.244-1.207.695 0 1.163.508 1.17 1.207h-2.414Zm8.656-.725c-.167-.87-.862-1.425-2.066-1.425-1.237 0-2.079.609-2.076 1.558-.003.749.458 1.244 1.445 1.448l.875.184c.472.103.692.294.692.585 0 .351-.381.615-.956.615-.555 0-.916-.241-1.019-.702l-1.18.113c.15.943.942 1.502 2.203 1.502 1.283 0 2.189-.666 2.193-1.639-.004-.732-.475-1.18-1.444-1.39l-.876-.188c-.522-.117-.729-.297-.726-.595-.003-.347.381-.588.886-.588.558 0 .853.304.946.642l1.103-.12Zm3.497-3.069v6.846h1.19v-4.714h.064l1.892 4.694h.889l1.893-4.684h.063v4.704h1.19v-6.846h-1.517l-2.033 4.961h-.08l-2.033-4.961h-1.518Zm9.956 6.95c.806 0 1.287-.378 1.508-.809h.04v.705h1.163v-3.437c0-1.357-1.106-1.765-2.086-1.765-1.08 0-1.909.482-2.176 1.418l1.13.16c.12-.351.461-.652 1.053-.652.562 0 .869.288.869.793v.02c0 .347-.364.364-1.27.461-.996.107-1.949.405-1.949 1.561 0 1.01.739 1.545 1.718 1.545Zm.314-.889c-.504 0-.865-.231-.865-.676 0-.464.404-.658.946-.735.317-.044.952-.124 1.11-.251v.605c0 .572-.462 1.057-1.191 1.057Zm3.614 2.711h1.21v-2.735h.051c.19.375.588.899 1.471.899 1.21 0 2.116-.959 2.116-2.651 0-1.711-.933-2.641-2.12-2.641-.906 0-1.284.545-1.467.916h-.071v-.849h-1.19v7.061Zm1.187-4.493c0-.997.428-1.642 1.207-1.642.806 0 1.22.686 1.22 1.642 0 .963-.421 1.665-1.22 1.665-.772 0-1.207-.669-1.207-1.665Z"/><mask id="l" width="11" height="11" x="419" y="192" maskUnits="userSpaceOnUse" style="mask-type:luminance"><path fill="#fff" d="M427.965 192.456h-6.847c-.945 0-1.712.766-1.712 1.712v6.846c0 .946.767 1.712 1.712 1.712h6.847c.945 0 1.711-.766 1.711-1.712v-6.846c0-.946-.766-1.712-1.711-1.712Z"/></mask><g mask="url(#l)"><path fill="#000B07" d="M424.968 197.163h5.797v.856h-5.798l.001 5.797h-.856v-5.798l-5.797.001v-.856h5.798l-.001-5.797h.856v5.798-.001Z"/></g></g><path fill="#333" d="m392.358 200.195 2.265-2.265.605.605-3.298 3.298-3.298-3.298.605-.605 2.265 2.265v-3.246c0-3.061 2.502-5.563 5.563-5.563h1.284v.856h-1.284a4.722 4.722 0 0 0-4.707 4.707v3.246ZM401.772 194.736l-2.265 2.265-.605-.606 3.298-3.298 3.298 3.298-.605.606-2.265-2.265v3.246c0 3.06-2.502 5.563-5.563 5.563h-1.284v-.856h1.284a4.722 4.722 0 0 0 4.707-4.707v-3.246Z"/><path fill="#333" fill-opacity=".3" d="M207.987 309.291h4.012v-.735h-3.183v-6.112h-.829v6.847Zm6.794.12c.896 0 1.364-.481 1.524-.815h.041v.695h.789v-3.383c0-1.632-1.244-1.819-1.899-1.819-.776 0-1.658.268-2.06 1.204l.749.267c.174-.374.585-.775 1.337-.775.726 0 1.084.384 1.084 1.043v.026c0 .381-.388.348-1.324.468-.953.124-1.993.335-1.993 1.511 0 1.003.776 1.578 1.752 1.578Zm.12-.708c-.628 0-1.083-.281-1.083-.829 0-.602.548-.789 1.164-.87.334-.04 1.23-.133 1.364-.294v.722c0 .642-.509 1.271-1.445 1.271Zm7.405-3.397c-.247-.729-.802-1.217-1.819-1.217-1.083 0-1.885.615-1.885 1.484 0 .709.421 1.184 1.364 1.405l.856.2c.518.121.762.368.762.722 0 .442-.468.803-1.204.803-.645 0-1.049-.278-1.19-.829l-.749.187c.184.872.903 1.337 1.953 1.337 1.193 0 2.006-.652 2.006-1.538 0-.715-.448-1.167-1.364-1.391l-.763-.187c-.608-.15-.882-.354-.882-.749 0-.441.468-.762 1.096-.762.689 0 .973.381 1.11.736l.709-.201Zm3.609-1.15h-1.097v-1.23h-.789v1.23h-.775v.669h.775v3.209c0 .896.722 1.324 1.391 1.324.294 0 .481-.054.588-.094l-.16-.708c-.067.013-.174.04-.348.04-.348 0-.682-.107-.682-.776v-2.995h1.097v-.669Zm7.259 3.036c0 .962-.736 1.404-1.324 1.404-.656 0-1.124-.482-1.124-1.231v-3.209h-.789v3.263c0 1.31.696 1.939 1.659 1.939.775 0 1.283-.415 1.524-.936h.054v.869h.789v-5.135h-.789v3.036Zm2.328 4.025h.789v-2.715h.067c.173.281.508.896 1.497.896 1.284 0 2.18-1.03 2.18-2.661 0-1.618-.896-2.648-2.193-2.648-1.003 0-1.311.615-1.484.883h-.094v-.816h-.762v7.061Zm.775-4.493c0-1.151.509-1.926 1.471-1.926 1.003 0 1.498.842 1.498 1.926 0 1.096-.508 1.965-1.498 1.965-.949 0-1.471-.802-1.471-1.965Zm6.995 2.674c.989 0 1.324-.615 1.497-.896h.094v.789h.762v-6.847h-.789v2.528h-.067c-.173-.268-.481-.883-1.484-.883-1.297 0-2.193 1.03-2.193 2.648 0 1.631.896 2.661 2.18 2.661Zm.107-.709c-.99 0-1.498-.869-1.498-1.965 0-1.084.495-1.926 1.498-1.926.963 0 1.471.775 1.471 1.926 0 1.163-.522 1.965-1.471 1.965Zm5.406.722c.896 0 1.364-.481 1.525-.815h.04v.695h.789v-3.383c0-1.632-1.244-1.819-1.899-1.819-.776 0-1.658.268-2.06 1.204l.749.267c.174-.374.585-.775 1.337-.775.726 0 1.084.384 1.084 1.043v.026c0 .381-.388.348-1.324.468-.953.124-1.993.335-1.993 1.511 0 1.003.776 1.578 1.752 1.578Zm.12-.708c-.628 0-1.083-.281-1.083-.829 0-.602.548-.789 1.164-.87.334-.04 1.23-.133 1.364-.294v.722c0 .642-.509 1.271-1.445 1.271Zm6.001-4.547h-1.097v-1.23h-.789v1.23h-.775v.669h.775v3.209c0 .896.723 1.324 1.391 1.324.294 0 .482-.054.589-.094l-.161-.708c-.067.013-.174.04-.348.04-.347 0-.682-.107-.682-.776v-2.995h1.097v-.669Zm3.379 5.242c1.043 0 1.805-.522 2.046-1.297l-.763-.214c-.2.535-.665.802-1.283.802-.926 0-1.565-.598-1.602-1.698h3.728v-.334c0-1.913-1.137-2.568-2.207-2.568-1.39 0-2.313 1.097-2.313 2.675 0 1.578.909 2.634 2.394 2.634Zm-1.602-3.089c.054-.799.619-1.511 1.521-1.511.856 0 1.405.642 1.405 1.511h-2.926Zm6.961 3.089c.99 0 1.324-.615 1.498-.896h.094v.789h.762v-6.847h-.789v2.528h-.067c-.174-.268-.481-.883-1.484-.883-1.297 0-2.193 1.03-2.193 2.648 0 1.631.896 2.661 2.179 2.661Zm.107-.709c-.989 0-1.497-.869-1.497-1.965 0-1.084.494-1.926 1.497-1.926.963 0 1.471.775 1.471 1.926 0 1.163-.521 1.965-1.471 1.965Zm4.471.656c.33 0 .601-.271.601-.602a.604.604 0 0 0-.601-.602.604.604 0 0 0-.602.602c0 .331.271.602.602.602Zm0-3.812c.33 0 .601-.27.601-.601a.604.604 0 0 0-.601-.602.604.604 0 0 0-.602.602c0 .331.271.601.602.601Zm7.153 3.852c1.327 0 2.314-.833 2.314-1.953 0-.869-.515-1.501-1.378-1.645v-.053c.692-.211 1.124-.779 1.124-1.551 0-.97-.766-1.832-2.033-1.832-1.184 0-2.166.729-2.207 1.805h.803c.03-.682.678-1.083 1.391-1.083.755 0 1.243.458 1.243 1.15 0 .722-.565 1.19-1.377 1.19h-.548v.735h.548c1.04 0 1.618.529 1.618 1.284 0 .726-.632 1.217-1.511 1.217-.793 0-1.421-.408-1.471-1.07h-.843c.051 1.077 1 1.806 2.327 1.806Zm6.53-.094h.789v-3.209c0-.753.549-1.284 1.164-1.284.598 0 1.016.391 1.016.976v3.517h.802v-3.343c0-.662.415-1.15 1.137-1.15.562 0 1.043.297 1.043 1.056v3.437h.789v-3.437c0-1.207-.649-1.765-1.565-1.765-.735 0-1.273.338-1.537.869h-.054c-.254-.548-.702-.869-1.377-.869-.669 0-1.164.321-1.378.869h-.066v-.802h-.763v5.135Zm8.277 0h.789v-5.135h-.789v5.135Zm.401-5.991c.307 0 .562-.241.562-.535 0-.294-.255-.535-.562-.535-.308 0-.562.241-.562.535 0 .294.254.535.562.535Zm2.716 2.902c0-.896.555-1.404 1.31-1.404.733 0 1.177.478 1.177 1.284v3.209h.789v-3.263c0-1.31-.699-1.939-1.738-1.939-.776 0-1.257.348-1.498.869h-.067v-.802h-.762v5.135h.789v-3.089Zm8.048.99c0 .962-.735 1.404-1.324 1.404-.655 0-1.123-.482-1.123-1.231v-3.209h-.789v3.263c0 1.31.695 1.939 1.658 1.939.776 0 1.284-.415 1.525-.936h.053v.869h.789v-5.135h-.789v3.036Zm4.562-3.036h-1.097v-1.23h-.789v1.23h-.776v.669h.776v3.209c0 .896.722 1.324 1.391 1.324.294 0 .481-.054.588-.094l-.16-.708c-.067.013-.174.04-.348.04-.348 0-.682-.107-.682-.776v-2.995h1.097v-.669Zm3.378 5.242c1.043 0 1.806-.522 2.046-1.297l-.762-.214c-.201.535-.665.802-1.284.802-.926 0-1.564-.598-1.601-1.698h3.727v-.334c0-1.913-1.136-2.568-2.206-2.568-1.391 0-2.313 1.097-2.313 2.675 0 1.578.909 2.634 2.393 2.634Zm-1.601-3.089c.053-.799.618-1.511 1.521-1.511.856 0 1.404.642 1.404 1.511h-2.925Zm8.659-1.003c-.247-.729-.802-1.217-1.819-1.217-1.083 0-1.885.615-1.885 1.484 0 .709.421 1.184 1.364 1.405l.856.2c.518.121.762.368.762.722 0 .442-.468.803-1.204.803-.645 0-1.049-.278-1.19-.829l-.749.187c.184.872.903 1.337 1.953 1.337 1.193 0 2.006-.652 2.006-1.538 0-.715-.448-1.167-1.364-1.391l-.763-.187c-.608-.15-.882-.354-.882-.749 0-.441.468-.762 1.096-.762.689 0 .973.381 1.11.736l.709-.201Zm5.628 4.105c.896 0 1.364-.481 1.525-.815h.04v.695h.789v-3.383c0-1.632-1.244-1.819-1.899-1.819-.775 0-1.658.268-2.059 1.204l.749.267c.173-.374.585-.775 1.337-.775.725 0 1.083.384 1.083 1.043v.026c0 .381-.388.348-1.324.468-.953.124-1.992.335-1.992 1.511 0 1.003.775 1.578 1.751 1.578Zm.121-.708c-.629 0-1.083-.281-1.083-.829 0-.602.548-.789 1.163-.87.334-.04 1.23-.133 1.364-.294v.722c0 .642-.508 1.271-1.444 1.271Zm5.84 2.621c1.23 0 2.22-.562 2.22-1.886v-5.282h-.762v.816h-.081c-.174-.268-.495-.883-1.497-.883-1.298 0-2.194 1.03-2.194 2.608 0 1.604.937 2.514 2.18 2.514 1.003 0 1.324-.589 1.498-.869h.067v1.043c0 .855-.602 1.243-1.431 1.243-.933 0-1.26-.491-1.471-.775l-.629.441c.321.538.953 1.03 2.1 1.03Zm-.027-2.822c-.989 0-1.498-.749-1.498-1.819 0-1.043.495-1.885 1.498-1.885.963 0 1.471.775 1.471 1.885 0 1.137-.521 1.819-1.471 1.819Zm5.871.896c1.391 0 2.327-1.056 2.327-2.648 0-1.604-.936-2.661-2.327-2.661s-2.327 1.057-2.327 2.661c0 1.592.936 2.648 2.327 2.648Zm0-.709c-1.056 0-1.538-.909-1.538-1.939 0-1.029.482-1.952 1.538-1.952 1.057 0 1.538.923 1.538 1.952 0 1.03-.481 1.939-1.538 1.939Z"/><g filter="url(#m)"><path fill="#212121" d="M431.045 112.007h-227.31a3.423 3.423 0 0 0-3.423 3.423v68.467a3.423 3.423 0 0 0 3.423 3.424h227.31a3.424 3.424 0 0 0 3.424-3.424V115.43a3.424 3.424 0 0 0-3.424-3.423Z"/><path stroke="#000B07" stroke-width=".428" d="M431.044 112.221h-227.31a3.21 3.21 0 0 0-3.21 3.209v68.467a3.21 3.21 0 0 0 3.21 3.21h227.31a3.209 3.209 0 0 0 3.209-3.21V115.43a3.209 3.209 0 0 0-3.209-3.209Z"/></g><mask id="n" width="8" height="8" x="210" y="125" maskUnits="userSpaceOnUse" style="mask-type:luminance"><path fill="#fff" d="M217.428 125.7h-6.847v6.847h6.847V125.7Z"/></mask><g mask="url(#n)"><path fill="#fff" fill-rule="evenodd" d="m211.588 128.117 1.611 1.611 3.222-3.222 1.007 1.007-4.229 4.229-2.618-2.618 1.007-1.007Z" clip-rule="evenodd"/></g><path fill="#fff" d="M228.526 132.133h4.012v-.736h-3.183v-6.111h-.829v6.847Zm5.282 0h.789v-5.135h-.789v5.135Zm.402-5.991c.307 0 .561-.241.561-.535 0-.294-.254-.535-.561-.535-.308 0-.562.241-.562.535 0 .294.254.535.562.535Zm3.999 8.023c1.231 0 2.22-.561 2.22-1.885v-5.282h-.762v.816h-.08c-.174-.268-.495-.883-1.498-.883-1.297 0-2.193 1.03-2.193 2.608 0 1.604.936 2.514 2.18 2.514 1.003 0 1.324-.589 1.497-.87h.067v1.043c0 .856-.602 1.244-1.431 1.244-.932 0-1.26-.491-1.471-.776l-.628.442c.321.538.953 1.029 2.099 1.029Zm-.026-2.821c-.99 0-1.498-.749-1.498-1.819 0-1.043.495-1.885 1.498-1.885.962 0 1.471.775 1.471 1.885 0 1.137-.522 1.819-1.471 1.819Zm4.574-2.3c0-.896.571-1.404 1.35-1.404.742 0 1.19.468 1.19 1.283v3.21h.789v-3.263c0-1.321-.702-1.939-1.751-1.939-.81 0-1.271.338-1.512.869h-.066v-2.514h-.789v6.847h.789v-3.089Zm7.1-2.046h-1.097v-1.23h-.788v1.23h-.776v.668h.776v3.21c0 .896.722 1.324 1.39 1.324.294 0 .482-.054.589-.094l-.161-.709c-.067.014-.174.04-.348.04-.347 0-.682-.107-.682-.775v-2.996h1.097v-.668ZM230.639 152.673c2.086 0 3.263-1.297 3.263-3.437 0-2.126-1.177-3.41-3.17-3.41h-2.206v6.847h2.113Zm-1.284-.736v-5.375h1.324c1.605 0 2.42 1.016 2.42 2.674 0 1.672-.815 2.701-2.514 2.701h-1.23Zm7.436.856c.896 0 1.364-.481 1.524-.816h.04v.696h.789v-3.383c0-1.632-1.244-1.819-1.899-1.819-.775 0-1.658.267-2.059 1.203l.749.268c.174-.374.585-.776 1.337-.776.725 0 1.083.385 1.083 1.043v.027c0 .381-.388.348-1.324.468-.953.124-1.992.334-1.992 1.511 0 1.003.775 1.578 1.752 1.578Zm.12-.709c-.629 0-1.083-.28-1.083-.829 0-.601.548-.789 1.163-.869.334-.04 1.23-.134 1.364-.294v.722c0 .642-.508 1.27-1.444 1.27Zm3.767.589h.789v-3.25c0-.695.549-1.203 1.297-1.203.211 0 .428.04.482.053v-.802a7.312 7.312 0 0 0-.415-.013c-.615 0-1.15.347-1.337.855h-.053v-.775h-.763v5.135Zm3.597 0h.789v-1.922l.552-.512 1.922 2.434h1.003l-2.33-2.942 2.17-2.193h-.977l-2.246 2.287h-.094v-3.999h-.789v6.847Z"/><path fill="#18A0FB" d="M434.468 159.934H200.311v20.54h234.157v-20.54Z"/><path fill="#fff" d="M228.526 173.213h.829v-3.062h2.969v-.736h-2.969v-2.313h3.276v-.736h-4.105v6.847Zm7.221.107c1.391 0 2.327-1.056 2.327-2.648 0-1.604-.936-2.661-2.327-2.661-1.39 0-2.326 1.057-2.326 2.661 0 1.592.936 2.648 2.326 2.648Zm0-.709c-1.056 0-1.537-.909-1.537-1.939 0-1.029.481-1.952 1.537-1.952 1.057 0 1.538.923 1.538 1.952 0 1.03-.481 1.939-1.538 1.939Zm3.626.602h.789v-3.249c0-.696.548-1.204 1.297-1.204.211 0 .428.04.481.053v-.802a7.275 7.275 0 0 0-.414-.013c-.615 0-1.15.347-1.337.856h-.054v-.776h-.762v5.135Zm5.593.107c1.043 0 1.806-.522 2.046-1.297l-.762-.214c-.2.535-.665.802-1.284.802-.926 0-1.564-.598-1.601-1.698h3.728v-.334c0-1.913-1.137-2.568-2.207-2.568-1.391 0-2.313 1.097-2.313 2.675 0 1.578.909 2.634 2.393 2.634Zm-1.601-3.089c.053-.799.618-1.511 1.521-1.511.856 0 1.404.642 1.404 1.511h-2.925Zm8.659-1.003c-.247-.729-.802-1.217-1.818-1.217-1.084 0-1.886.615-1.886 1.484 0 .709.421 1.184 1.364 1.405l.856.2c.518.121.762.368.762.722 0 .442-.468.803-1.203.803-.646 0-1.05-.278-1.191-.829l-.748.187c.183.872.902 1.337 1.952 1.337 1.193 0 2.006-.652 2.006-1.538 0-.715-.448-1.167-1.364-1.391l-.762-.187c-.609-.15-.883-.354-.883-.749 0-.441.468-.762 1.097-.762.688 0 .972.381 1.109.736l.709-.201Zm3.609-1.15h-1.097v-1.23h-.789v1.23h-.775v.669h.775v3.209c0 .896.722 1.324 1.391 1.324.294 0 .481-.054.588-.094l-.16-.708c-.067.013-.174.04-.348.04-.347 0-.682-.107-.682-.776v-2.995h1.097v-.669Z"/></g><defs><filter id="a" width="272.499" height="323.848" x="181.483" y="12.73" color-interpolation-filters="sRGB" filterUnits="userSpaceOnUse"><feFlood flood-opacity="0" result="BackgroundImageFix"/><feColorMatrix in="SourceAlpha" result="hardAlpha" values="0 0 0 0 0 0 0 0 0 0 0 0 0 0 0 0 0 0 127 0"/><feOffset dy="1.712"/><feGaussianBlur stdDeviation="5.991"/><feColorMatrix values="0 0 0 0 0 0 0 0 0 0 0 0 0 0 0 0 0 0 0.15 0"/><feBlend in2="BackgroundImageFix" result="effect1_dropShadow_2267_466"/><feColorMatrix in="SourceAlpha" result="hardAlpha" values="0 0 0 0 0 0 0 0 0 0 0 0 0 0 0 0 0 0 127 0"/><feOffset/><feColorMatrix values="0 0 0 0 0 0 0 0 0 0 0 0 0 0 0 0 0 0 0.2 0"/><feBlend in2="effect1_dropShadow_2267_466" result="effect2_dropShadow_2267_466"/><feBlend in="SourceGraphic" in2="effect2_dropShadow_2267_466" result="shape"/></filter><filter id="m" width="263.257" height="104.412" x="185.761" y="101.737" color-interpolation-filters="sRGB" filterUnits="userSpaceOnUse"><feFlood flood-opacity="0" result="BackgroundImageFix"/><feColorMatrix in="SourceAlpha" result="hardAlpha" values="0 0 0 0 0 0 0 0 0 0 0 0 0 0 0 0 0 0 127 0"/><feOffset dy="1.712"/><feGaussianBlur stdDeviation="2.995"/><feColorMatrix values="0 0 0 0 0 0 0 0 0 0 0 0 0 0 0 0 0 0 0.15 0"/><feBlend in2="BackgroundImageFix" result="effect1_dropShadow_2267_466"/><feColorMatrix in="SourceAlpha" result="hardAlpha" values="0 0 0 0 0 0 0 0 0 0 0 0 0 0 0 0 0 0 127 0"/><feOffset dy="4.279"/><feGaussianBlur stdDeviation="7.275"/><feColorMatrix values="0 0 0 0 0 0 0 0 0 0 0 0 0 0 0 0 0 0 0.2 0"/><feBlend in2="effect1_dropShadow_2267_466" result="effect2_dropShadow_2267_466"/><feBlend in="SourceGraphic" in2="effect2_dropShadow_2267_466" result="shape"/></filter></defs></svg>