<svg xmlns="http://www.w3.org/2000/svg" width="500" height="350" fill="none"><path fill="#1A1A1A" d="M115.789 227.583c3.581-5.371 9.979-6.008 10.256-6.033l.151 1.676c-.059 0-5.87.603-8.998 5.278l-1.409-.921Z"/><path fill="#676F6D" d="M124.418 233.397v-7.356h-6.231v7.356h6.231ZM135.748 233.389v-7.356h-1.702v7.356h1.702Z"/><path fill="#7E8482" d="M134.045 232.266v-5.094h-1.702v5.094h1.702Z"/><path fill="#343837" d="M128.955 227.742v-1.131h-1.702v1.131h1.702ZM129.518 226.611v-1.131h-2.835v1.131h2.835Z"/><path fill="#424948" d="M130.078 225.471v-9.048h-3.966v9.048h3.966ZM130.078 232.015v-4.524h-5.66v4.524h5.66Z"/><path fill="#676F6D" d="M132.344 232.828v-6.226h-2.264v6.226h2.264Z"/><path fill="#384966" d="M121.022 229.996c0-4.374-3.044-7.918-6.792-7.918H72.442a7.928 7.928 0 0 0-5.603 2.319 7.915 7.915 0 0 0 0 11.2 7.941 7.941 0 0 0 5.603 2.325h41.779c3.757 0 6.801-3.553 6.801-7.926Z"/><path fill="#343837" d="M126.122 224.659a2.263 2.263 0 1 0-2.265-2.262 2.264 2.264 0 0 0 2.265 2.262Z"/><path fill="#676F6D" d="M126.12 224.097a1.701 1.701 0 1 0 0-3.401 1.701 1.701 0 1 0 0 3.401Z"/><path fill="#7F92AD" d="m81.265 233.858-.763.101-.11.31-.687.092.839-1.885.738-.101.838 1.676-.713.092-.142-.285Zm-.134-.369-.243-.603-.235.67.478-.067ZM82.506 232.208l1.124-.151a.834.834 0 0 1 .553.067.433.433 0 0 1 .184.377.57.57 0 0 1-.2.452c-.178.135-.39.214-.613.226l-.369.051v.662l-.68.092v-1.776Zm.68.67h.167a.634.634 0 0 0 .277-.092.197.197 0 0 0 .075-.151.16.16 0 0 0-.067-.134.387.387 0 0 0-.26 0h-.193v.377ZM84.879 231.889l1.82-.243v.386l-1.14.15v.277l1.056-.134v.36l-1.057.143v.343l1.166-.151v.402l-1.845.243v-1.776ZM87.318 233.339v-1.777l1.133-.15c.158-.02.319-.02.478 0 .1.011.194.056.268.125a.38.38 0 0 1 .1.277.42.42 0 0 1-.083.26.54.54 0 0 1-.21.201.846.846 0 0 1-.235.109c.06.006.12.02.176.041.037.02.071.046.1.076a.574.574 0 0 1 .102.1l.327.47-.772.1-.36-.494a.302.302 0 0 0-.118-.118.282.282 0 0 0-.168 0h-.058v.721l-.68.059Zm.68-1.148h.285l.184-.05a.224.224 0 0 0 .11-.067.206.206 0 0 0 .041-.109.133.133 0 0 0-.067-.126.467.467 0 0 0-.252 0h-.301v.352ZM89.751 231.244l2.055-.276v.435l-.696.092v1.316l-.68.084v-1.333l-.696.093.017-.411ZM93.709 230.716l.67-.092v1.056a.915.915 0 0 1-.058.301.75.75 0 0 1-.193.268.898.898 0 0 1-.268.185 1.798 1.798 0 0 1-.478.125c-.115.009-.23.009-.344 0a.898.898 0 0 1-.319 0 .701.701 0 0 1-.234-.125.476.476 0 0 1-.143-.185.832.832 0 0 1-.059-.293v-1.055l.68-.093v1.09a.236.236 0 0 0 .1.209.359.359 0 0 0 .277.042.421.421 0 0 0 .277-.117.329.329 0 0 0 .092-.235v-1.081ZM95.025 232.308v-1.776l1.124-.151c.159-.02.32-.02.478 0 .101.01.196.054.269.126a.373.373 0 0 1 .1.276.47.47 0 0 1-.075.26.561.561 0 0 1-.218.201.783.783 0 0 1-.235.109.52.52 0 0 1 .176 0c.04.019.077.045.109.075a.458.458 0 0 1 .092.101l.327.469-.763.101-.36-.495a.266.266 0 0 0-.126-.117.255.255 0 0 0-.16 0h-.058v.721l-.68.1Zm.688-1.148h.285l.176-.05a.239.239 0 0 0 .11-.067.15.15 0 0 0 0-.109.126.126 0 0 0-.067-.126.535.535 0 0 0-.252 0h-.294l.042.352ZM97.6 230.188l1.811-.243v.352l-1.132.151v.285l1.056-.142v.36l-1.056.142v.352l1.174-.159v.402l-1.845.251-.008-1.751ZM82.01 235.115l-.15-.712h.142l.134.62.537-.067v.083l-.68.093.017-.017ZM83.344 234.939l.268-.771h.151l.596.645h-.16l-.176-.201-.453.067-.067.226h-.16v.034Zm.251-.335.37-.051-.16-.184-.109-.134a.434.434 0 0 1 0 .143l-.1.226ZM85.02 234.704l-.159-.703.411-.059h.201a.31.31 0 0 1 .135.05.2.2 0 0 1 .058.092.125.125 0 0 1 0 .092.2.2 0 0 1-.1.076.43.43 0 0 1 .168.05.164.164 0 0 1 .048.042.159.159 0 0 1 .027.059.175.175 0 0 1 0 .092.202.202 0 0 1-.067.075.262.262 0 0 1-.11.051l-.175.041-.436.042Zm.051-.427h.369a.129.129 0 0 0 .075-.05.066.066 0 0 0 0-.059v-.059a.197.197 0 0 0-.083 0h-.378v.218l.017-.05Zm.076.327h.444a.078.078 0 0 0 .026-.021.087.087 0 0 0 .016-.03.049.049 0 0 0 0-.058.084.084 0 0 0 0-.067.172.172 0 0 0-.1 0 .532.532 0 0 0-.16 0h-.252l.059.243-.034-.067ZM86.531 234.151a.282.282 0 0 1 .084-.293.572.572 0 0 1 .352-.151.853.853 0 0 1 .285 0c.078.019.15.056.21.109a.325.325 0 0 1 .109.176.436.436 0 0 1 0 .21.426.426 0 0 1-.168.15.588.588 0 0 1-.251.076.653.653 0 0 1-.285 0 .557.557 0 0 1-.21-.109.399.399 0 0 1-.126-.168Zm.151 0a.258.258 0 0 0 .151.185c.09.03.187.03.277 0a.443.443 0 0 0 .251-.109.24.24 0 0 0 .06-.227.425.425 0 0 0-.076-.15.398.398 0 0 0-.16-.076.524.524 0 0 0-.201 0 .434.434 0 0 0-.243.109.218.218 0 0 0-.042.252l-.017.016ZM88.417 234.252l-.151-.704.478-.067a.716.716 0 0 1 .226 0 .195.195 0 0 1 .134.05.137.137 0 0 1 .067.101.124.124 0 0 1 0 .134.478.478 0 0 1-.218.1h.093c.05.019.098.044.142.076l.227.167h-.177l-.176-.125-.126-.084a.237.237 0 0 0-.083 0h-.319l.075.318h-.15l-.042.034Zm.058-.411H88.936a.177.177 0 0 0 .076-.058.092.092 0 0 0 0-.067.11.11 0 0 0-.076-.076.41.41 0 0 0-.184 0l-.344.051.067.15ZM89.986 234.042l.26-.762h.151l.604.645h-.168l-.167-.201-.453.059-.076.234h-.15v.025Zm.252-.326.36-.051-.15-.184-.11-.134c.004.047.004.095 0 .142l-.1.227ZM91.863 233.791l-.134-.62h-.352v-.084l.839-.109v.084l-.361.042.142.628-.134.059ZM92.962 233.288a.291.291 0 0 1 .084-.293.68.68 0 0 1 .36-.184.986.986 0 0 1 .277 0 .53.53 0 0 1 .218.109.36.36 0 0 1 .1.184.285.285 0 0 1 0 .201.31.31 0 0 1-.159.151.859.859 0 0 1-.537.084.429.429 0 0 1-.21-.109.251.251 0 0 1-.133-.143Zm.142 0a.316.316 0 0 0 .151.193.53.53 0 0 0 .285 0 .43.43 0 0 0 .252-.109.23.23 0 0 0 .059-.226.265.265 0 0 0-.084-.142.264.264 0 0 0-.151-.084.524.524 0 0 0-.201 0 .428.428 0 0 0-.244.1.244.244 0 0 0-.067.252v.016ZM94.85 233.397l-.15-.712.477-.067a1.07 1.07 0 0 1 .227 0 .323.323 0 0 1 .134.05c.03.027.054.062.067.101a.148.148 0 0 1-.042.142.67.67 0 0 1-.218.093h.092c.05.018.099.043.143.075l.226.167h-.176l-.176-.125-.126-.084H94.917l.067.31h-.142l.008.05Zm.059-.419h.31c.05.008.101.008.151 0l.076-.05a.101.101 0 0 0 0-.067s0-.059-.067-.075a.322.322 0 0 0-.185 0h-.344l.05.234.009-.042ZM96.56 233.163l-.16-.704h.143l.16.712h-.143v-.008ZM97.55 233.037l-.16-.712.789-.109v.084l-.637.092v.218l.603-.084v.084l-.603.075.058.243.663-.084v.084l-.839.109h.126ZM99.05 232.601h.126a.225.225 0 0 0 .184.118H99.68a.222.222 0 0 0 .084-.059.1.1 0 0 0 0-.067v-.05a.25.25 0 0 0-.109 0H99.235a.217.217 0 0 1-.126-.051.115.115 0 0 1-.059-.083.119.119 0 0 1 0-.101.224.224 0 0 1 .118-.092.616.616 0 0 1 .193-.05h.218a.39.39 0 0 1 .159.05.184.184 0 0 1 .076.109h-.135a.16.16 0 0 0-.04-.058.171.171 0 0 0-.06-.034.351.351 0 0 0-.193 0 .41.41 0 0 0-.185.05s-.05.059 0 .084a.083.083 0 0 0 .059.058.54.54 0 0 0 .227 0h.251c.054.01.105.03.151.059a.175.175 0 0 1 .067.092.147.147 0 0 1 0 .117.316.316 0 0 1-.126.093.816.816 0 0 1-.453.058.336.336 0 0 1-.176-.058.184.184 0 0 1-.15-.185ZM79.881 233.406l-1.031-2.003a3.295 3.295 0 0 1 1.677.88l-.646 1.123ZM78.47 235.257l2.517-.838a2.514 2.514 0 0 1-1.124 1.291l-1.392-.453ZM77.004 235.081l2.516.838a3.972 3.972 0 0 1-1.963.293l-.553-1.131ZM76.115 234.151l1.03 2.011a3.28 3.28 0 0 1-1.676-.88l.646-1.131ZM76.334 232.995l-1.082 1.994a2.03 2.03 0 0 1-.369-1.541l1.451-.453ZM77.524 232.3l-2.516.838a2.514 2.514 0 0 1 1.124-1.291l1.392.453ZM78.992 232.476l-2.515-.838a3.972 3.972 0 0 1 1.962-.293l.553 1.131Z"/><path fill="#fff" d="M152.277 198.535c12.125 0 21.954-12.927 21.954-28.872 0-15.946-9.829-28.872-21.954-28.872s-21.955 12.926-21.955 28.872c0 15.945 9.83 28.872 21.955 28.872Z"/><path fill="#000" d="M152.277 190.274c8.499 0 15.388-9.228 15.388-20.611 0-11.383-6.889-20.611-15.388-20.611-8.499 0-15.388 9.228-15.388 20.611 0 11.383 6.889 20.611 15.388 20.611Z"/><path fill="#474747" d="M199.138 168.632h-1.158v2.799h1.158a16.05 16.05 0 0 0 5.316 10.598 28.235 28.235 0 0 0 0-23.995 16.074 16.074 0 0 0-5.316 10.598Z"/><path fill="#D0D0CF" d="M195.715 187.291v.955a29.372 29.372 0 0 0 13.552-6.652c-.252.477-.529.955-.839 1.416.474-.756.908-1.536 1.3-2.338a10.912 10.912 0 0 1-4.898-2.513 19.169 19.169 0 0 1-9.115 9.132ZM195.715 151.825v.947a19.192 19.192 0 0 1 9.141 9.149 10.903 10.903 0 0 1 4.897-2.513 24.359 24.359 0 0 0-1.3-2.338c.285.461.562.93.839 1.416a29.267 29.267 0 0 0-13.577-6.661Z"/><path fill="#333" d="M197.225 172.327h.763v-4.574h-.763v4.574ZM197.216 171.557l-.763-.763v-1.525l.763-.762v3.05Z"/><path fill="#D0D0CF" d="m201.033 177.664-3.053-3.058v-9.149l3.053-3.05v15.257Z"/><path fill="#777" d="m234.049 145.676-7.195 3.326.947 2.036 5.359-2.472 6.331 10.49 1.929-1.165-7.371-12.215ZM231.406 192.335l-2.894-2.974-1.61 1.566 4.361 4.491 7.044-6.066-1.476-1.701-5.425 4.684Z"/><path fill="#25BDD6" d="M298.05 153.962h-54.995v35.993h54.995v-35.993Z"/><path fill="#7FDDE1" d="M298.05 159.961h-54.995v29.994h54.995v-29.994Z"/><path fill="#2B2B2B" d="m303.005 160.179-4.956-6.217v35.985h4.956v-29.768Z"/><path fill="#AAA" d="m233.604 160.179 9.451-6.217v35.985h-9.451v-29.768Z"/><path fill="#494949" d="M302.997 189.947h-69.393v3.125h69.393v-3.125Z"/><path fill="#C6C6C6" d="M222.031 151.825a29.297 29.297 0 0 1 13.552 6.653c-2.86-5.387-7.782-11.135-13.552-13.137v6.484ZM232.883 185.632a24.57 24.57 0 0 0 2.7-4.038 29.363 29.363 0 0 1-13.552 6.652v6.485c4.227-1.475 8.017-5.647 10.852-9.099Z"/><path fill="#282828" d="M427.387 187.568a73.495 73.495 0 0 1-.688 4.298h26.969v-4.298h-26.281Z"/><path fill="#333" d="M427.387 162.533a103.02 103.02 0 0 1 0 25.026h26.281v-25.026h-26.281Z"/><path fill="#3F3F3F" d="M426.699 158.243c.26 1.366.495 2.79.688 4.29h26.281v-4.29h-26.969Z"/><path fill="#1A1A1A" d="m462.674 201.945-18.013-5.999v-41.984l18.013-5.999v53.982Z"/><path fill="#333" d="m468.679 200.445-6.004 1.5v-53.982l6.004 1.5v50.982Z"/><path fill="#444" d="M438.59 183.378c1.677 0 3.094-1.122 3.094-2.513a1.985 1.985 0 0 0-.176-.796 3.35 3.35 0 0 1-2.935 1.729 3.362 3.362 0 0 1-2.935-1.729c-.113.25-.173.521-.176.796.033 1.399 1.417 2.513 3.128 2.513Z"/><path fill="#1A1A1A" d="M438.591 181.787a3.106 3.106 0 0 0 2.918-1.676 3.347 3.347 0 0 0-2.935-1.729 3.358 3.358 0 0 0-2.935 1.729 3.11 3.11 0 0 0 2.952 1.676Z"/><path fill="#3A3A3A" d="M307.434 141.964v65.98l6.004 2.002v-69.984l-6.004 2.002Z"/><path fill="#1A1A1A" d="m313.438 143.69 6.733 6.971v48.779l-6.733 6.962V143.69Z"/><path fill="#2B2B2B" d="M341.54 169.663h-21.661v12.986h21.661v-12.986ZM348.046 173.995h-6.499v4.331h6.499v-4.331ZM352.375 169.663h-2.164v12.986h2.164v-12.986Z"/><path fill="#2B2B2B" d="M328.541 158.838h-2.164v34.636h2.164v-34.636Z"/><path fill="#2B2B2B" d="m341.338 153.074 8.001 13.883h-21.334v1.081h21.963l1.4 2.438.939-.545-10.558-18.315-13.786 7.398.511.955 12.864-6.895ZM349.968 184.275h-21.963v1.081h21.334l-8.001 13.883-12.864-6.896-.511.955 13.786 7.39 10.558-18.307-.939-.544-1.4 2.438ZM418.422 147.963l-24.018-11.294v76.57l24.018-11.294v-53.982Z"/><path fill="#333" d="M392.007 135.965h-21.619l-12.009 3.997v69.984l12.009 3.997h21.619l2.398-.704v-76.57l-2.398-.704Z"/><path fill="#1A1A1A" d="M282.519 204.944h-85.017v17.997h85.017v-17.997Z"/><path fill="#2B2B2B" d="M282.519 216.942h-85.017v5.999h85.017v-5.999Z"/><path fill="#333" d="m192.656 198.945-7.162 7.164v22.831h48.027l6.004-5.999v-23.996h-46.869Z"/><path fill="#8E8649" d="m198.315 207.072-6.868 11.881h13.736l-6.868-11.881Z"/><path fill="#993D3D" d="m198.315 209.921 4.395 7.608h-8.789l4.394-7.608Zm0-2.857-6.868 11.889h13.736l-6.868-11.889Z"/><path fill="#993D3D" d="M197.904 216.113h.839v.838h-.839v-.838Zm0-3.846h.789v3.234h-.789v-3.234Z"/><path fill="#E4E4E4" d="M258.937 259.731c-1.091-5.027 1.174-13.322 3.765-19.195 9.325-21.156 21.384-25.135 31.581-24.649 19.464.997 34.526 29.081 48.27 38.079 11.548 7.541 2.139 18.332-24.017 19.673-23.867 1.215-54.845-2.581-59.599-13.908Z"/><path fill="#D2D2D2" d="M292.632 223.343h1.266c9.443.486 19.195 11.311 27.791 20.862 5.686 6.309 11.053 12.275 16.772 16.003.306.195.6.407.88.637-2.021 1.6-8.067 4.6-21.166 5.27-2.692.134-5.484.209-8.293.209-11.33 0-22.131-1.106-30.416-3.108-8.453-2.044-12.168-4.533-13.275-5.924-.168-2.748.964-8.235 3.404-13.765 7.992-18.123 16.99-20.217 23.062-20.217m0-7.499c-9.829 0-21.108 4.667-29.93 24.691-2.591 5.865-4.855 14.16-3.765 19.195 4.193 9.995 28.806 14.126 50.92 14.126 2.951 0 5.87-.075 8.679-.218 26.156-1.34 35.565-12.107 24.017-19.672-13.744-8.999-28.805-37.083-48.269-38.08-.545 0-1.099-.042-1.677-.042h.025Z"/><path fill="#666" d="m284.607 251.377-1.677-6.275a8.704 8.704 0 0 1 3.505 3.393l-1.828 2.882ZM280.783 255.918l6.114-.955a6.102 6.102 0 0 1-2.994 3.117l-3.12-2.162ZM277.479 254.662l5.526 3.762a7.311 7.311 0 0 1-4.587-.193l-.939-3.569ZM275.744 251.528l1.677 6.275a8.672 8.672 0 0 1-3.497-3.393l1.82-2.882ZM276.607 248.344l-3.112 5.111a7.346 7.346 0 0 1-.36-4.6l3.472-.511ZM279.576 246.987l-6.113.955a6.106 6.106 0 0 1 2.994-3.117l3.119 2.162ZM282.871 248.244l-5.535-3.762a7.336 7.336 0 0 1 4.595.193l.94 3.569Z"/><path fill="#666" d="m277.504 254.645 5.543 3.762a7.288 7.288 0 0 1-4.595-.201l-.948-3.561ZM276.632 248.336l-3.111 5.102a7.359 7.359 0 0 1-.369-4.599l3.48-.503ZM279.575 246.979l-6.122.946a6.085 6.085 0 0 1 2.994-3.108l3.128 2.162ZM282.929 248.235l-5.534-3.761a7.337 7.337 0 0 1 4.595.201l.939 3.56ZM284.607 251.377l-1.677-6.275a8.73 8.73 0 0 1 3.513 3.393l-1.836 2.882ZM283.768 254.595l3.119-5.103a7.329 7.329 0 0 1 .361 4.592l-3.48.511ZM280.816 255.902l6.122-.947a6.08 6.08 0 0 1-2.994 3.108l-3.128-2.161Z"/><path fill="#4D4D4D" d="M52.56 160.807h12.159v-8.956h-12.16a10.07 10.07 0 0 0-7.115 2.944 10.051 10.051 0 0 0-2.948 7.11v17.728c0 2.667 1.06 5.224 2.947 7.11a10.07 10.07 0 0 0 7.116 2.944h12.16v-8.965h-12.16a1.124 1.124 0 0 1-1.081-1.064V161.93a1.124 1.124 0 0 1 1.081-1.123Z"/><path fill="#373637" d="M80.182 199.783v1.818h3.035v-1.818h-3.035Z"/><path fill="#333" d="M92.484 197.957a93.255 93.255 0 0 0 14.29-2.053v-51.736a64.05 64.05 0 0 0-2.683-.57 93.241 93.241 0 0 0-11.607-1.483v55.842Z"/><path fill="#494949" d="M104.09 197.379c.906-.176 1.803-.369 2.683-.562v-10.154l-2.683.335v10.381Z"/><path fill="#858585" d="M92.484 187.886v10.984a94.82 94.82 0 0 0 11.607-1.491v-10.381c-3.699.427-7.581.729-11.607.888ZM92.484 152.186c4.026.159 7.908.461 11.607.888v-10.381a93.065 93.065 0 0 0-11.607-1.491v10.984Z"/><path fill="#494949" d="M106.773 153.409v-10.155a65.228 65.228 0 0 0-2.683-.561v10.381c.906.142 1.803.218 2.683.335ZM104.09 186.235c.906-.1 1.803-.217 2.683-.335v-15.257h-2.683v15.592Z"/><path fill="#858585" d="M104.091 170.492H92.484v16.481c4.026-.159 7.908-.461 11.607-.888v-15.593ZM104.091 153.987a153.265 153.265 0 0 0-11.607-.888v16.48h11.607v-15.592Z"/><path fill="#494949" d="M104.09 169.428h2.683v-15.257a75.568 75.568 0 0 0-2.683-.335v15.592Z"/><path fill="#858585" d="M94.154 199.775H83.219v1.818h10.935v-1.818Z"/><path fill="#373637" d="M80.174 138.47v1.818h3.035v-1.818h-3.035Z"/><path fill="#858585" d="M94.154 138.47H83.219v1.818h10.935v-1.818Z"/><path fill="#333" d="M93.542 140.288H80.787v59.487h12.755v-59.487Z"/><path fill="#5E5E5E" d="M60.324 198.099v-56.135a1.675 1.675 0 0 1 1.677-1.676h18.785v59.487H62.001a1.68 1.68 0 0 1-1.677-1.676Z"/><path fill="#CFCFCF" d="M93.542 191.112H80.787v8.671h12.755v-8.671ZM93.542 140.288H80.787v8.672h12.755v-8.672ZM93.542 150.912H80.787v38.239h12.755v-38.239Z"/><path fill="#666" d="M86.556 160.933v12.743h-.604v-12.743a.312.312 0 0 0-.088-.217.313.313 0 0 0-.214-.093h-4.822v-.604h4.864a.915.915 0 0 1 .864.914Z"/><path fill="#666" d="M89.902 158.503v15.173h-1.216v-15.173a.61.61 0 0 0-.612-.612h-7.246v-1.214h7.287a1.836 1.836 0 0 1 1.787 1.826Z"/><path fill="#373637" d="M80.182 172.461v2.43h3.035v-2.43h-3.035ZM80.174 156.073v4.86h1.216v-4.86h-1.216Z"/><path fill="#858585" d="M94.154 170.794H83.219v5.773h10.935v-5.773Z"/><path fill="#333" d="M68.744 157.498v1.457h9.652v-1.457h-9.652ZM68.736 156.023v.486h9.653v-.486h-9.653ZM68.736 152.135v1.944h9.653v-1.944h-9.653ZM68.744 150.183v.972h9.652v-.972h-9.652ZM68.736 144.821v.972h9.653v-.972h-9.653ZM68.736 154.565v.972h9.653v-.972h-9.653ZM68.736 142.877v.972h9.653v-.972h-9.653ZM68.736 146.782v1.457h9.653v-1.457h-9.653ZM66.682 163.354c0-1.391.536-1.726 1.274-1.726s1.275.335 1.275 1.726v5.086c0 1.391-.545 1.726-1.275 1.726-.73 0-1.274-.335-1.274-1.726v-5.086Zm1.878-.293c0-.57-.268-.838-.604-.838-.335 0-.603.243-.603.838v5.672c0 .57.268.838.603.838.336 0 .604-.252.604-.838v-5.672ZM70.137 163.354c0-1.391.536-1.726 1.274-1.726s1.267.335 1.267 1.726v5.086c0 1.391-.537 1.726-1.267 1.726-.73 0-1.274-.335-1.274-1.726v-5.086Zm1.878-.293c0-.57-.277-.838-.604-.838-.327 0-.612.243-.612.838v5.672c0 .57.277.838.612.838.336 0 .604-.252.604-.838v-5.672ZM73.457 170.032v-.897c0-1.541 1.879-3.469 1.879-4.918v-1.123c0-.603-.302-.838-.604-.838s-.604.21-.604.838v1.425h-.671v-1.274c0-1.19.528-1.583 1.258-1.583s1.291.41 1.291 1.583v1.089c0 1.483-1.861 3.595-1.861 5.027h1.677v.671h-2.365ZM77.305 170.032v-7.474l-.98.394v-.654l1.115-.527h.536v8.261h-.67Z"/><path fill="#383838" d="m225.276 134.784 5.979-15.542a11.773 11.773 0 0 0-6.776-15.207l-4.553-1.743a11.756 11.756 0 0 0-12.776 2.876 11.742 11.742 0 0 0-2.445 3.894l-5.971 15.5a54.837 54.837 0 0 1 14.122 3.033 46.273 46.273 0 0 1 12.42 7.189Z"/><path fill="#484848" d="M216.53 125.526c4.909 0 8.889-3.977 8.889-8.881 0-4.905-3.98-8.882-8.889-8.882-4.91 0-8.889 3.977-8.889 8.882 0 4.904 3.979 8.881 8.889 8.881Z"/><path fill="#333" d="M216.53 118.513a1.87 1.87 0 1 0 .001-3.739 1.87 1.87 0 0 0-.001 3.739Z"/><path fill="#606060" d="m239.574 90.027 2.591-6.742a.829.829 0 0 0-.477-1.072l-3.429-1.316a.831.831 0 0 0-1.073.477l-2.591 6.743a.829.829 0 0 0 .477 1.071l3.429 1.316a.831.831 0 0 0 1.073-.477Z"/><path fill="#333" d="M239.021 85.368a1.333 1.333 0 1 0 0-2.665 1.333 1.333 0 0 0 0 2.665Z"/><path fill="#606060" d="m220.413 90.345 2.592-6.742a.83.83 0 0 0-.477-1.072l-3.429-1.315a.831.831 0 0 0-1.073.477l-2.592 6.742a.83.83 0 0 0 .478 1.072l3.429 1.315a.83.83 0 0 0 1.072-.477Z"/><path fill="#333" d="M219.859 85.695a1.333 1.333 0 1 0 0-2.666 1.333 1.333 0 0 0 0 2.666Z"/><path fill="#484848" d="M151.085 99.955a138.871 138.871 0 0 0-33.771 8.253 98.616 98.616 0 0 0-16.084 7.54c-3.505 2.162-10.004 6.401-10.306 11.143h60.161V99.955Z"/><path fill="#6D6D6D" d="M149.559 109.598v-1.005h-3.548v1.005h3.548ZM149.551 110.604v-.335h-3.547v.335h3.547ZM149.551 113.268v-1.332h-3.547v1.332h3.547ZM149.551 114.609v-.671h-3.547v.671h3.547ZM149.559 118.287v-.67h-3.548v.67h3.548ZM149.559 111.609v-.67h-3.548v.67h3.548ZM149.551 119.619v-.67h-3.547v.67h3.547ZM149.559 116.946v-1.005h-3.548v1.005h3.548ZM127.32 119.435v-9.786l-1.308.519v-.838l1.476-.687h.721v10.833l-.889-.041ZM129.467 115.698v-.788h1.845v.788h-1.845ZM134.826 114.676a1.308 1.308 0 0 1-1.208.837c-.654 0-1.3-.527-1.3-1.843v-3.083c0-1.525.587-2.145 1.678-2.145 1.09 0 1.677.561 1.677 2.145v6.988c0 1.541-.688 2.069-1.677 2.069-.99 0-1.678-.494-1.678-2.069v-1.006h.889v1.19c0 .796.394 1.081.839 1.081.444 0 .838-.285.838-1.081l-.058-3.083Zm0-4.365c0-.838-.403-1.106-.839-1.106-.436 0-.838.31-.838 1.106v3.15c0 1.047.402 1.215.754 1.215.353 0 .839-.31.839-1.215l.084-3.15ZM139.353 114.676a1.312 1.312 0 0 1-1.207.837c-.655 0-1.3-.527-1.3-1.843v-3.083c0-1.525.587-2.145 1.677-2.145s1.677.561 1.677 2.145v6.988c0 1.541-.688 2.069-1.677 2.069-.99 0-1.677-.494-1.677-2.069v-1.006h.889v1.19c0 .796.394 1.081.838 1.081.445 0 .839-.285.839-1.081l-.059-3.083Zm0-4.365c0-.838-.402-1.106-.838-1.106-.437 0-.797.31-.797 1.106v3.15c0 1.047.402 1.215.755 1.215.478 0 .838-.31.838-1.215l.042-3.15ZM144.184 119.435l-1.92-7.583v7.583h-.889v-10.834h.839l1.995 7.692v-7.692h.889v10.834h-.914Z"/><path fill="#5C79AD" d="m144.889 121.102-.587 1.19-.42-1.19h-10.206l-.31 1.416-.671-1.416h-6.683v1.047l.629.746h-.629v1.801h3.43l.385-1.399v1.399h10.86v-1.089l.839 1.089h8.034v-3.594h-4.671ZM118.766 118.63l2.902 4.918h-5.795l2.893-4.918Zm0-1.851-4.52 7.691h9.049l-4.529-7.691Z"/><path fill="#5C79AD" d="M118.498 122.627h.545v.536h-.545v-.536Zm0-2.514h.512v2.103h-.512v-2.103Z"/><path fill="#E4E4E4" d="M143.505 87.647c2.315-4.818 4.604-9.97 7.027-15.542 3.288-7.54 1.065-10.942.336-12.056-5.116-7.792-23.967-12.627-49.184-12.627-6.52-.005-13.036.325-19.522.99-20.965 2.228-31.506 11.201-41.704 24.967a38.516 38.516 0 0 0-7.287 24.004c.06 2.286.258 4.566.595 6.828 22.022-10.716 66.115-27.464 109.739-16.564Z"/><path fill="#D2D2D2" d="M158.474 72.331a26 26 0 0 0 .621-2.12c0-.125.058-.242.084-.368.151-.637.276-1.273.369-1.885l.05-.277a19.96 19.96 0 0 0 .168-1.943v-.403c.033-.62.033-1.24 0-1.86a1.128 1.128 0 0 0 0-.142 15.517 15.517 0 0 0-.244-1.676c0-.109-.042-.217-.067-.326a14.687 14.687 0 0 0-.444-1.676c0-.11-.076-.201-.109-.302a16.242 16.242 0 0 0-.629-1.516 13.93 13.93 0 0 0-.889-1.6c-.059-.101-.117-.202-.184-.302-.311-.47-.646-.939-1.007-1.391l-.134-.167a16.818 16.818 0 0 0-1.099-1.224l-.192-.2c-.42-.42-.839-.839-1.325-1.224l-.269-.226c-1-.826-2.056-1.582-3.161-2.263l-.319-.192c-.562-.344-1.14-.67-1.736-.989l-.277-.142a22.58 22.58 0 0 0-1.769-.838l-.218-.109a42.702 42.702 0 0 0-1.988-.838l-.394-.15a51.623 51.623 0 0 0-2.105-.788l-.134-.042c-.696-.243-1.4-.47-2.121-.687l-.386-.117a58.08 58.08 0 0 0-2.248-.637l-.41-.11a83.293 83.293 0 0 0-2.273-.552h-.143c-.838-.184-1.61-.36-2.432-.52l-.486-.1c-.839-.16-1.627-.31-2.449-.453l-.318-.05c-.772-.134-1.56-.251-2.34-.368l-.403-.06c-.838-.125-1.677-.234-2.515-.343l-.529-.058a159.031 159.031 0 0 0-5.258-.537l-.52-.041-2.574-.193h-.47l-2.448-.218h-.361l-2.583-.1h-.57l-2.583-.06h-6.038l-2.054.043h-.487l-2.29.075h-.536l-1.97.092h-.395l-2.188.134h-.545l-1.954.143h-.235c-.705.05-1.392.117-2.072.176l-.511.05-2.004.285a76.898 76.898 0 0 0-11.74 2.128 61.158 61.158 0 0 0-6.844 2.254 54.753 54.753 0 0 0-9.006 4.6 56.063 56.063 0 0 0-5.342 3.854 64.546 64.546 0 0 0-4.923 4.457 89.134 89.134 0 0 0-4.629 5.027 91.036 91.036 0 0 0-4.461 5.655 43.792 43.792 0 0 0-3.992 6.519 45.535 45.535 0 0 0-3.74 10.75 46.713 46.713 0 0 0-.99 7.54 49.032 49.032 0 0 0-.041 3.845c0 1.165.1 2.296.192 3.402 0 .352.068.695.101 1.039.067.762.151 1.516.252 2.254a56.067 56.067 0 0 0 .528 3.242l.05.235a189.394 189.394 0 0 1 6.977-3.561 56.377 56.377 0 0 1-.595-6.828 38.516 38.516 0 0 1 7.288-24.005c10.18-13.74 20.73-22.713 41.703-24.942a190.123 190.123 0 0 1 19.522-.989c25.217 0 44.069 4.835 49.184 12.627.73 1.114 2.952 4.499-.335 12.056-2.424 5.572-4.713 10.724-7.028 15.542 2.443.614 4.884 1.318 7.321 2.111 2.214-4.683 4.378-9.568 6.592-14.662.335-.779.628-1.541.888-2.287.059-.168.118-.319.168-.478Z"/><path fill="#E4E4E4" d="M45.833 290.094c7.187 5.605 17.569 8.571 30.005 8.571a92.48 92.48 0 0 0 18.265-1.919 59.035 59.035 0 0 0 29.091-15.223c8.495-8.111 14.474-17.989 20.31-30.162-43.607-10.892-87.717 5.864-109.738 16.564 1.476 9.618 5.518 17.05 12.067 22.169Z"/><path fill="#D2D2D2" d="M143.505 251.386c-5.87 12.148-11.816 22.026-20.311 30.162a59.031 59.031 0 0 1-29.09 15.223 92.481 92.481 0 0 1-18.265 1.919c-12.437 0-22.819-2.966-30.005-8.571-6.55-5.119-10.592-12.568-12.068-22.144a187.515 187.515 0 0 0-6.977 3.561c.05.243.092.494.143.737.193.913.41 1.81.645 2.681 0 .075 0 .151.059.226.26.939.553 1.852.839 2.74l.301.838c.224.609.459 1.212.705 1.81.134.301.26.603.394.896.252.561.52 1.114.788 1.676.135.268.26.536.403.796.36.678.73 1.332 1.124 1.969l.176.318c.453.729.93 1.433 1.425 2.128l.478.628c.353.47.713.939 1.09 1.391l.587.696c.37.419.747.829 1.133 1.231a32.637 32.637 0 0 0 2.063 2.019l.335.31c.612.537 1.25 1.056 1.895 1.55.202.16.411.302.612.453.459.341.928.676 1.41 1.005l.754.495c.461.301.94.586 1.409.837l.755.436c.57.319 1.149.629 1.736.922l.477.243c.747.368 1.502.712 2.273 1.039l.688.276c.562.226 1.132.453 1.677.654l.839.31c.536.184 1.09.36 1.677.536l.838.26c.638.184 1.292.36 1.946.527l.578.151c.84.201 1.678.386 2.575.553.226.051.47.084.696.126.654.126 1.3.235 1.954.335l.94.134c.603.084 1.207.159 1.819.226.31 0 .62.076.94.101.687.075 1.383.126 2.087.176.218 0 .436.042.663.05.914.059 1.845.101 2.767.126h2.625c1.409 0 2.826-.042 4.243-.118l.839-.05c1.3-.084 2.608-.184 3.916-.318l.629-.059c1.45-.159 2.893-.352 4.344-.57l.99-.15c1.475-.235 2.943-.495 4.419-.788a69.777 69.777 0 0 0 4.579-1.098 67.984 67.984 0 0 0 28.202-16.061c1.677-1.575 3.211-3.209 4.696-4.901a87.033 87.033 0 0 0 6.214-7.976 105.34 105.34 0 0 0 2.574-3.938 122.367 122.367 0 0 0 3.615-6.15 118.795 118.795 0 0 0 1.786-3.351 204.693 204.693 0 0 0 2.381-4.709l1.183-2.455a112.626 112.626 0 0 0-7.212-2.069Z"/><path fill="#1A1A1A" d="M213.101 72.005c-2.03 0-3.984-.093-5.929-.218l.193-3c7.547.486 15.346.528 26.986-4.34 6.549-2.731 11.22-6.82 15.346-10.414 4.763-4.19 9.225-8.102 15.539-8.998 6.088-.88 25.259 3.2 40.152 14.109l-1.769 2.421c-14.256-10.431-32.278-14.369-37.955-13.564-5.401.77-9.384 4.256-13.996 8.286-4.294 3.753-9.158 8.001-16.152 10.892-9.249 3.93-16.159 4.826-22.415 4.826Z"/><path fill="#D2D2D2" d="m202.943 65.518 7.984.356-.402 8.99-7.984-.357a2.512 2.512 0 0 1-2.401-2.623l.177-3.967a2.515 2.515 0 0 1 2.626-2.399Z"/><path fill="#1A1A1A" d="M284.607 314.575c-7.397 0-12.831-4.239-19.087-9.115a86.007 86.007 0 0 0-13.686-9.216c-10.675-5.505-39.036-20.109-68.932-19.43l-.076-2.991c30.617-.754 59.541 14.151 70.384 19.756a88.474 88.474 0 0 1 14.155 9.535c6.256 4.884 11.254 8.738 17.904 8.479 14.315-.57 25.384-17.729 31.33-26.954l2.516 1.626c-6.239 9.677-17.862 27.69-33.737 28.319-.285-.009-.545-.009-.771-.009Z"/><path fill="#D2D2D2" d="m180.313 270.289 7.961.696-.785 8.964-7.961-.696a2.514 2.514 0 0 1-2.287-2.723l.346-3.956a2.515 2.515 0 0 1 2.726-2.285Z"/><path fill="#1A1A1A" d="m392.317 308.116-38.676-32.198 2.884-3.452 36.84 30.673 43.045-12.291 1.241 4.323-45.334 12.945Z"/><path fill="#1A1A1A" d="m435.731 306.373-4.747-5.027 1.082-2.798c1.258-3.243 3.262-8.63 3.64-10.147.377-1.516 2.272-9.878 2.272-9.878l3.002.218s1.174 8.63.554 11.118c-.621 2.489-3.531 9.987-3.866 10.892l-1.937 5.622Z"/><path fill="#F1F1F1" d="m352.684 278.054 5.761-6.912-4.754-3.98a4.506 4.506 0 0 0-6.246.657 4.496 4.496 0 0 0 .484 6.255l4.755 3.98Z"/><path fill="#1A1A1A" d="m356.525 83.466-2.884-3.452 38.676-32.198 45.334 12.945-1.241 4.323-43.045-12.283-36.84 30.665Z"/><path fill="#1A1A1A" d="m435.731 49.559-4.747 5.027 1.082 2.798c1.258 3.251 3.262 8.63 3.64 10.147.377 1.516 2.272 9.878 2.272 9.878l3.002-.218s1.174-8.63.554-11.118c-.595-2.355-3.531-9.987-3.866-10.892l-1.937-5.622Z"/><path fill="#2B2B2B" d="m352.684 77.886 5.761 6.912-4.755 3.955a4.497 4.497 0 0 1-3.323 1.11 4.51 4.51 0 0 1-3.113-1.607 4.504 4.504 0 0 1-1.018-3.35 4.495 4.495 0 0 1 1.693-3.065l4.755-3.955Z"/></svg>