<svg xmlns="http://www.w3.org/2000/svg" width="500" height="350" fill="none"><g clip-path="url(#a)"><path fill="#2B2523" stroke="#2B2523" stroke-miterlimit="10" d="M318.885 308.334c1.108 13.498-50.806 18.612-60.857 19.631-11.094 1.146-74.016 6.876-75.315-8.489-1.299-15.366 61.751-19.95 72.867-20.629 10.05-.701 62.177-4.011 63.305 9.487Z" opacity=".15"/><path fill="#DFC3A2" d="M318.65 185.918a14.292 14.292 0 0 1 5.045-7.351 14.367 14.367 0 0 1 8.434-2.942 4.058 4.058 0 0 1 3.79 1.507 6.151 6.151 0 0 1 0 5.369 5.788 5.788 0 0 1 3.184-2.774 5.81 5.81 0 0 1 4.227.121 4.635 4.635 0 0 1 1.277 7.237 5.455 5.455 0 0 1 4.479-1.264 5.46 5.46 0 0 1 3.826 2.644 7.366 7.366 0 0 1-1.768 8.914 14.483 14.483 0 0 1-9.049 3.671c-3.322.361-6.687 0-10.03 0"/><path fill="#2B2523" d="M321.696 186.746a11.68 11.68 0 0 1 6.196-7.004 9.342 9.342 0 0 1 4.941-.934c1.128.319.319 2.123 0 2.844a3.178 3.178 0 0 0 1.852 3.757 3.268 3.268 0 0 0 4.046-1.295c.724-1.019 2.278-2.271 3.492-1.252.873.722.341 1.74-.298 2.61-1.853 2.505 1.874 6.367 4.259 4.372 1.128-.87 2.597-1.4 3.683-.169 1.47 1.676.298 4.244-1.022 5.454-4.258 4.245-11.562 2.674-16.822 2.717-.847 0-1.659.335-2.258.932a3.179 3.179 0 0 0-.936 2.251c0 .844.337 1.654.936 2.251a3.198 3.198 0 0 0 2.258.932c4.77 0 9.497.531 14.182-.679a14.25 14.25 0 0 0 9.71-7.555 9.647 9.647 0 0 0 .793-6.097 9.668 9.668 0 0 0-3.05-5.342 8.71 8.71 0 0 0-10.647-.213l4.259 4.372a7.87 7.87 0 0 0 .358-8.95 7.907 7.907 0 0 0-2.19-2.277c-4.493-2.992-9.582-.53-12.393 3.417l5.835 2.462c1.043-3.183 1.107-6.855-1.64-9.19-2.747-2.334-6.516-1.91-9.688-1.061a18.17 18.17 0 0 0-7.592 4.467 18.08 18.08 0 0 0-4.588 7.503 3.184 3.184 0 0 0 2.129 3.905 3.242 3.242 0 0 0 3.918-2.122l.277-.106ZM229.133 265.335c.979 12.458 1.277 24.98 1.618 37.481.106 4.096 6.494 4.117 6.388 0-.341-12.501-.639-25.023-1.618-37.481-.298-4.075-6.708-4.096-6.388 0Z"/><path fill="#2B2523" d="M234.051 299.632c-2.64-.615-5.302-1.21-7.985-1.762a3.4 3.4 0 0 0-2.449.319 3.228 3.228 0 0 0-1.469 1.91 3.153 3.153 0 0 0 .32 2.441 3.112 3.112 0 0 0 1.895 1.464c2.683.552 5.344 1.146 7.985 1.762a3.33 3.33 0 0 0 2.47-.319 3.246 3.246 0 0 0 1.469-1.889 3.167 3.167 0 0 0-.259-2.397 3.191 3.191 0 0 0-1.87-1.529h-.107Z"/><path fill="#2B2523" d="m230.964 302.391-.362.276.66-.488a27.548 27.548 0 0 1-6.111 3.565l.766-.318c-.681.276-1.362.531-2.129.764a3.493 3.493 0 0 0-1.916 1.464 3.199 3.199 0 0 0 1.756 4.63c.602.203 1.25.224 1.863.061a35.393 35.393 0 0 0 5.217-2.25 33.82 33.82 0 0 0 4.706-3.183 3.213 3.213 0 0 0 1.107-2.399 3.26 3.26 0 0 0-.936-2.27 3.22 3.22 0 0 0-2.258-.913l-.851.106a3.347 3.347 0 0 0-1.406.807l-.106.148Z"/><path fill="#2B2523" d="m231.114 303.282 1.086 8.193a2.25 2.25 0 0 0 .277 1.231c.13.39.357.74.66 1.018a3.237 3.237 0 0 0 2.257.934 3.282 3.282 0 0 0 2.257-.934 3.044 3.044 0 0 0 .937-2.249l-1.086-8.193a2.675 2.675 0 0 0-.277-1.23 2.343 2.343 0 0 0-.66-1.019 3.242 3.242 0 0 0-2.257-.934 3.114 3.114 0 0 0-2.257.934 3.018 3.018 0 0 0-.937 2.249ZM255.92 270.705c0 15.005.383 30.009.575 44.993 0 .844.336 1.654.935 2.251a3.201 3.201 0 0 0 4.517 0 3.179 3.179 0 0 0 .936-2.251c-.192-14.984-.49-29.988-.575-44.993 0-.844-.337-1.654-.936-2.251a3.199 3.199 0 0 0-4.517 0 3.178 3.178 0 0 0-.935 2.251Z"/><path fill="#2B2523" d="M259.455 312.515a357.877 357.877 0 0 0-7.985-1.762 3.439 3.439 0 0 0-2.47.318 3.316 3.316 0 0 0-1.47 1.911 3.258 3.258 0 0 0 1.142 3.36c.325.252.697.437 1.094.545 2.683.551 5.345 1.146 7.985 1.761a3.44 3.44 0 0 0 2.47-.318 3.227 3.227 0 0 0 1.469-1.91 3.138 3.138 0 0 0-.319-2.441 3.296 3.296 0 0 0-1.916-1.464Z"/><path fill="#2B2523" d="m256.368 315.125-.362.276.66-.488a28.874 28.874 0 0 1-6.111 3.565l.767-.318a27.65 27.65 0 0 1-2.13.764 3.452 3.452 0 0 0-1.895 1.464 3.178 3.178 0 0 0 1.731 4.64c.603.202 1.254.22 1.868.051a34.81 34.81 0 0 0 5.238-2.25 34.028 34.028 0 0 0 4.706-3.183c.6-.605.937-1.421.937-2.271a3.35 3.35 0 0 0-.937-2.25 3.326 3.326 0 0 0-2.257-.934l-.852.128a3.089 3.089 0 0 0-1.406.806h.043Z"/><path fill="#2B2523" d="m256.517 316.165 1.086 8.192c-.025.428.071.855.277 1.231.13.39.357.741.66 1.019.599.597 1.41.933 2.257.934a3.33 3.33 0 0 0 2.257-.934 3.048 3.048 0 0 0 .937-2.25l-1.086-8.192a2.682 2.682 0 0 0-.277-1.231 2.355 2.355 0 0 0-.66-1.019 3.246 3.246 0 0 0-3.491-.698 3.154 3.154 0 0 0-1.044.698 2.992 2.992 0 0 0-.916 2.25Z"/><path fill="#925F36" d="M176.537 103.869a331.776 331.776 0 0 1-30.471 1.677 186.988 186.988 0 0 0 29.279 17.466"/><path fill="#2B2523" d="M176.538 100.771a337.586 337.586 0 0 1-30.471 1.676 3.206 3.206 0 0 0-3.016 2.361 3.203 3.203 0 0 0 1.398 3.56 190.52 190.52 0 0 0 29.279 17.467 3.326 3.326 0 0 0 4.386-1.125 3.243 3.243 0 0 0 .327-2.481 3.252 3.252 0 0 0-1.541-1.976 189.606 189.606 0 0 1-29.214-17.36l-1.619 5.942a337.586 337.586 0 0 0 30.471-1.676 3.287 3.287 0 0 0 2.235-.956c.594-.593.938-1.39.959-2.228a3.201 3.201 0 0 0-.941-2.245 3.222 3.222 0 0 0-2.253-.938v-.021Z"/><path fill="#C89D66" d="M332.087 189.632a6.17 6.17 0 0 0-3.599-1.422c-13.01-2.122-25.743 0-38.732 1.21s-27.107 1.634-38.499-4.839c-12.776-7.237-18.185-18.719-18.951-32.578-.767-13.858 3.769-26.232 5.089-39.878.937-9.741 1.512-19.823-2.598-29.14-4.11-9.317-11.818-16.638-22.316-17.275-8.986-.53-16.417 4.244-21.911 11.057a63.585 63.585 0 0 0-11.094 22.921 382.113 382.113 0 0 0-14.202 69.549c-3.407 31.601-1.448 64.688 25.105 87.015 18.546 15.599 43.651 15.705 66.648 15.854 10.796 0 20.74-.68 30.791-4.436 14.437-5.412 25.169-15.493 33.175-28.609 8.007-13.116 10.817-27.463 12.776-42.446a7.938 7.938 0 0 0-1.682-6.983Z"/><path fill="#fff" fill-opacity=".47" d="M240.781 255.127c-9.135-6.707-19.547-12.309-28.065-19.992a84.053 84.053 0 0 1-17.993-22.985c-5.962-11.227-8.858-23.133-13.159-34.976a81.28 81.28 0 0 0-13.884-25.468c-.639 5.964-1.916 11.058-2.448 17.255-2.854 32.683-1.576 64.391 25.211 87.27 18.738 15.981 43.46 15.068 66.734 16.023.128 0 .341-.127.426 0a74.689 74.689 0 0 0-16.822-17.127Z"/><path fill="#2B2523" d="M334.345 187.382c-4.387-3.523-11.712-3.225-17.035-3.268-6.286.042-12.564.446-18.802 1.21-11.435 1.21-23.423 2.907-34.751.467a35.019 35.019 0 0 1-13.346-5.546 34.887 34.887 0 0 1-9.95-10.457c-4.94-8.489-5.578-18.825-4.556-28.417 2.342-21.882 12.435-47.37-2.47-67.13a27.661 27.661 0 0 0-10.607-8.974 27.759 27.759 0 0 0-13.647-2.698c-10.54.912-18.653 8.022-24.232 16.554-6.388 9.593-9.071 21.011-11.988 31.941-3.066 11.439-5.643 22.985-7.623 34.657-3.556 20.842-6.239 42.341-3.343 63.288 2.768 19.568 11.669 38.032 27.383 50.469 16.694 13.222 38.329 15.28 58.877 15.62 11.349.17 22.869.382 33.963-2.462a64.967 64.967 0 0 0 26.787-14.241c16.694-14.707 24.105-35.506 27.235-56.942.724-5.072 1.725-9.974-1.959-14.155-2.726-3.078-7.24 1.443-4.514 4.499 1.447 1.634.83 4.245.574 6.155-.404 2.865-.851 5.73-1.362 8.489a115.832 115.832 0 0 1-3.642 14.856 74.207 74.207 0 0 1-14.735 26.275 60.033 60.033 0 0 1-22.166 16.129c-10.306 4.245-21.294 4.966-32.303 4.903-19.164 0-39.648 0-56.598-10.039-16.247-9.232-26.276-26.211-30.109-44.314-4.003-18.889-2.129-38.732.618-57.642 1.597-11.142 3.747-22.2 6.388-33.151a222.965 222.965 0 0 1 8.986-31.453c3.449-8.637 9.369-18.167 18.44-21.753a20.739 20.739 0 0 1 12.804-.462 20.678 20.678 0 0 1 10.619 7.147c6.92 8.277 7.921 19.1 7.24 29.5-.724 11.185-3.578 21.966-5.004 33.045a56.539 56.539 0 0 0 2.896 28.354 39.3 39.3 0 0 0 16.523 19.101c19.526 11.46 43.184 4.266 64.243 3.587h8.155c1.363 0 2.726.191 4.089.36a10.529 10.529 0 0 1 4.407.913c3.173 2.632 7.709-1.889 4.515-4.415Z"/><path fill="#2B2523" d="M197.768 97.163a3.2 3.2 0 0 0 2.259-.933 3.178 3.178 0 0 0 0-4.502 3.2 3.2 0 0 0-4.517 0 3.179 3.179 0 0 0 0 4.502 3.198 3.198 0 0 0 2.258.933ZM213.78 222.783c.873 10.081 4.259 20.883 12.478 27.59a14.927 14.927 0 0 0 6.351 3.365c2.361.588 4.83.591 7.192.009 4.621-1.337 7.687-5.051 10.647-8.659h-4.578c6.388 6.834 15.587 11.503 24.998 8.002 8.198-3.057 12.116-10.612 13.053-18.825.469-4.054-5.941-4.033-6.388 0-.639 5.624-3.407 11.036-9.071 12.946-7.091 2.377-13.372-1.592-18.078-6.622a3.22 3.22 0 0 0-4.514 0c-1.959 2.441-4.067 5.561-7.091 6.791-3.641 1.486-7.197-.509-9.731-3.098a34.492 34.492 0 0 1-8.88-21.457c-.361-4.053-6.75-4.096-6.388 0v-.042Z"/><path fill="#514A4B" d="M248.234 79.038c-2.129 8.638-29.002 1.889-34.73.51-5.728-1.38-32.344-7.535-30.215-16.173 2.129-8.638 28.491-.828 34.219.573 5.728 1.401 32.813 6.43 30.726 15.09Z"/><path fill="#2B2523" d="M246.19 78.465c-.98 3.438-7.921 2.823-10.541 2.716a96.105 96.105 0 0 1-15.735-2.334 147.601 147.601 0 0 1-24.68-7.025c-2.789-1.146-9.411-3.544-9.816-7.13-.405-3.588 6.665-3.227 8.667-3.142 8.858.403 17.375 3.205 25.956 5.136a127.741 127.741 0 0 1 16.354 4.52c2.385.87 10.647 3.587 9.901 7.28-.532 2.674 3.578 3.8 4.11 1.125.979-4.966-3.492-8.192-7.432-10.187a81.928 81.928 0 0 0-17.418-5.815c-9.88-2.398-19.93-5.434-30.109-6.219-4.258-.318-10.817-.51-13.393 3.757-2.577 4.266 1.256 8.85 4.918 11.206 8.518 5.539 19.463 7.746 29.322 10.038a106.616 106.616 0 0 0 20.037 3.078c4.876.17 12.435-.106 14.075-5.858a2.171 2.171 0 0 0-.211-1.654 2.185 2.185 0 0 0-2.981-.81c-.503.287-.872.76-1.024 1.318Z"/><path fill="#514A4B" d="M248.702 33.005c.49-7.428-16.225-7.513-19.824-8.362-3.599-.849-18.504-8.49-21.443-1.592a204.326 204.326 0 0 0-9.049 38.032c-.469 7.428 14.65 10.145 18.227 11.015 3.577.87 20.122 5.773 23.04-1.04a200.767 200.767 0 0 0 9.049-38.053Z"/><path fill="#2B2523" d="M250.831 33.005c.17-6.367-7.453-8.34-12.457-9.19-2.64-.467-5.302-.637-7.942-1.04a38.687 38.687 0 0 1-6.644-2.122c-4.897-1.762-13.649-4.945-17.524.34a24.606 24.606 0 0 0-2.854 7.3 216.18 216.18 0 0 0-2.853 10.612 164.541 164.541 0 0 0-4.152 20.777c-.767 6.622 4.663 9.954 10.242 12.013a111.219 111.219 0 0 0 14.33 3.608c5.473 1.23 13.373 2.992 18.313-.616 2.427-1.783 3.173-4.945 4.024-7.661 1.214-3.884 2.257-7.832 3.237-11.78a135.09 135.09 0 0 0 4.259-22.284c.213-2.737-4.046-2.716-4.259 0a109.911 109.911 0 0 1-3.066 16.873 179.08 179.08 0 0 1-4.834 17.848c-.703 2.123-1.171 3.65-3.428 4.351-2.798.65-5.704.686-8.518.106-4.258-.615-8.411-1.782-12.584-2.78a46.941 46.941 0 0 1-7.602-2.356c-2.129-.87-4.983-2.122-5.834-4.435a13.264 13.264 0 0 1 .404-6.176c.533-3.12 1.171-6.219 1.853-9.317 1.405-6.367 2.96-12.734 4.897-18.931.554-1.656 1.001-4.415 2.556-5.349 2.129-1.252 5.6-.17 7.772.425 3.002.806 5.834 2.122 8.773 3.014 1.906.567 3.87.923 5.855 1.06 3.258.383 13.905.87 13.777 5.71 0 .563.225 1.102.624 1.5a2.133 2.133 0 0 0 3.011 0c.4-.398.624-.937.624-1.5Z"/><path fill="#514A4B" d="M248.617 31.88c-.98 4.096-17.908-1.464-20.932-2.122-3.023-.658-20.633-3.481-19.653-7.577.979-4.096 17.907 1.464 20.931 2.122 3.024.658 20.633 3.48 19.654 7.577Z"/><path fill="#2B2523" d="M246.573 31.307c.149-.51.49-.276 0-.233-.471.09-.947.147-1.426.17a23.94 23.94 0 0 1-4.366-.51c-3.194-.594-6.388-1.443-9.496-2.335-4.941-1.38-10.03-2.122-14.906-3.544a29.352 29.352 0 0 1-3.982-1.358c-.383-.17-2.449-1.358-2.278-1.465.17-.106-.128 1.231-.298.955-.171-.275.511-.233.788-.275a15.76 15.76 0 0 1 4.109.19c5.26.786 10.221 2.675 15.417 3.736 3.321.658 6.643 1.316 9.901 2.228 1.61.42 3.183.967 4.706 1.634.547.265 1.074.57 1.576.913.575.382.213.53.34-.17-.468 2.674 3.62 3.82 4.089 1.146.617-3.48-2.79-5.178-5.515-6.26a64.056 64.056 0 0 0-11.222-3.036c-6.303-1.23-12.393-3.353-18.653-4.265-2.747-.404-7.261-1.104-8.986 1.782-1.725 2.887 1.214 5.412 3.641 6.537 5.92 2.78 12.521 3.269 18.76 5.03a97.575 97.575 0 0 0 12.52 2.971c3.045.446 8.198 1.125 9.37-2.695a2.12 2.12 0 0 0-1.511-2.465 2.134 2.134 0 0 0-2.578 1.319Z"/></g><defs><clipPath id="a"><path fill="#fff" d="M143 18h214v313H143z"/></clipPath></defs></svg>