<svg xmlns="http://www.w3.org/2000/svg" xmlns:xlink="http://www.w3.org/1999/xlink" width="180" height="252" viewBox="0 0 180 252"><defs><linearGradient id="a" x1="-0.43" y1="-1.65" x2="178.96" y2="251.57" gradientUnits="userSpaceOnUse"><stop offset="0" stop-color="#fff"/><stop offset="1" stop-color="#f7f7f7"/></linearGradient><linearGradient id="b" x1="8.91" y1="-5.01" x2="187.69" y2="245.16" gradientUnits="userSpaceOnUse"><stop offset="0" stop-color="#404040"/><stop offset="0.12" stop-color="#353535"/><stop offset="0.47" stop-color="#181818"/><stop offset="0.78" stop-color="#060606"/><stop offset="1"/></linearGradient><linearGradient id="c" x1="-51.64" y1="38.26" x2="127.14" y2="288.43" xlink:href="#b"/><linearGradient id="d" x1="49.65" y1="-34.13" x2="228.43" y2="216.04" xlink:href="#b"/><linearGradient id="e" x1="-10.9" y1="9.14" x2="167.88" y2="259.31" xlink:href="#b"/><linearGradient id="f" x1="6.72" y1="-3.45" x2="185.5" y2="246.72" xlink:href="#b"/><linearGradient id="g" x1="2.37" y1="-0.34" x2="181.15" y2="249.83" xlink:href="#b"/><linearGradient id="h" x1="-4.06" y1="4.25" x2="174.72" y2="254.42" xlink:href="#b"/><linearGradient id="i" x1="17.44" y1="-11.11" x2="196.22" y2="239.06" xlink:href="#b"/><linearGradient id="j" x1="-5.45" y1="5.25" x2="173.33" y2="255.42" xlink:href="#b"/><linearGradient id="k" x1="-1.1" y1="2.14" x2="177.68" y2="252.31" xlink:href="#b"/><linearGradient id="l" x1="5.33" y1="-2.46" x2="184.11" y2="247.71" xlink:href="#b"/><linearGradient id="m" x1="-16.51" y1="13.15" x2="162.27" y2="263.32" xlink:href="#b"/></defs><rect width="180" height="252" style="fill:url(#a)"/><path d="M49.25,56.41C37.4,68.52,49,77.31,58.39,71.53c-1.77,6.31-2.74,6.8-3.82,8.46H64.69c-1.3-1.67-2.66-2.15-4-8.43,9.57,5.5,19.65-4.09,9-15.15A47.42,47.42,0,0,1,59.47,44,65,65,0,0,1,49.25,56.41Z" style="fill-rule:evenodd;fill:url(#b)"/><path d="M49.25,184.41c-11.85,12.12-.23,20.9,9.14,15.12-1.77,6.31-2.74,6.8-3.82,8.47H64.69c-1.3-1.68-2.66-2.16-4-8.44,9.57,5.5,19.65-4.09,9-15.15A47.64,47.64,0,0,1,59.47,172,65.44,65.44,0,0,1,49.25,184.41Z" style="fill-rule:evenodd;fill:url(#c)"/><path d="M110.8,56.41c-11.86,12.11-.23,20.9,9.14,15.12-1.77,6.31-2.74,6.8-3.82,8.46h10.12c-1.3-1.67-2.66-2.15-4-8.43,9.57,5.5,19.65-4.09,9-15.15A47.5,47.5,0,0,1,121,44,65.45,65.45,0,0,1,110.8,56.41Z" style="fill-rule:evenodd;fill:url(#d)"/><path d="M110.8,184.41c-11.86,12.12-.23,20.9,9.14,15.12-1.77,6.31-2.74,6.8-3.82,8.47h10.12c-1.3-1.68-2.66-2.16-4-8.44,9.57,5.5,19.65-4.09,9-15.15A47.72,47.72,0,0,1,121,172,65.89,65.89,0,0,1,110.8,184.41Z" style="fill-rule:evenodd;fill:url(#e)"/><path d="M163.63,221.21h-2.22v-2.16h-3.18v-2.4h3.18v-6.26h1.41l9,6.62v2h-8.15Zm0-4.56h4.43l-4.43-3.14Z" style="fill:url(#f)"/><path d="M160.07,223.59a11.48,11.48,0,0,1,4.94-1,15.66,15.66,0,0,1,3.33.33,5.27,5.27,0,0,1,2.59,1.33A3.84,3.84,0,0,1,172,227.2a3.78,3.78,0,0,1-2,3.63,12.31,12.31,0,0,1-10,0,3.64,3.64,0,0,1-2-3.52A3.74,3.74,0,0,1,160.07,223.59Zm.94,5.11a3.52,3.52,0,0,0,1.63.57,20,20,0,0,0,2.39.11,19.36,19.36,0,0,0,2.37-.12,3.49,3.49,0,0,0,1.6-.59,2,2,0,0,0,0-2.93,3.43,3.43,0,0,0-1.61-.6,23.76,23.76,0,0,0-4.77,0,3.43,3.43,0,0,0-1.63.63,1.76,1.76,0,0,0-.66,1.51A1.58,1.58,0,0,0,161,228.7Z" style="fill:url(#g)"/><path d="M163.63,244h-2.22v-2.16h-3.18v-2.4h3.18v-6.26h1.41l9,6.62v2h-8.15Zm0-4.56h4.43l-4.43-3.14Z" style="fill:url(#h)"/><path d="M169.63,199.54c5.51-5.64.1-9.73-4.26-7a9.19,9.19,0,0,1,1.78-3.94h-4.71c.6.78,1.24,1,1.88,3.93-4.45-2.56-9.15,1.9-4.21,7a22.36,22.36,0,0,1,4.76,5.77A30.39,30.39,0,0,1,169.63,199.54Z" style="fill-rule:evenodd;fill:url(#i)"/><path d="M16.45,30.79h2.22V33h3.18v2.4H18.67v6.26H17.26L8.3,35V33h8.15Zm0,4.56H12l4.43,3.14Z" style="fill:url(#j)"/><path d="M20,28.41a11.48,11.48,0,0,1-4.94,1A15.66,15.66,0,0,1,11.74,29a5.23,5.23,0,0,1-2.59-1.33A3.84,3.84,0,0,1,8.08,24.8a3.78,3.78,0,0,1,2-3.63,10.6,10.6,0,0,1,5-1.07,10.67,10.67,0,0,1,5,1,3.64,3.64,0,0,1,2,3.52C22,26.52,21.37,27.77,20,28.41Zm-.94-5.11a3.52,3.52,0,0,0-1.63-.57,20.09,20.09,0,0,0-2.39-.11,19.36,19.36,0,0,0-2.37.12,3.45,3.45,0,0,0-1.6.59,2,2,0,0,0,0,2.93,3.43,3.43,0,0,0,1.61.6,19.65,19.65,0,0,0,2.38.12,19.83,19.83,0,0,0,2.39-.12,3.43,3.43,0,0,0,1.63-.63,1.76,1.76,0,0,0,.66-1.51A1.58,1.58,0,0,0,19.07,23.3Z" style="fill:url(#k)"/><path d="M16.45,8h2.22v2.16h3.18v2.4H18.67v6.26H17.26l-9-6.62v-2h8.15Zm0,4.56H12l4.43,3.14Z" style="fill:url(#l)"/><path d="M10.45,53.2c-5.52,5.64-.11,9.73,4.26,7a9.24,9.24,0,0,1-1.78,3.94h4.71c-.6-.78-1.24-1-1.88-3.92,4.45,2.56,9.15-1.91,4.21-7.06a22.18,22.18,0,0,1-4.76-5.77A30.39,30.39,0,0,1,10.45,53.2Z" style="fill-rule:evenodd;fill:url(#m)"/></svg>