<svg width="63" height="63" viewBox="0 0 63 63" fill="none" xmlns="http://www.w3.org/2000/svg">
<path d="M51.483 27.8947C46.5238 32.0089 42.1595 36.6005 38.9111 41.9378C38.3367 40.412 37.7894 38.8724 37.3238 37.3048C36.1918 33.4928 31.6115 33.3978 29.4729 36.2786C28.362 37.7748 27.3147 39.3149 26.2904 40.8702C25.6043 36.2084 24.4747 31.6227 22.917 27.1756C21.4632 23.0382 19.7788 18.9856 17.8716 15.0368C16.9003 12.992 15.7483 11.0381 14.4292 9.19843C13.0545 7.32812 12.0839 5.21811 10.6462 3.38127C9.52947 1.95392 6.96025 3.50136 7.5868 5.1625C8.35954 7.21049 9.51716 9.11673 10.1216 11.2228C10.726 13.3289 11.4313 15.3847 12.1203 17.4613C13.4244 21.3297 14.4894 25.2746 15.3092 29.2738C16.9418 37.4239 18.2717 45.574 18.5493 53.8955C18.7063 58.6003 24.3394 59.6442 26.8973 56.1566C28.8212 53.5332 30.4976 50.7469 32.179 47.9636C32.9807 50.0648 33.7682 52.1708 34.4844 54.304C35.7321 58.018 41.7195 58.6456 42.6625 54.304C44.5146 45.7842 49.5532 38.173 55.8128 32.2244C58.7182 29.4647 54.4657 25.4224 51.483 27.8947Z" fill="#231F20"/>
</svg>
