<svg xmlns="http://www.w3.org/2000/svg" width="24" height="24" viewBox="0 0 24 24">
  <title>telegram</title>
  <path d="M1.956,11.392Q10.623,7.757,13.514,6.6c5.5-2.2,6.648-2.586,7.393-2.6a1.334,1.334,0,0,1,.768.222.79.79,0,0,1,.282.517,3.158,3.158,0,0,1,.033.751c-.3,3.017-1.588,10.338-2.245,13.717-.278,1.43-.829,1.736-1.358,1.783-1.151.1-2.021-.559-3.136-1.263-1.744-1.1-2.386-1.4-4.079-2.471-1.956-1.241-.889-1.891.226-3.006.292-.292,5.4-4.838,5.5-5.241a1.663,1.663,0,0,0-.271-.653.474.474,0,0,0-.411-.038q-.263.057-8.359,5.319A3.86,3.86,0,0,1,5.7,14.4a14.679,14.679,0,0,1-3.081-.7c-1.241-.389-1.7-.572-1.613-1.231Q1.078,11.953,1.956,11.392Z" style="fill: #54a9eb;fill-rule: evenodd"/>
  <rect width="24" height="24" style="fill: none"/>
</svg>
