<svg width="16" height="16" viewBox="0 0 16 16" fill="none" xmlns="http://www.w3.org/2000/svg">
<path d="M15 2.3584H1.00005C0.814397 2.3584 0.63635 2.43215 0.505074 2.56342C0.373799 2.6947 0.300049 2.87275 0.300049 3.0584C0.300049 3.24405 0.373799 3.4221 0.505074 3.55337C0.63635 3.68465 0.814397 3.7584 1.00005 3.7584H1.53525V12.941C1.53525 13.1266 1.609 13.3047 1.74027 13.436C1.87155 13.5672 2.0496 13.641 2.23525 13.641H13.7646C13.9503 13.641 14.1283 13.5672 14.2596 13.436C14.3909 13.3047 14.4646 13.1266 14.4646 12.941V3.7588H15C15.1857 3.7588 15.3637 3.68505 15.495 3.55377C15.6263 3.4225 15.7 3.24445 15.7 3.0588C15.7 2.87315 15.6263 2.6951 15.495 2.56382C15.3637 2.43255 15.1857 2.3588 15 2.3588V2.3584ZM13.0645 12.2412H2.93555V3.7588H13.0645V12.2412ZM5.97005 6.3525C5.97005 6.26057 5.98815 6.16955 6.02333 6.08462C6.05851 5.99969 6.11007 5.92252 6.17507 5.85752C6.24008 5.79252 6.31724 5.74096 6.40217 5.70578C6.4871 5.6706 6.57812 5.6525 6.67005 5.6525H9.33005C9.5157 5.6525 9.69375 5.72625 9.82502 5.85752C9.9563 5.9888 10.03 6.16685 10.03 6.3525C10.03 6.53815 9.9563 6.7162 9.82502 6.84747C9.69375 6.97875 9.5157 7.0525 9.33005 7.0525H6.67005C6.4844 7.0525 6.30635 6.97875 6.17507 6.84747C6.0438 6.7162 5.97005 6.53815 5.97005 6.3525Z" fill="currentColor"/>
</svg>
