<svg width="16" height="16" viewBox="0 0 16 16" fill="none" xmlns="http://www.w3.org/2000/svg">
<path d="M7.50488 14.4951C7.63654 14.6257 7.81445 14.699 7.99988 14.699C8.18531 14.699 8.36323 14.6257 8.49488 14.4951L14.4949 8.4951C14.5599 8.4301 14.6115 8.35293 14.6466 8.26799C14.6818 8.18306 14.6999 8.09203 14.6999 8.0001C14.6999 7.90817 14.6818 7.81714 14.6466 7.73221C14.6115 7.64728 14.5599 7.57011 14.4949 7.5051C14.4299 7.4401 14.3527 7.38853 14.2678 7.35335C14.1828 7.31817 14.0918 7.30007 13.9999 7.30007C13.908 7.30007 13.8169 7.31817 13.732 7.35335C13.6471 7.38853 13.5699 7.4401 13.5049 7.5051L8.69998 12.31V2C8.69998 1.90808 8.68188 1.81705 8.6467 1.73212C8.61152 1.6472 8.55996 1.57003 8.49496 1.50503C8.42996 1.44003 8.35279 1.38847 8.26786 1.35329C8.18294 1.31811 8.09191 1.3 7.99998 1.3C7.90806 1.3 7.81703 1.31811 7.73211 1.35329C7.64718 1.38847 7.57001 1.44003 7.50501 1.50503C7.44001 1.57003 7.38845 1.6472 7.35327 1.73212C7.31809 1.81705 7.29998 1.90808 7.29998 2V12.31L2.49508 7.5049C2.43008 7.4399 2.35291 7.38833 2.26798 7.35315C2.18304 7.31797 2.09201 7.29987 2.00008 7.29987C1.90815 7.29987 1.81712 7.31797 1.73219 7.35315C1.64726 7.38833 1.57009 7.4399 1.50508 7.5049C1.44008 7.56991 1.38852 7.64708 1.35334 7.73201C1.31816 7.81694 1.30005 7.90797 1.30005 7.9999C1.30005 8.09183 1.31816 8.18286 1.35334 8.26779C1.38852 8.35273 1.44008 8.4299 1.50508 8.4949L7.50488 14.4951Z" fill="currentColor"/>
</svg>
