<svg width="16" height="16" viewBox="0 0 16 16" fill="none" xmlns="http://www.w3.org/2000/svg">
<path d="M6.605 14.4951C6.73628 14.6264 6.91434 14.7001 7.1 14.7001C7.28566 14.7001 7.46371 14.6264 7.595 14.4951C7.72628 14.3638 7.80003 14.1858 7.80003 14.0001C7.80003 13.8144 7.72628 13.6364 7.595 13.5051L2.09 8L7.5952 2.4951C7.72648 2.36382 7.80023 2.18576 7.80023 2.0001C7.80023 1.81444 7.72648 1.63638 7.5952 1.5051C7.46392 1.37382 7.28586 1.30006 7.1002 1.30006C6.91454 1.30006 6.73648 1.37382 6.6052 1.5051L0.605197 7.5051C0.540188 7.5701 0.48862 7.64727 0.453438 7.7322C0.418255 7.81714 0.400146 7.90817 0.400146 8.0001C0.400146 8.09203 0.418255 8.18306 0.453438 8.26799C0.48862 8.35293 0.540188 8.4301 0.605197 8.4951L6.605 14.4951Z" fill="currentColor"/>
</svg>
