<svg width="16" height="16" viewBox="0 0 16 16" fill="none" xmlns="http://www.w3.org/2000/svg">
<path d="M2.49512 8.4951L7.30002 3.69V14C7.30002 14.1857 7.37377 14.3637 7.50504 14.495C7.63632 14.6263 7.81437 14.7 8.00002 14.7C8.18567 14.7 8.36372 14.6263 8.49499 14.495C8.62627 14.3637 8.70002 14.1857 8.70002 14V3.69L13.5047 8.4951C13.636 8.62638 13.8141 8.70014 13.9997 8.70014C14.1854 8.70014 14.3634 8.62638 14.4947 8.4951C14.626 8.36382 14.6998 8.18576 14.6998 8.0001C14.6998 7.81444 14.626 7.63638 14.4947 7.5051L8.49472 1.5051C8.36309 1.37447 8.18516 1.30116 7.99972 1.30116C7.81427 1.30116 7.63634 1.37447 7.50472 1.5051L1.50472 7.5051C1.37344 7.63638 1.29968 7.81444 1.29968 8.0001C1.29968 8.18576 1.37344 8.36382 1.50472 8.4951C1.636 8.62638 1.81406 8.70014 1.99972 8.70014C2.18538 8.70014 2.36344 8.62638 2.49472 8.4951H2.49512Z" fill="currentColor"/>
</svg>
