<svg width="16" height="16" viewBox="0 0 16 16" fill="none" xmlns="http://www.w3.org/2000/svg">
<path d="M1.35392 8.2677C1.38884 8.35267 1.44015 8.42994 1.50492 8.4951L7.50492 14.4951C7.6362 14.6264 7.81426 14.7001 7.99992 14.7001C8.18558 14.7001 8.36363 14.6264 8.49492 14.4951C8.6262 14.3638 8.69995 14.1858 8.69995 14.0001C8.69995 13.8144 8.6262 13.6364 8.49492 13.5051L3.69002 8.7H14C14.1857 8.7 14.3637 8.62625 14.495 8.49498C14.6263 8.3637 14.7 8.18565 14.7 8C14.7 7.81435 14.6263 7.6363 14.495 7.50502C14.3637 7.37375 14.1857 7.3 14 7.3H3.69002L8.49512 2.4951C8.6264 2.36382 8.70015 2.18576 8.70015 2.0001C8.70015 1.81444 8.6264 1.63638 8.49512 1.5051C8.36383 1.37382 8.18578 1.30006 8.00012 1.30006C7.81446 1.30006 7.6364 1.37382 7.50512 1.5051L1.50512 7.5051C1.40768 7.60328 1.34139 7.72803 1.31453 7.86372C1.28767 7.9994 1.30144 8.14 1.35412 8.2679L1.35392 8.2677Z" fill="currentColor"/>
</svg>
