<svg width="16" height="16" viewBox="0 0 16 16" fill="none" xmlns="http://www.w3.org/2000/svg">
<path d="M2.00005 8.7H12.31L7.50495 13.5049C7.43994 13.5699 7.38838 13.6471 7.3532 13.732C7.31802 13.8169 7.29991 13.908 7.29991 13.9999C7.29991 14.0918 7.31802 14.1829 7.3532 14.2678C7.38838 14.3527 7.43994 14.4299 7.50495 14.4949C7.56995 14.5599 7.64712 14.6115 7.73206 14.6467C7.81699 14.6818 7.90802 14.6999 7.99995 14.6999C8.09188 14.6999 8.18291 14.6818 8.26784 14.6467C8.35277 14.6115 8.42994 14.5599 8.49495 14.4949L14.4949 8.4949C14.6256 8.36328 14.6989 8.18535 14.6989 7.9999C14.6989 7.81445 14.6256 7.63653 14.4949 7.5049L8.49495 1.5049C8.36367 1.37362 8.18561 1.29987 7.99995 1.29987C7.81429 1.29987 7.63623 1.37362 7.50495 1.5049C7.37367 1.63618 7.29991 1.81424 7.29991 1.9999C7.29991 2.18556 7.37367 2.36362 7.50495 2.4949L12.31 7.3H2.00005C1.8144 7.3 1.63635 7.37375 1.50507 7.50503C1.3738 7.6363 1.30005 7.81435 1.30005 8C1.30005 8.18565 1.3738 8.3637 1.50507 8.49498C1.63635 8.62625 1.8144 8.7 2.00005 8.7V8.7Z" fill="currentColor"/>
</svg>
