<svg width="16" height="16" viewBox="0 0 16 16" fill="none" xmlns="http://www.w3.org/2000/svg">
<path d="M9.9951 1.5049C9.9301 1.43989 9.85293 1.38832 9.76799 1.35314C9.68306 1.31796 9.59203 1.29985 9.5001 1.29985C9.40817 1.29985 9.31714 1.31796 9.2322 1.35314C9.14727 1.38832 9.0701 1.43989 9.0051 1.5049L3.0051 7.5049C2.94009 7.5699 2.88852 7.64707 2.85334 7.73201C2.81816 7.81694 2.80005 7.90797 2.80005 7.9999C2.80005 8.09183 2.81816 8.18286 2.85334 8.2678C2.88852 8.35273 2.94009 8.4299 3.0051 8.4949L9.0051 14.4949C9.0701 14.5599 9.14728 14.6115 9.23221 14.6466C9.31714 14.6818 9.40817 14.6999 9.5001 14.6999C9.59203 14.6999 9.68306 14.6818 9.76799 14.6466C9.85292 14.6115 9.93009 14.5599 9.9951 14.4949C10.0601 14.4299 10.1117 14.3527 10.1468 14.2678C10.182 14.1829 10.2001 14.0918 10.2001 13.9999C10.2001 13.908 10.182 13.8169 10.1468 13.732C10.1117 13.6471 10.0601 13.5699 9.9951 13.5049L4.49 8L9.9951 2.4951C10.0601 2.4301 10.1117 2.35291 10.1469 2.26796C10.1821 2.18301 10.2002 2.09196 10.2002 2C10.2002 1.90805 10.1821 1.81699 10.1469 1.73204C10.1117 1.64709 10.0601 1.56991 9.9951 1.5049V1.5049Z" fill="currentColor"/>
</svg>
