<svg width="16" height="16" viewBox="0 0 16 16" fill="none" xmlns="http://www.w3.org/2000/svg">
<path d="M2.00005 11.7H14C14.1857 11.7 14.3637 11.6263 14.495 11.495C14.6263 11.3637 14.7 11.1857 14.7 11V7.79491C14.6957 6.92584 14.5179 6.06639 14.177 5.26693C13.8362 4.46747 13.3392 3.74408 12.7152 3.13918C12.0912 2.53427 11.3527 2.06001 10.5431 1.7442C9.7334 1.42838 8.86883 1.27737 8.00005 1.30001C6.22375 1.30212 4.52081 2.00869 3.26477 3.26473C2.00874 4.52076 1.30217 6.22371 1.30005 8.00001V11C1.30005 11.1857 1.3738 11.3637 1.50507 11.495C1.63635 11.6263 1.8144 11.7 2.00005 11.7ZM2.70005 8.00001C2.70148 6.5948 3.26033 5.24755 4.25396 4.25392C5.24759 3.26029 6.59484 2.70144 8.00005 2.70001C8.68442 2.67935 9.36602 2.7955 10.0049 3.04164C10.6438 3.28779 11.2272 3.65898 11.7208 4.13347C12.2144 4.60796 12.6083 5.17619 12.8795 5.80488C13.1507 6.43357 13.2937 7.11006 13.3 7.79471V10.3H2.70005V8.00001ZM10 13C10 13.5304 9.78933 14.0391 9.41426 14.4142C9.03919 14.7893 8.53048 15 8.00005 15C7.46962 15 6.96091 14.7893 6.58584 14.4142C6.21076 14.0391 6.00005 13.5304 6.00005 13H10Z" fill="currentColor"/>
</svg>
