<svg width="16" height="16" viewBox="0 0 16 16" fill="none" xmlns="http://www.w3.org/2000/svg">
<path d="M5.50488 13.4951C5.56989 13.5601 5.64706 13.6117 5.73199 13.6469C5.81692 13.682 5.90795 13.7002 5.99988 13.7002C6.09182 13.7002 6.18285 13.682 6.26778 13.6469C6.35271 13.6117 6.42988 13.5601 6.49488 13.4951L14.4949 5.4951C14.6262 5.36382 14.6999 5.18576 14.6999 5.0001C14.6999 4.81444 14.6262 4.63638 14.4949 4.5051C14.3636 4.37382 14.1855 4.30006 13.9999 4.30006C13.8142 4.30006 13.6362 4.37382 13.5049 4.5051L5.99998 12.01L2.49508 8.5049C2.3638 8.37362 2.18575 8.29986 2.00008 8.29986C1.81442 8.29986 1.63637 8.37362 1.50508 8.5049C1.3738 8.63618 1.30005 8.81424 1.30005 8.9999C1.30005 9.18556 1.3738 9.36362 1.50508 9.4949L5.50488 13.4951Z" fill="currentColor"/>
</svg>
