<svg width="16" height="16" viewBox="0 0 16 16" fill="none" xmlns="http://www.w3.org/2000/svg">
<path d="M2.50496 13.4951C2.56996 13.5601 2.64713 13.6117 2.73206 13.6469C2.81699 13.682 2.90802 13.7002 2.99996 13.7002C3.09189 13.7002 3.18292 13.682 3.26785 13.6469C3.35278 13.6117 3.42995 13.5601 3.49496 13.4951L8.00006 8.99L12.505 13.4949C12.6362 13.6262 12.8143 13.6999 13 13.6999C13.1856 13.6999 13.3637 13.6262 13.495 13.4949C13.6262 13.3636 13.7 13.1856 13.7 12.9999C13.7 12.8142 13.6262 12.6362 13.495 12.5049L8.99006 8L13.495 3.4951C13.6262 3.36382 13.7 3.18576 13.7 3.0001C13.7 2.81444 13.6262 2.63638 13.495 2.5051C13.3637 2.37382 13.1856 2.30007 13 2.30007C12.8143 2.30007 12.6362 2.37382 12.505 2.5051L8.00006 7.01L3.49516 2.5049C3.36387 2.37362 3.18582 2.29987 3.00016 2.29987C2.81449 2.29987 2.63644 2.37362 2.50516 2.5049C2.37387 2.63618 2.30012 2.81424 2.30012 2.9999C2.30012 3.18556 2.37387 3.36362 2.50516 3.4949L7.01006 8L2.50496 12.5049C2.43992 12.5699 2.38832 12.6471 2.35312 12.732C2.31792 12.817 2.2998 12.908 2.2998 13C2.2998 13.092 2.31792 13.183 2.35312 13.268C2.38832 13.3529 2.43992 13.4301 2.50496 13.4951V13.4951Z" fill="currentColor"/>
</svg>
