<svg width="16" height="16" viewBox="0 0 16 16" fill="none" xmlns="http://www.w3.org/2000/svg">
<path d="M13.25 3.8H5.75C5.56435 3.8 5.3863 3.87375 5.25503 4.00503C5.12375 4.1363 5.05 4.31435 5.05 4.5V14.5C5.05 14.6857 5.12375 14.8637 5.25503 14.995C5.3863 15.1263 5.56435 15.2 5.75 15.2H13.25C13.4357 15.2 13.6137 15.1263 13.745 14.995C13.8763 14.8637 13.95 14.6857 13.95 14.5V4.5C13.95 4.31435 13.8763 4.1363 13.745 4.00503C13.6137 3.87375 13.4357 3.8 13.25 3.8ZM12.55 13.8H6.45V5.2H12.55V13.8ZM2.45 11.9C2.26435 11.9 2.0863 11.8263 1.95503 11.695C1.82375 11.5637 1.75 11.3857 1.75 11.2V1.2C1.75 1.01435 1.82375 0.836301 1.95503 0.705025C2.0863 0.57375 2.26435 0.5 2.45 0.5H9.95C10.1357 0.5 10.3137 0.57375 10.445 0.705025C10.5763 0.836301 10.65 1.01435 10.65 1.2C10.65 1.38565 10.5763 1.5637 10.445 1.69497C10.3137 1.82625 10.1357 1.9 9.95 1.9H3.15V11.2C3.15 11.3857 3.07625 11.5637 2.94497 11.695C2.8137 11.8263 2.63565 11.9 2.45 11.9V11.9Z" fill="currentColor"/>
</svg>
