<svg width="16" height="16" viewBox="0 0 16 16" fill="none" xmlns="http://www.w3.org/2000/svg">
<path d="M2.00005 13.8428H14C14.1857 13.8428 14.3637 13.7691 14.495 13.6378C14.6263 13.5065 14.7 13.3285 14.7 13.1428V2.8574C14.7001 2.71888 14.6591 2.58344 14.5822 2.46824C14.5053 2.35304 14.3959 2.26324 14.2679 2.21023C14.1399 2.15722 13.9991 2.14338 13.8633 2.17045C13.7274 2.19752 13.6026 2.26429 13.5047 2.3623L10.8223 5.0449L8.49515 2.7178C8.43015 2.65279 8.35298 2.60123 8.26804 2.56604C8.18311 2.53086 8.09208 2.51275 8.00015 2.51275C7.90822 2.51275 7.81719 2.53086 7.73225 2.56604C7.64732 2.60123 7.57015 2.65279 7.50515 2.7178L5.17775 5.0449L2.49515 2.3623C2.39725 2.26436 2.2725 2.19765 2.13668 2.17062C2.00086 2.14359 1.86008 2.15745 1.73214 2.21045C1.6042 2.26345 1.49485 2.35321 1.41794 2.46837C1.34103 2.58353 1.3 2.71892 1.30005 2.8574V13.1426C1.30002 13.2345 1.31811 13.3256 1.35328 13.4105C1.38844 13.4955 1.44 13.5727 1.505 13.6377C1.57001 13.7027 1.64718 13.7543 1.73212 13.7895C1.81707 13.8247 1.90811 13.8428 2.00005 13.8428ZM2.70005 4.5479L4.68265 6.53C4.74765 6.59501 4.82482 6.64658 4.90975 6.68176C4.99469 6.71695 5.08572 6.73505 5.17765 6.73505C5.26958 6.73505 5.36061 6.71695 5.44554 6.68176C5.53048 6.64658 5.60765 6.59501 5.67265 6.53L8.00005 4.2031L10.3271 6.53C10.3922 6.59501 10.4693 6.64658 10.5543 6.68176C10.6392 6.71695 10.7302 6.73505 10.8221 6.73505C10.9141 6.73505 11.0051 6.71695 11.09 6.68176C11.175 6.64658 11.2521 6.59501 11.3171 6.53L13.3 4.5479V12.4424H2.70005V4.5479Z" fill="currentColor"/>
</svg>
