<svg width="16" height="16" viewBox="0 0 16 16" fill="none" xmlns="http://www.w3.org/2000/svg">
<path d="M8.70005 3V9.31L11.5047 6.505C11.636 6.37372 11.8141 6.29997 11.9997 6.29997C12.1854 6.29997 12.3635 6.37372 12.4947 6.505C12.626 6.63629 12.6998 6.81434 12.6998 7C12.6998 7.18566 12.626 7.36372 12.4947 7.495L8.49475 11.495C8.36311 11.6256 8.18519 11.6989 7.99975 11.6989C7.81431 11.6989 7.63639 11.6256 7.50475 11.495L3.50475 7.495C3.37347 7.36372 3.29971 7.18566 3.29971 7C3.29971 6.81434 3.37347 6.63629 3.50475 6.505C3.63603 6.37372 3.81409 6.29997 3.99975 6.29997C4.18541 6.29997 4.36347 6.37372 4.49475 6.505L7.30005 9.31V3C7.30005 2.81435 7.3738 2.6363 7.50507 2.50503C7.63635 2.37375 7.8144 2.3 8.00005 2.3C8.1857 2.3 8.36375 2.37375 8.49502 2.50503C8.6263 2.6363 8.70005 2.81435 8.70005 3V3ZM2.30005 14C2.30005 14.1857 2.3738 14.3637 2.50507 14.495C2.63635 14.6263 2.8144 14.7 3.00005 14.7H13C13.1857 14.7 13.3637 14.6263 13.495 14.495C13.6263 14.3637 13.7 14.1857 13.7 14C13.7 13.8144 13.6263 13.6363 13.495 13.505C13.3637 13.3738 13.1857 13.3 13 13.3H3.00005C2.8144 13.3 2.63635 13.3738 2.50507 13.505C2.3738 13.6363 2.30005 13.8144 2.30005 14V14Z" fill="currentColor"/>
</svg>
