<svg width="16" height="16" viewBox="0 0 16 16" fill="none" xmlns="http://www.w3.org/2000/svg">
<path d="M7.50491 10.9951C7.56991 11.0601 7.64708 11.1117 7.73202 11.1469C7.81695 11.182 7.90798 11.2002 7.99991 11.2002C8.09184 11.2002 8.18287 11.182 8.26781 11.1469C8.35274 11.1117 8.42991 11.0601 8.49491 10.9951L12.4949 6.9951C12.5928 6.89722 12.6596 6.77249 12.6866 6.63668C12.7136 6.50088 12.6998 6.36011 12.6468 6.23218C12.5938 6.10425 12.5041 5.99491 12.389 5.91798C12.2738 5.84105 12.1385 5.79999 12 5.8H4.00001C3.86149 5.79991 3.72605 5.84093 3.61085 5.91785C3.49564 5.99477 3.40585 6.10415 3.35284 6.23213C3.29983 6.36011 3.28599 6.50094 3.31306 6.63679C3.34013 6.77265 3.4069 6.89742 3.50491 6.9953L7.50491 10.9951Z" fill="currentColor"/>
</svg>
