<svg width="16" height="16" viewBox="0 0 16 16" fill="none" xmlns="http://www.w3.org/2000/svg">
<path d="M13.7 13C13.7 13.1857 13.6263 13.3637 13.495 13.495C13.3637 13.6263 13.1857 13.7 13 13.7H10.5C10.3144 13.7 10.1363 13.6263 10.0051 13.495C9.8738 13.3637 9.80005 13.1857 9.80005 13C9.80005 12.8143 9.8738 12.6363 10.0051 12.505C10.1363 12.3738 10.3144 12.3 10.5 12.3H13C13.1857 12.3 13.3637 12.3738 13.495 12.505C13.6263 12.6363 13.7 12.8143 13.7 13V13ZM2.50865 13.4985C2.44255 13.4334 2.39006 13.3558 2.35424 13.2702C2.31843 13.1846 2.30001 13.0928 2.30005 13V9.6665C2.30029 9.48085 2.37403 9.30284 2.50515 9.1714L9.17215 2.5049C9.23715 2.43989 9.31432 2.38832 9.39925 2.35314C9.48419 2.31796 9.57522 2.29985 9.66715 2.29985C9.75908 2.29985 9.85011 2.31796 9.93504 2.35314C10.02 2.38832 10.0971 2.43989 10.1621 2.5049L13.4951 5.8384C13.5612 5.90438 13.6133 5.98289 13.6485 6.06932C13.6837 6.15575 13.7013 6.24834 13.7002 6.34166C13.6991 6.43499 13.6794 6.52715 13.6422 6.61273C13.6049 6.69831 13.551 6.77558 13.4834 6.84L6.55085 13.4634C6.423 13.5853 6.25378 13.6543 6.07715 13.6567L3.01005 13.7H3.00005C2.81623 13.6998 2.63982 13.6275 2.50885 13.4985H2.50865ZM3.70005 12.29L5.78205 12.2607L11.999 6.3223L9.66705 3.99L3.70005 9.9565V12.29Z" fill="currentColor"/>
</svg>
