<svg width="16" height="16" viewBox="0 0 16 16" fill="none" xmlns="http://www.w3.org/2000/svg">
<path d="M9.00005 11C9.00005 11.1978 8.9414 11.3911 8.83152 11.5556C8.72164 11.72 8.56546 11.8482 8.38273 11.9239C8.20001 11.9996 7.99894 12.0194 7.80496 11.9808C7.61098 11.9422 7.43279 11.847 7.29294 11.7071C7.15309 11.5673 7.05785 11.3891 7.01926 11.1951C6.98068 11.0011 7.00048 10.8 7.07617 10.6173C7.15186 10.4346 7.28003 10.2784 7.44448 10.1685C7.60893 10.0587 7.80227 10 8.00005 10C8.26527 10 8.51962 10.1054 8.70716 10.2929C8.89469 10.4804 9.00005 10.7348 9.00005 11ZM8.00005 4C7.73483 4 7.48048 4.10536 7.29294 4.2929C7.10541 4.48043 7.00005 4.73479 7.00005 5V8C7.00005 8.26522 7.10541 8.51957 7.29294 8.70711C7.48048 8.89465 7.73483 9 8.00005 9C8.26527 9 8.51962 8.89465 8.70716 8.70711C8.89469 8.51957 9.00005 8.26522 9.00005 8V5C9.00005 4.73479 8.89469 4.48043 8.70716 4.2929C8.51962 4.10536 8.26527 4 8.00005 4V4ZM11.19 0.300003L15.7 4.8105V11.19L11.19 15.7H4.81055L0.300049 11.19V4.8105L4.81055 0.300003H11.19ZM14.3 5.3906L10.61 1.7006H5.39065L1.70005 5.3906V10.6094L5.39005 14.2994H10.6088L14.2988 10.6094L14.3 5.3906Z" fill="currentColor"/>
</svg>
