<svg width="16" height="16" viewBox="0 0 16 16" fill="none" xmlns="http://www.w3.org/2000/svg">
<path d="M13.3672 13.25V8.584H15C15.1424 8.58394 15.2813 8.54048 15.3984 8.4594C15.5154 8.37832 15.6049 8.26349 15.655 8.13022C15.7051 7.99695 15.7133 7.85158 15.6786 7.7135C15.644 7.57542 15.568 7.4512 15.4609 7.3574L8.46091 1.2236C8.33365 1.11128 8.16975 1.04929 8.00001 1.04929C7.83027 1.04929 7.66637 1.11128 7.53911 1.2236L0.539107 7.3574C0.432006 7.4512 0.356052 7.57542 0.321375 7.7135C0.286698 7.85158 0.294949 7.99695 0.345025 8.13022C0.395102 8.26349 0.484624 8.37832 0.601649 8.4594C0.718675 8.54048 0.85764 8.58394 1.00001 8.584H2.63281V13.25C2.63281 13.4357 2.70656 13.6137 2.83783 13.745C2.96911 13.8763 3.14716 13.95 3.33281 13.95H6.44431C6.62996 13.95 6.80801 13.8763 6.93928 13.745C7.07056 13.6137 7.14431 13.4357 7.14431 13.25V10.95C7.15021 10.727 7.24294 10.5152 7.40273 10.3596C7.56252 10.2039 7.77676 10.1169 7.99981 10.1169C8.22286 10.1169 8.43709 10.2039 8.59688 10.3596C8.75668 10.5152 8.8494 10.727 8.85531 10.95V13.25C8.85531 13.4357 8.92906 13.6137 9.06033 13.745C9.19161 13.8763 9.36966 13.95 9.55531 13.95H12.667C12.7589 13.95 12.85 13.9319 12.9349 13.8968C13.0199 13.8616 13.0971 13.8101 13.1621 13.745C13.2271 13.68 13.2787 13.6029 13.3139 13.5179C13.3491 13.433 13.3672 13.3419 13.3672 13.25V13.25ZM11.9672 7.8838V12.55H10.2559V10.95C10.2503 10.3554 10.0102 9.78701 9.58771 9.36852C9.16526 8.95002 8.59466 8.71524 8.00001 8.71524C7.40536 8.71524 6.83476 8.95002 6.4123 9.36852C5.98985 9.78701 5.74971 10.3554 5.74411 10.95V12.55H4.03321V7.8838C4.03321 7.69815 3.95946 7.5201 3.82818 7.38883C3.69691 7.25755 3.51886 7.1838 3.33321 7.1838H2.86131L8.00001 2.6807L13.1387 7.1836H12.667C12.575 7.18358 12.484 7.20167 12.399 7.23685C12.3141 7.27203 12.2369 7.3236 12.1718 7.38863C12.1068 7.45365 12.0552 7.53085 12.0201 7.61582C11.9849 7.70078 11.9668 7.79184 11.9668 7.8838H11.9672Z" fill="currentColor"/>
</svg>
