<svg width="16" height="16" viewBox="0 0 16 16" fill="none" xmlns="http://www.w3.org/2000/svg">
<path d="M9.00005 5C9.00005 5.19778 8.9414 5.39112 8.83152 5.55557C8.72164 5.72002 8.56546 5.84819 8.38274 5.92388C8.20001 5.99957 7.99894 6.01937 7.80496 5.98079C7.61098 5.9422 7.4328 5.84696 7.29295 5.70711C7.15309 5.56726 7.05785 5.38907 7.01927 5.19509C6.98068 5.00111 7.00049 4.80005 7.07617 4.61732C7.15186 4.43459 7.28003 4.27841 7.44448 4.16853C7.60893 4.05865 7.80227 4 8.00005 4C8.26527 4 8.51962 4.10536 8.70716 4.2929C8.8947 4.48043 9.00005 4.73479 9.00005 5ZM8.00005 7C7.73484 7 7.48048 7.10536 7.29295 7.2929C7.10541 7.48043 7.00005 7.73479 7.00005 8V11C7.00005 11.2652 7.10541 11.5196 7.29295 11.7071C7.48048 11.8946 7.73484 12 8.00005 12C8.26527 12 8.51962 11.8946 8.70716 11.7071C8.8947 11.5196 9.00005 11.2652 9.00005 11V8C9.00005 7.73479 8.8947 7.48043 8.70716 7.2929C8.51962 7.10536 8.26527 7 8.00005 7V7ZM15.7001 8C15.7001 9.52292 15.2485 11.0116 14.4024 12.2779C13.5563 13.5442 12.3537 14.5311 10.9467 15.1139C9.53972 15.6967 7.99151 15.8492 6.49786 15.552C5.0042 15.2549 3.63219 14.5216 2.55533 13.4447C1.47847 12.3679 0.745112 10.9959 0.448006 9.5022C0.150899 8.00854 0.303385 6.46033 0.88618 5.05334C1.46897 3.64635 2.4559 2.44377 3.72216 1.59769C4.98842 0.7516 6.47714 0.300003 8.00005 0.300003C10.0415 0.302306 11.9987 1.11429 13.4422 2.55782C14.8858 4.00136 15.6977 5.95854 15.7001 8V8ZM14.3001 8C14.3001 6.75398 13.9306 5.53594 13.2383 4.49991C12.5461 3.46388 11.5621 2.65639 10.411 2.17956C9.25978 1.70273 7.99306 1.57797 6.77098 1.82106C5.5489 2.06414 4.42635 2.66416 3.54528 3.54523C2.66421 4.4263 2.06419 5.54885 1.82111 6.77093C1.57802 7.99301 1.70278 9.25973 2.17961 10.4109C2.65644 11.5621 3.46393 12.546 4.49996 13.2383C5.53599 13.9305 6.75403 14.3 8.00005 14.3C9.67034 14.2981 11.2717 13.6338 12.4527 12.4527C13.6338 11.2716 14.2982 9.67029 14.3001 8V8Z" fill="currentColor"/>
</svg>
