<svg width="16" height="16" viewBox="0 0 16 16" fill="none" xmlns="http://www.w3.org/2000/svg">
<path d="M10.646 6.3442L6.34417 10.646C6.21289 10.7773 6.03484 10.851 5.84917 10.851C5.66351 10.851 5.48546 10.7773 5.35417 10.646C5.22289 10.5147 5.14914 10.3367 5.14914 10.151C5.14914 9.96534 5.22289 9.78728 5.35417 9.656L9.65577 5.354C9.78706 5.22272 9.96511 5.14897 10.1508 5.14897C10.3364 5.14897 10.5145 5.22272 10.6458 5.354C10.7771 5.48528 10.8508 5.66334 10.8508 5.849C10.8508 6.03466 10.7771 6.21272 10.6458 6.344L10.646 6.3442ZM14.2 5.542C14.2013 5.05039 14.1052 4.5634 13.917 4.10921C13.7289 3.65502 13.4526 3.24266 13.104 2.896C12.3911 2.2155 11.4435 1.83581 10.458 1.83581C9.47246 1.83581 8.52483 2.2155 7.81197 2.896L6.42917 4.2783C6.29789 4.40958 6.22414 4.58764 6.22414 4.7733C6.22414 4.95896 6.29789 5.13702 6.42917 5.2683C6.56046 5.39958 6.73851 5.47334 6.92417 5.47334C7.10984 5.47334 7.28789 5.39958 7.41917 5.2683L8.80218 3.8862C9.24824 3.46032 9.84125 3.22269 10.458 3.22269C11.0747 3.22269 11.6677 3.46032 12.1138 3.8862C12.3313 4.10362 12.5038 4.36176 12.6215 4.64586C12.7392 4.92997 12.7998 5.23448 12.7998 5.542C12.7998 5.84953 12.7392 6.15404 12.6215 6.43814C12.5038 6.72225 12.3313 6.98038 12.1138 7.1978L10.7314 8.5806C10.6001 8.71188 10.5263 8.88994 10.5263 9.0756C10.5263 9.26126 10.6001 9.43932 10.7314 9.5706C10.8627 9.70188 11.0407 9.77564 11.2264 9.77564C11.412 9.77564 11.5901 9.70188 11.7214 9.5706L13.104 8.188C13.4525 7.84129 13.7288 7.42892 13.9169 6.97474C14.105 6.52057 14.2012 6.0336 14.2 5.542ZM2.89597 13.104C3.59784 13.8056 4.5496 14.1997 5.54197 14.1997C6.53435 14.1997 7.48611 13.8056 8.18797 13.104L9.57077 11.7217C9.63578 11.6567 9.68734 11.5795 9.72252 11.4946C9.7577 11.4097 9.77581 11.3186 9.77581 11.2267C9.77581 11.1348 9.7577 11.0437 9.72252 10.9588C9.68734 10.8739 9.63578 10.7967 9.57077 10.7317C9.50577 10.6667 9.4286 10.6151 9.34367 10.58C9.25873 10.5448 9.1677 10.5267 9.07577 10.5267C8.98384 10.5267 8.89282 10.5448 8.80788 10.58C8.72295 10.6151 8.64578 10.6667 8.58077 10.7317L7.19777 12.1138C6.75171 12.5397 6.1587 12.7773 5.54197 12.7773C4.92525 12.7773 4.33224 12.5397 3.88617 12.1138C3.66869 11.8964 3.49617 11.6382 3.37846 11.3541C3.26076 11.07 3.20017 10.7655 3.20017 10.458C3.20017 10.1505 3.26076 9.84597 3.37846 9.56186C3.49617 9.27776 3.66869 9.01962 3.88617 8.8022L5.26857 7.4194C5.33358 7.3544 5.38514 7.27723 5.42032 7.19229C5.4555 7.10736 5.47361 7.01633 5.47361 6.9244C5.47361 6.83247 5.4555 6.74144 5.42032 6.65651C5.38514 6.57158 5.33358 6.49441 5.26857 6.4294C5.20357 6.3644 5.1264 6.31283 5.04147 6.27765C4.95653 6.24247 4.8655 6.22437 4.77357 6.22437C4.68164 6.22437 4.59061 6.24247 4.50568 6.27765C4.42075 6.31283 4.34358 6.3644 4.27857 6.4294L2.89597 7.812C2.19441 8.51387 1.80029 9.46562 1.80029 10.458C1.80029 11.4504 2.19441 12.4021 2.89597 13.104V13.104Z" fill="currentColor"/>
</svg>
