<svg width="16" height="16" viewBox="0 0 16 16" fill="none" xmlns="http://www.w3.org/2000/svg">
<path d="M9.74997 2.07C9.74997 2.41612 9.64734 2.75446 9.45505 3.04225C9.26275 3.33003 8.98944 3.55434 8.66967 3.68679C8.3499 3.81924 7.99803 3.8539 7.65857 3.78637C7.3191 3.71885 7.00728 3.55218 6.76254 3.30744C6.5178 3.06269 6.35112 2.75087 6.2836 2.41141C6.21608 2.07194 6.25073 1.72007 6.38318 1.4003C6.51564 1.08053 6.73994 0.80722 7.02773 0.614928C7.31551 0.422635 7.65386 0.32 7.99997 0.32C8.4641 0.32 8.90922 0.504374 9.23741 0.832563C9.5656 1.16075 9.74997 1.60587 9.74997 2.07V2.07ZM1.78857 14.68C2.13469 14.68 2.47304 14.5774 2.76082 14.3851C3.04861 14.1928 3.27291 13.9195 3.40536 13.5997C3.53782 13.2799 3.57247 12.9281 3.50495 12.5886C3.43742 12.2491 3.27075 11.9373 3.02601 11.6926C2.78127 11.4478 2.46945 11.2812 2.12998 11.2136C1.79052 11.1461 1.43865 11.1808 1.11888 11.3132C0.799108 11.4457 0.525795 11.67 0.333502 11.9578C0.14121 12.2455 0.0385742 12.5839 0.0385742 12.93C0.0385742 13.3941 0.222949 13.8392 0.551137 14.1674C0.879326 14.4956 1.32445 14.68 1.78857 14.68V14.68ZM14.2114 14.68C14.5575 14.68 14.8958 14.5774 15.1836 14.3851C15.4714 14.1928 15.6957 13.9195 15.8282 13.5997C15.9606 13.2799 15.9953 12.9281 15.9277 12.5886C15.8602 12.2491 15.6936 11.9373 15.4488 11.6926C15.2041 11.4478 14.8922 11.2812 14.5528 11.2136C14.2133 11.1461 13.8614 11.1808 13.5417 11.3132C13.2219 11.4457 12.9486 11.67 12.7563 11.9578C12.564 12.2455 12.4614 12.5839 12.4614 12.93C12.4614 13.3941 12.6457 13.8392 12.9739 14.1674C13.3021 14.4956 13.7472 14.68 14.2114 14.68Z" fill="currentColor"/>
</svg>
