<svg width="16" height="16" viewBox="0 0 16 16" fill="none" xmlns="http://www.w3.org/2000/svg">
<path d="M15 7.3H13.6526C13.495 6.04146 12.9225 4.87131 12.0256 3.97443C11.1287 3.07755 9.95859 2.50506 8.70005 2.3474V1C8.70005 0.908078 8.68194 0.817053 8.64676 0.732125C8.61159 0.647197 8.56002 0.570029 8.49502 0.505028C8.43002 0.440027 8.35286 0.388466 8.26793 0.353287C8.183 0.318109 8.09197 0.300003 8.00005 0.300003C7.90812 0.300003 7.8171 0.318109 7.73217 0.353287C7.64724 0.388466 7.57008 0.440027 7.50507 0.505028C7.44007 0.570029 7.38851 0.647197 7.35333 0.732125C7.31815 0.817053 7.30005 0.908078 7.30005 1V2.3474C6.0415 2.50506 4.87136 3.07755 3.97448 3.97443C3.07759 4.87131 2.5051 6.04146 2.34745 7.3H1.00005C0.814397 7.3 0.63635 7.37375 0.505074 7.50503C0.373799 7.6363 0.300049 7.81435 0.300049 8C0.300049 8.18565 0.373799 8.3637 0.505074 8.49498C0.63635 8.62625 0.814397 8.7 1.00005 8.7H2.34745C2.50517 9.95852 3.07768 11.1286 3.97455 12.0255C4.87142 12.9224 6.04153 13.4949 7.30005 13.6526V15C7.30005 15.1857 7.3738 15.3637 7.50507 15.495C7.63635 15.6263 7.8144 15.7 8.00005 15.7C8.1857 15.7 8.36375 15.6263 8.49502 15.495C8.6263 15.3637 8.70005 15.1857 8.70005 15V13.6526C9.95857 13.4949 11.1287 12.9224 12.0255 12.0255C12.9224 11.1286 13.4949 9.95852 13.6526 8.7H15C15.1857 8.7 15.3637 8.62625 15.495 8.49498C15.6263 8.3637 15.7 8.18565 15.7 8C15.7 7.81435 15.6263 7.6363 15.495 7.50503C15.3637 7.37375 15.1857 7.3 15 7.3V7.3ZM8.00005 12.3C7.14959 12.3 6.31823 12.0478 5.6111 11.5753C4.90397 11.1028 4.35282 10.4313 4.02737 9.64554C3.70191 8.85982 3.61676 7.99523 3.78267 7.16111C3.94859 6.327 4.35812 5.56081 4.95949 4.95944C5.56086 4.35808 6.32704 3.94854 7.16116 3.78263C7.99528 3.61671 8.85986 3.70186 9.64559 4.02732C10.4313 4.35278 11.1029 4.90392 11.5754 5.61105C12.0479 6.31818 12.3 7.14954 12.3 8C12.2989 9.14008 11.8455 10.2331 11.0393 11.0393C10.2332 11.8454 9.14012 12.2988 8.00005 12.3V12.3ZM10.5 8C10.5 8.49446 10.3534 8.97781 10.0787 9.38893C9.80402 9.80005 9.41357 10.1205 8.95676 10.3097C8.49994 10.4989 7.99728 10.5484 7.51232 10.452C7.02737 10.3555 6.58191 10.1174 6.23228 9.76777C5.88265 9.41814 5.64455 8.97268 5.54809 8.48773C5.45162 8.00278 5.50113 7.50011 5.69035 7.04329C5.87957 6.58648 6.2 6.19603 6.61112 5.92133C7.02225 5.64663 7.5056 5.5 8.00005 5.5C8.66309 5.5 9.29897 5.76339 9.76782 6.23224C10.2367 6.70108 10.5 7.33696 10.5 8Z" fill="currentColor"/>
</svg>
