<svg width="16" height="16" viewBox="0 0 16 16" fill="none" xmlns="http://www.w3.org/2000/svg">
<path d="M2.29688 13V3C2.29688 2.81435 2.37062 2.6363 2.5019 2.50503C2.63318 2.37375 2.81122 2.3 2.99688 2.3H6.99998C7.18563 2.3 7.36367 2.37375 7.49495 2.50503C7.62623 2.6363 7.69998 2.81435 7.69998 3C7.69998 3.18565 7.62623 3.3637 7.49495 3.49498C7.36367 3.62625 7.18563 3.7 6.99998 3.7H3.69727V12.3H6.99998C7.18563 12.3 7.36367 12.3738 7.49495 12.505C7.62623 12.6363 7.69998 12.8144 7.69998 13C7.69998 13.1857 7.62623 13.3637 7.49495 13.495C7.36367 13.6263 7.18563 13.7 6.99998 13.7H2.99708C2.90513 13.7 2.81409 13.6819 2.72914 13.6468C2.64418 13.6116 2.56699 13.5601 2.50197 13.495C2.43695 13.43 2.38537 13.3529 2.35018 13.2679C2.31499 13.183 2.29687 13.0919 2.29688 13V13ZM14.6462 8.2676C14.6988 8.13971 14.7126 7.99912 14.6857 7.86345C14.6588 7.72778 14.5925 7.60305 14.4951 7.5049L10.4951 3.5049C10.3638 3.37362 10.1857 3.29987 10.0001 3.29987C9.81441 3.29987 9.63636 3.37362 9.50508 3.5049C9.37379 3.63619 9.30004 3.81424 9.30004 3.9999C9.30004 4.18556 9.37379 4.36362 9.50508 4.4949L12.31 7.3H5.99997C5.81432 7.3 5.63628 7.37375 5.505 7.50503C5.37372 7.6363 5.29998 7.81435 5.29998 8C5.29998 8.18565 5.37372 8.3637 5.505 8.49498C5.63628 8.62625 5.81432 8.7 5.99997 8.7H12.31L9.50498 11.5047C9.43997 11.5697 9.38841 11.6469 9.35323 11.7318C9.31805 11.8167 9.29994 11.9078 9.29994 11.9997C9.29994 12.0916 9.31805 12.1827 9.35323 12.2676C9.38841 12.3525 9.43997 12.4297 9.50498 12.4947C9.56998 12.5597 9.64715 12.6113 9.73208 12.6465C9.81702 12.6816 9.90805 12.6997 9.99998 12.6997C10.0919 12.6997 10.1829 12.6816 10.2679 12.6465C10.3528 12.6113 10.43 12.5597 10.495 12.4947L14.495 8.4947C14.5597 8.42962 14.6111 8.35247 14.6462 8.2676Z" fill="currentColor"/>
</svg>
