<svg width="16" height="16" viewBox="0 0 16 16" fill="none" xmlns="http://www.w3.org/2000/svg">
<path d="M12.7334 1.853L9.66695 3.118L6.60005 1.853C6.56672 1.84539 6.53285 1.84037 6.49875 1.838C6.44513 1.82294 6.38983 1.81468 6.33415 1.8134C6.27717 1.81437 6.22056 1.82277 6.16575 1.8384C6.13246 1.84078 6.0994 1.84567 6.06685 1.853L2.73345 3.228C2.60518 3.28069 2.49548 3.37035 2.4183 3.48556C2.34113 3.60077 2.29996 3.73633 2.30005 3.875V13.5C2.29999 13.615 2.32829 13.7283 2.38245 13.8298C2.4366 13.9313 2.51494 14.0179 2.61052 14.082C2.70611 14.146 2.81601 14.1854 2.93048 14.1969C3.04496 14.2083 3.16049 14.1914 3.26685 14.1475L6.33335 12.8824L9.40005 14.1475C9.40875 14.1511 9.41835 14.1496 9.42725 14.1528C9.58059 14.216 9.75271 14.216 9.90605 14.1528C9.91495 14.1496 9.92455 14.1511 9.93325 14.1475L13.2662 12.7725C13.3945 12.7197 13.5043 12.6299 13.5815 12.5146C13.6587 12.3994 13.7 12.2638 13.7 12.125V2.5C13.7 2.385 13.6717 2.27177 13.6175 2.17034C13.5633 2.0689 13.4849 1.98238 13.3894 1.91841C13.2938 1.85445 13.1839 1.81503 13.0695 1.80362C12.9551 1.79221 12.8396 1.80917 12.7332 1.853H12.7334ZM3.70005 4.3433L5.63265 3.5459V11.6559L3.70005 12.4541V4.3433ZM7.03305 3.5459L8.96665 4.3433V12.4541L7.03305 11.6562V3.5459ZM12.2996 11.6559L10.367 12.4538V4.3433L12.3 3.5459L12.2996 11.6559Z" fill="currentColor"/>
</svg>
