<svg width="16" height="16" viewBox="0 0 16 16" fill="none" xmlns="http://www.w3.org/2000/svg">
<path d="M5.5 4C5.5 4.29667 5.41203 4.58668 5.2472 4.83336C5.08238 5.08003 4.84811 5.27229 4.57403 5.38582C4.29994 5.49935 3.99834 5.52906 3.70737 5.47118C3.41639 5.4133 3.14912 5.27044 2.93934 5.06066C2.72956 4.85088 2.5867 4.58361 2.52882 4.29264C2.47094 4.00166 2.50065 3.70006 2.61418 3.42597C2.72771 3.15189 2.91997 2.91762 3.16665 2.7528C3.41332 2.58797 3.70333 2.5 4 2.5C4.39783 2.5 4.77936 2.65804 5.06066 2.93934C5.34197 3.22064 5.5 3.60218 5.5 4ZM12 2.5C11.7033 2.5 11.4133 2.58797 11.1666 2.7528C10.92 2.91762 10.7277 3.15189 10.6142 3.42597C10.5007 3.70006 10.4709 4.00166 10.5288 4.29264C10.5867 4.58361 10.7296 4.85088 10.9393 5.06066C11.1491 5.27044 11.4164 5.4133 11.7074 5.47118C11.9983 5.52906 12.2999 5.49935 12.574 5.38582C12.8481 5.27229 13.0824 5.08003 13.2472 4.83336C13.412 4.58668 13.5 4.29667 13.5 4C13.5 3.60218 13.342 3.22064 13.0607 2.93934C12.7794 2.65804 12.3978 2.5 12 2.5ZM4 10.5C3.70333 10.5 3.41332 10.588 3.16665 10.7528C2.91997 10.9176 2.72771 11.1519 2.61418 11.426C2.50065 11.7001 2.47094 12.0017 2.52882 12.2926C2.5867 12.5836 2.72956 12.8509 2.93934 13.0607C3.14912 13.2704 3.41639 13.4133 3.70737 13.4712C3.99834 13.5291 4.29994 13.4994 4.57403 13.3858C4.84811 13.2723 5.08238 13.08 5.2472 12.8334C5.41203 12.5867 5.5 12.2967 5.5 12C5.5 11.6022 5.34197 11.2206 5.06066 10.9393C4.77936 10.658 4.39783 10.5 4 10.5ZM12 10.5C11.7033 10.5 11.4133 10.588 11.1666 10.7528C10.92 10.9176 10.7277 11.1519 10.6142 11.426C10.5007 11.7001 10.4709 12.0017 10.5288 12.2926C10.5867 12.5836 10.7296 12.8509 10.9393 13.0607C11.1491 13.2704 11.4164 13.4133 11.7074 13.4712C11.9983 13.5291 12.2999 13.4994 12.574 13.3858C12.8481 13.2723 13.0824 13.08 13.2472 12.8334C13.412 12.5867 13.5 12.2967 13.5 12C13.5 11.6022 13.342 11.2206 13.0607 10.9393C12.7794 10.658 12.3978 10.5 12 10.5Z" fill="currentColor"/>
</svg>
