<svg width="16" height="16" viewBox="0 0 16 16" fill="none" xmlns="http://www.w3.org/2000/svg">
<path d="M15.6462 7.7324C15.6113 7.64737 15.56 7.57006 15.4951 7.5049L12.4951 4.5049C12.3639 4.37362 12.1858 4.29987 12.0001 4.29987C11.8145 4.29987 11.6364 4.37362 11.5051 4.5049C11.3739 4.63618 11.3001 4.81424 11.3001 4.9999C11.3001 5.18556 11.3739 5.36362 11.5051 5.4949L13.31 7.3H11C10.4251 7.30589 9.85711 7.17401 9.34359 6.91539C8.83006 6.65677 8.38593 6.27894 8.04835 5.8135C7.30872 4.94862 6.37561 4.27029 5.32473 3.83358C4.27385 3.39686 3.13481 3.21406 2.00005 3.3C1.8144 3.3 1.63635 3.37375 1.50507 3.50503C1.3738 3.6363 1.30005 3.81435 1.30005 4C1.30005 4.18565 1.3738 4.3637 1.50507 4.49498C1.63635 4.62625 1.8144 4.7 2.00005 4.7C2.94734 4.61639 3.90081 4.76285 4.77934 5.1269C5.65787 5.49096 6.43546 6.06185 7.04595 6.791C7.45744 7.24524 7.91958 7.65088 8.42335 8C7.91958 8.34912 7.45744 8.75476 7.04595 9.209C6.43546 9.93815 5.65787 10.509 4.77934 10.8731C3.90081 11.2372 2.94734 11.3836 2.00005 11.3C1.8144 11.3 1.63635 11.3738 1.50507 11.505C1.3738 11.6363 1.30005 11.8143 1.30005 12C1.30005 12.1857 1.3738 12.3637 1.50507 12.495C1.63635 12.6263 1.8144 12.7 2.00005 12.7C3.13483 12.7859 4.27388 12.6031 5.32476 12.1663C6.37564 11.7296 7.30874 11.0512 8.04835 10.1863C8.38595 9.7209 8.83009 9.34311 9.34362 9.08453C9.85714 8.82594 10.4251 8.69409 11 8.7H13.31L11.505 10.5047C11.44 10.5697 11.3885 10.6469 11.3533 10.7318C11.3181 10.8167 11.3 10.9078 11.3 10.9997C11.3 11.0916 11.3181 11.1827 11.3533 11.2676C11.3885 11.3525 11.44 11.4297 11.505 11.4947C11.5701 11.5597 11.6472 11.6113 11.7322 11.6465C11.8171 11.6816 11.9081 11.6997 12 11.6997C12.092 11.6997 12.183 11.6816 12.2679 11.6465C12.3529 11.6113 12.43 11.5597 12.495 11.4947L15.495 8.4947C15.5925 8.39655 15.6588 8.27183 15.6857 8.13615C15.7126 8.00048 15.6988 7.85989 15.6461 7.732L15.6462 7.7324Z" fill="currentColor"/>
</svg>
