<svg width="16" height="16" viewBox="0 0 16 16" fill="none" xmlns="http://www.w3.org/2000/svg">
<path d="M9.5 12C9.5 12.2967 9.41203 12.5867 9.24721 12.8334C9.08238 13.08 8.84812 13.2723 8.57403 13.3858C8.29994 13.4994 7.99834 13.5291 7.70737 13.4712C7.41639 13.4133 7.14912 13.2704 6.93934 13.0607C6.72956 12.8509 6.5867 12.5836 6.52882 12.2926C6.47094 12.0017 6.50065 11.7001 6.61418 11.426C6.72771 11.1519 6.91997 10.9176 7.16665 10.7528C7.41332 10.588 7.70333 10.5 8 10.5C8.39783 10.5 8.77936 10.658 9.06066 10.9393C9.34197 11.2206 9.5 11.6022 9.5 12ZM8 2.5C7.70333 2.5 7.41332 2.58797 7.16665 2.7528C6.91997 2.91762 6.72771 3.15189 6.61418 3.42597C6.50065 3.70006 6.47094 4.00166 6.52882 4.29264C6.5867 4.58361 6.72956 4.85088 6.93934 5.06066C7.14912 5.27044 7.41639 5.4133 7.70737 5.47118C7.99834 5.52906 8.29994 5.49935 8.57403 5.38582C8.84812 5.27229 9.08238 5.08003 9.24721 4.83336C9.41203 4.58668 9.5 4.29667 9.5 4C9.5 3.60218 9.34197 3.22064 9.06066 2.93934C8.77936 2.65804 8.39783 2.5 8 2.5Z" fill="currentColor"/>
</svg>
