<svg width="16" height="16" viewBox="0 0 16 16" fill="none" xmlns="http://www.w3.org/2000/svg">
<path d="M8.99996 11C8.99996 11.1978 8.94131 11.3911 8.83143 11.5556C8.72155 11.72 8.56537 11.8482 8.38264 11.9239C8.19992 11.9996 7.99885 12.0194 7.80487 11.9808C7.61089 11.9422 7.43271 11.847 7.29285 11.7071C7.153 11.5673 7.05776 11.3891 7.01917 11.1951C6.98059 11.0011 7.00039 10.8 7.07608 10.6173C7.15177 10.4346 7.27994 10.2784 7.44439 10.1685C7.60884 10.0586 7.80218 10 7.99996 10C8.26518 10 8.51953 10.1054 8.70707 10.2929C8.8946 10.4804 8.99996 10.7348 8.99996 11ZM7.99996 4C7.73474 4 7.48039 4.10535 7.29285 4.29289C7.10532 4.48043 6.99996 4.73478 6.99996 5V8C6.99996 8.26521 7.10532 8.51957 7.29285 8.7071C7.48039 8.89464 7.73474 9 7.99996 9C8.26518 9 8.51953 8.89464 8.70707 8.7071C8.8946 8.51957 8.99996 8.26521 8.99996 8V5C8.99996 4.73478 8.8946 4.48043 8.70707 4.29289C8.51953 4.10535 8.26518 4 7.99996 4V4ZM15.4014 7.2617C15.5941 7.45914 15.7019 7.7241 15.7019 8C15.7019 8.2759 15.5941 8.54086 15.4014 8.7383L14.1738 10.0059L14.4214 11.7539C14.461 12.0264 14.3927 12.3036 14.2312 12.5267C14.0696 12.7497 13.8275 12.9009 13.5562 12.9482L11.8154 13.2529L10.9883 14.8105C10.8986 14.9812 10.764 15.124 10.5989 15.2236C10.4338 15.3231 10.2445 15.3755 10.0518 15.375C9.89257 15.3748 9.73542 15.3391 9.59176 15.2705L7.99996 14.4922L6.41456 15.2676C6.16688 15.3885 5.88191 15.4082 5.6199 15.3228C5.3579 15.2373 5.13942 15.0533 5.01066 14.8096L4.18456 13.2529L2.44576 12.9482C2.17409 12.9014 1.93143 12.7504 1.76945 12.5273C1.60747 12.3042 1.53898 12.0267 1.57856 11.7539L1.82616 10.0059L0.59856 8.7383C0.405849 8.54086 0.297974 8.2759 0.297974 8C0.297974 7.7241 0.405849 7.45914 0.59856 7.2617L1.82616 5.9941L1.57856 4.2461C1.53911 3.9737 1.60742 3.69665 1.76897 3.47381C1.93053 3.25098 2.1726 3.09991 2.44376 3.0527L4.18376 2.748L5.01166 1.19C5.13976 0.947865 5.35662 0.764725 5.61677 0.678969C5.87693 0.593212 6.16019 0.6115 6.40716 0.729997L7.99996 1.5078L9.58586 0.733397C9.83359 0.612282 10.1188 0.592471 10.3809 0.678169C10.643 0.763866 10.8613 0.948325 10.9897 1.1924L11.8159 2.748L13.5547 3.0527C13.8261 3.09954 14.0686 3.25046 14.2304 3.47334C14.3923 3.69622 14.4608 3.97348 14.4214 4.2461L14.1738 5.9941L15.4014 7.2617ZM14.167 8L12.6914 6.4766L12.9893 4.375L10.9 4.0078L9.90586 2.1348L7.99996 3.0664L6.09416 2.1357L5.09996 4.0078L3.01066 4.375L3.30856 6.4766L1.83296 8L3.30856 9.5234L3.01066 11.626L5.09996 11.9912L6.09456 13.8652L7.99996 12.9336L9.90526 13.8652L10.8999 11.9912L12.9893 11.626L12.6914 9.5234L14.167 8Z" fill="currentColor"/>
</svg>
