<svg width="16" height="16" viewBox="0 0 16 16" fill="none" xmlns="http://www.w3.org/2000/svg">
<path d="M2.00005 8.7H7.30005V14C7.30005 14.1857 7.3738 14.3637 7.50507 14.495C7.63635 14.6263 7.8144 14.7 8.00005 14.7C8.1857 14.7 8.36375 14.6263 8.49502 14.495C8.6263 14.3637 8.70005 14.1857 8.70005 14V8.7H14C14.1857 8.7 14.3637 8.62625 14.495 8.49498C14.6263 8.3637 14.7 8.18565 14.7 8C14.7 7.81435 14.6263 7.6363 14.495 7.50503C14.3637 7.37375 14.1857 7.3 14 7.3H8.70005V2C8.70005 1.90808 8.68194 1.81705 8.64676 1.73212C8.61159 1.6472 8.56002 1.57003 8.49502 1.50503C8.43002 1.44003 8.35286 1.38847 8.26793 1.35329C8.183 1.31811 8.09197 1.3 8.00005 1.3C7.90812 1.3 7.8171 1.31811 7.73217 1.35329C7.64724 1.38847 7.57008 1.44003 7.50507 1.50503C7.44007 1.57003 7.38851 1.6472 7.35333 1.73212C7.31815 1.81705 7.30005 1.90808 7.30005 2V7.3H2.00005C1.8144 7.3 1.63635 7.37375 1.50507 7.50503C1.3738 7.6363 1.30005 7.81435 1.30005 8C1.30005 8.18565 1.3738 8.3637 1.50507 8.49498C1.63635 8.62625 1.8144 8.7 2.00005 8.7V8.7Z" fill="currentColor"/>
</svg>
