<svg width="16" height="16" viewBox="0 0 16 16" fill="none" xmlns="http://www.w3.org/2000/svg">
<path d="M11.7 11V5C11.7 4.90808 11.6819 4.81705 11.6468 4.73212C11.6116 4.6472 11.56 4.57003 11.495 4.50503C11.43 4.44003 11.3529 4.38847 11.2679 4.35329C11.183 4.31811 11.092 4.3 11 4.3H5.00005C4.90812 4.3 4.8171 4.31811 4.73217 4.35329C4.64724 4.38847 4.57008 4.44003 4.50507 4.50503C4.44007 4.57003 4.38851 4.6472 4.35333 4.73212C4.31815 4.81705 4.30005 4.90808 4.30005 5V11C4.30005 11.0919 4.31815 11.183 4.35333 11.2679C4.38851 11.3528 4.44007 11.43 4.50507 11.495C4.57008 11.56 4.64724 11.6115 4.73217 11.6467C4.8171 11.6819 4.90812 11.7 5.00005 11.7H11C11.1857 11.7 11.3637 11.6263 11.495 11.495C11.6263 11.3637 11.7 11.1857 11.7 11ZM10.3 10.3H5.70005V5.7H10.3V10.3ZM0.300049 6C0.300049 5.81435 0.373799 5.6363 0.505074 5.50503C0.63635 5.37375 0.814397 5.3 1.00005 5.3H2.00005C2.1857 5.3 2.36375 5.37375 2.49502 5.50503C2.6263 5.6363 2.70005 5.81435 2.70005 6C2.70005 6.18565 2.6263 6.3637 2.49502 6.49498C2.36375 6.62625 2.1857 6.7 2.00005 6.7H1.00005C0.814397 6.7 0.63635 6.62625 0.505074 6.49498C0.373799 6.3637 0.300049 6.18565 0.300049 6V6ZM0.300049 10C0.300049 9.81435 0.373799 9.6363 0.505074 9.50503C0.63635 9.37375 0.814397 9.3 1.00005 9.3H2.00005C2.1857 9.3 2.36375 9.37375 2.49502 9.50503C2.6263 9.6363 2.70005 9.81435 2.70005 10C2.70005 10.1857 2.6263 10.3637 2.49502 10.495C2.36375 10.6263 2.1857 10.7 2.00005 10.7H1.00005C0.908124 10.7 0.817098 10.6819 0.73217 10.6467C0.647242 10.6115 0.570075 10.56 0.505074 10.495C0.440073 10.43 0.388511 10.3528 0.353333 10.2679C0.318155 10.183 0.300049 10.0919 0.300049 10V10ZM15.7 6C15.7 6.18565 15.6263 6.3637 15.495 6.49498C15.3637 6.62625 15.1857 6.7 15 6.7H14C13.8144 6.7 13.6363 6.62625 13.5051 6.49498C13.3738 6.3637 13.3 6.18565 13.3 6C13.3 5.81435 13.3738 5.6363 13.5051 5.50503C13.6363 5.37375 13.8144 5.3 14 5.3H15C15.1857 5.3 15.3637 5.37375 15.495 5.50503C15.6263 5.6363 15.7 5.81435 15.7 6ZM15.7 10C15.7 10.1857 15.6263 10.3637 15.495 10.495C15.3637 10.6263 15.1857 10.7 15 10.7H14C13.8144 10.7 13.6363 10.6263 13.5051 10.495C13.3738 10.3637 13.3 10.1857 13.3 10C13.3 9.81435 13.3738 9.6363 13.5051 9.50503C13.6363 9.37375 13.8144 9.3 14 9.3H15C15.092 9.3 15.183 9.31811 15.2679 9.35329C15.3529 9.38847 15.43 9.44003 15.495 9.50503C15.56 9.57003 15.6116 9.6472 15.6468 9.73212C15.6819 9.81705 15.7 9.90808 15.7 10V10ZM6.00005 13.3C6.1857 13.3 6.36375 13.3738 6.49502 13.505C6.6263 13.6363 6.70005 13.8144 6.70005 14V15C6.70005 15.1857 6.6263 15.3637 6.49502 15.495C6.36375 15.6263 6.1857 15.7 6.00005 15.7C5.8144 15.7 5.63635 15.6263 5.50507 15.495C5.3738 15.3637 5.30005 15.1857 5.30005 15V14C5.30005 13.8144 5.3738 13.6363 5.50507 13.505C5.63635 13.3738 5.8144 13.3 6.00005 13.3V13.3ZM10 13.3C10.1857 13.3 10.3637 13.3738 10.495 13.505C10.6263 13.6363 10.7 13.8144 10.7 14V15C10.7 15.1857 10.6263 15.3637 10.495 15.495C10.3637 15.6263 10.1857 15.7 10 15.7C9.8144 15.7 9.63635 15.6263 9.50507 15.495C9.3738 15.3637 9.30005 15.1857 9.30005 15V14C9.30005 13.9081 9.31815 13.8171 9.35333 13.7321C9.38851 13.6472 9.44007 13.57 9.50507 13.505C9.57007 13.44 9.64724 13.3885 9.73217 13.3533C9.8171 13.3181 9.90812 13.3 10 13.3V13.3ZM6.00005 0.300003C6.1857 0.300003 6.36375 0.373753 6.49502 0.505028C6.6263 0.636304 6.70005 0.814351 6.70005 1V2C6.70005 2.18565 6.6263 2.3637 6.49502 2.49498C6.36375 2.62625 6.1857 2.7 6.00005 2.7C5.8144 2.7 5.63635 2.62625 5.50507 2.49498C5.3738 2.3637 5.30005 2.18565 5.30005 2V1C5.30005 0.814351 5.3738 0.636304 5.50507 0.505028C5.63635 0.373753 5.8144 0.300003 6.00005 0.300003V0.300003ZM9.30005 2V1C9.30005 0.814351 9.3738 0.636304 9.50507 0.505028C9.63635 0.373753 9.8144 0.300003 10 0.300003C10.1857 0.300003 10.3637 0.373753 10.495 0.505028C10.6263 0.636304 10.7 0.814351 10.7 1V2C10.7 2.18565 10.6263 2.3637 10.495 2.49498C10.3637 2.62625 10.1857 2.7 10 2.7C9.8144 2.7 9.63635 2.62625 9.50507 2.49498C9.3738 2.3637 9.30005 2.18565 9.30005 2Z" fill="currentColor"/>
</svg>
