<svg width="16" height="16" viewBox="0 0 16 16" fill="none" xmlns="http://www.w3.org/2000/svg">
<path d="M12.0049 7.0156L11.3154 2.5332H12.167C12.3527 2.5332 12.5307 2.45945 12.662 2.32818C12.7933 2.1969 12.867 2.01885 12.867 1.8332C12.867 1.64755 12.7933 1.4695 12.662 1.33823C12.5307 1.20695 12.3527 1.1332 12.167 1.1332H3.83302C3.64737 1.1332 3.46932 1.20695 3.33805 1.33823C3.20677 1.4695 3.13302 1.64755 3.13302 1.8332C3.13302 2.01885 3.20677 2.1969 3.33805 2.32818C3.46932 2.45945 3.64737 2.5332 3.83302 2.5332H4.68462L3.99512 7.0156L2.39262 9.8193C2.33166 9.92575 2.29973 10.0463 2.30005 10.169C2.30037 10.2917 2.33292 10.4121 2.39443 10.5182C2.45595 10.6244 2.54427 10.7125 2.65056 10.7737C2.75684 10.835 2.87736 10.8672 3.00002 10.8672H7.32662C7.31325 10.9104 7.30434 10.9549 7.30002 11V14C7.30002 14.1857 7.37377 14.3637 7.50505 14.495C7.63632 14.6263 7.81437 14.7 8.00002 14.7C8.18567 14.7 8.36372 14.6263 8.495 14.495C8.62627 14.3637 8.70002 14.1857 8.70002 14V11C8.69564 10.9549 8.68666 10.9104 8.67322 10.8672H13C13.1227 10.8672 13.2432 10.835 13.3495 10.7737C13.4558 10.7125 13.5441 10.6244 13.6056 10.5182C13.6671 10.4121 13.6997 10.2917 13.7 10.169C13.7003 10.0463 13.6684 9.92575 13.6074 9.8193L12.0049 7.0156ZM4.20612 9.4668L5.27442 7.5977C5.3172 7.5232 5.34569 7.44136 5.35842 7.3564L6.10062 2.5332H9.89942L10.6416 7.3564C10.6544 7.44136 10.6828 7.5232 10.7256 7.5977L11.7939 9.4668H4.20612Z" fill="currentColor"/>
</svg>
