<svg width="16" height="16" viewBox="0 0 16 16" fill="none" xmlns="http://www.w3.org/2000/svg">
<path d="M6.30005 14V2.0513C6.30005 1.86565 6.3738 1.6876 6.50507 1.55632C6.63635 1.42505 6.8144 1.3513 7.00005 1.3513C7.1857 1.3513 7.36375 1.42505 7.49502 1.55632C7.6263 1.6876 7.70005 1.86565 7.70005 2.0513V14C7.70005 14.1857 7.6263 14.3637 7.49502 14.495C7.36375 14.6263 7.1857 14.7 7.00005 14.7C6.8144 14.7 6.63635 14.6263 6.50507 14.495C6.3738 14.3637 6.30005 14.1857 6.30005 14V14ZM2.00005 14.6748C2.1857 14.6748 2.36375 14.6011 2.49502 14.4698C2.6263 14.3385 2.70005 14.1605 2.70005 13.9748V2.0259C2.70005 1.84025 2.6263 1.6622 2.49502 1.53092C2.36375 1.39965 2.1857 1.3259 2.00005 1.3259C1.8144 1.3259 1.63635 1.39965 1.50507 1.53092C1.3738 1.6622 1.30005 1.84025 1.30005 2.0259V13.9746C1.30002 14.0665 1.31811 14.1576 1.35328 14.2425C1.38844 14.3275 1.44 14.4047 1.505 14.4697C1.57001 14.5347 1.64718 14.5863 1.73212 14.6215C1.81707 14.6567 1.90811 14.6748 2.00005 14.6748V14.6748ZM10.6118 1.4175C10.5354 1.46848 10.4696 1.53402 10.4185 1.6104C10.3673 1.68677 10.3317 1.77247 10.3137 1.86261C10.2956 1.95275 10.2955 2.04556 10.3133 2.13574C10.3312 2.22592 10.3666 2.3117 10.4175 2.3882L14.1587 8L10.4175 13.6113C10.3666 13.6878 10.3312 13.7736 10.3133 13.8638C10.2955 13.9539 10.2956 14.0468 10.3137 14.1369C10.3317 14.227 10.3673 14.3127 10.4185 14.3891C10.4696 14.4655 10.5354 14.531 10.6118 14.582C10.7266 14.6592 10.8618 14.7003 11 14.7C11.1154 14.7002 11.229 14.6718 11.3307 14.6175C11.4324 14.5631 11.5191 14.4845 11.583 14.3885L15.583 8.388C15.6597 8.27303 15.7006 8.13796 15.7006 7.9998C15.7006 7.86164 15.6597 7.72657 15.583 7.6116L11.583 1.6116C11.5321 1.53505 11.4665 1.4693 11.39 1.41812C11.3136 1.36693 11.2279 1.3313 11.1377 1.31328C11.0475 1.29525 10.9546 1.29518 10.8644 1.31306C10.7742 1.33094 10.6883 1.36643 10.6118 1.4175V1.4175Z" fill="currentColor"/>
</svg>
