<svg width="16" height="16" viewBox="0 0 16 16" fill="none" xmlns="http://www.w3.org/2000/svg">
<path d="M14.8223 1.8779V6.0449C14.8223 6.23055 14.7485 6.4086 14.6172 6.53987C14.486 6.67115 14.3079 6.7449 14.1223 6.7449H9.95506C9.7694 6.7449 9.59136 6.67115 9.46008 6.53987C9.32881 6.4086 9.25506 6.23055 9.25506 6.0449C9.256 5.94347 9.27934 5.84351 9.32341 5.75215C9.36747 5.66079 9.43117 5.58029 9.50996 5.5164C9.57389 5.43765 9.65441 5.374 9.74579 5.32997C9.83716 5.28594 9.93713 5.26263 10.0386 5.2617H12.3361C11.7933 4.40008 11.0064 3.71949 10.0756 3.30657C9.14475 2.89366 8.11209 2.76712 7.10909 2.94306C6.1061 3.119 5.17815 3.58946 4.44343 4.29454C3.7087 4.99961 3.20044 5.9074 2.98336 6.9023C2.94936 7.05814 2.86316 7.1977 2.73902 7.29787C2.61489 7.39803 2.46026 7.4528 2.30076 7.4531C2.25029 7.45328 2.19996 7.44771 2.15076 7.4365C2.06096 7.41692 1.97591 7.37984 1.90046 7.32737C1.825 7.2749 1.76063 7.20807 1.71102 7.13071C1.66141 7.05335 1.62753 6.96697 1.61132 6.87651C1.59511 6.78604 1.59689 6.69327 1.61656 6.6035C1.88556 5.363 2.51094 4.22805 3.41593 3.338C4.32091 2.44794 5.4661 1.84151 6.7109 1.59318C7.9557 1.34484 9.24593 1.4654 10.4232 1.94005C11.6004 2.4147 12.6134 3.22279 13.3379 4.2651V1.9619C13.3388 1.86038 13.3622 1.76033 13.4063 1.6689C13.4504 1.57747 13.5142 1.49691 13.5931 1.433C13.657 1.3541 13.7375 1.2903 13.829 1.24616C13.9204 1.20203 14.0205 1.17865 14.1221 1.1777C14.214 1.17767 14.3051 1.19577 14.39 1.23095C14.475 1.26613 14.5522 1.3177 14.6172 1.38273C14.6823 1.44775 14.7338 1.52495 14.769 1.60991C14.8042 1.69488 14.8223 1.78594 14.8223 1.8779V1.8779ZM13.85 8.55C13.6685 8.51146 13.4791 8.54631 13.3232 8.64695C13.1673 8.74758 13.0576 8.90582 13.018 9.0871C12.8026 10.0831 12.2955 10.9924 11.5614 11.6991C10.8272 12.4058 9.89918 12.8778 8.89568 13.0549C7.89218 13.2321 6.85866 13.1064 5.92689 12.6938C4.99512 12.2813 4.20732 11.6006 3.66396 10.7385H5.96186C6.06328 10.7376 6.16325 10.7143 6.25462 10.6702C6.346 10.6262 6.42653 10.5625 6.49046 10.4838C6.56919 10.4199 6.63283 10.3394 6.67684 10.248C6.72085 10.1567 6.74415 10.0567 6.74506 9.9553C6.74506 9.76965 6.67131 9.5916 6.54003 9.46033C6.40876 9.32905 6.23071 9.2553 6.04506 9.2553H1.87786C1.6922 9.2553 1.51416 9.32905 1.38288 9.46033C1.25161 9.5916 1.17786 9.76965 1.17786 9.9553V14.1223C1.17786 14.308 1.25161 14.486 1.38288 14.6173C1.51416 14.7485 1.6922 14.8223 1.87786 14.8223C1.9794 14.8214 2.07947 14.798 2.17092 14.7538C2.26237 14.7097 2.34294 14.6459 2.40686 14.567C2.48573 14.5031 2.54951 14.4225 2.59363 14.3311C2.63774 14.2397 2.66111 14.1396 2.66206 14.0381V11.742C3.26037 12.6036 4.05842 13.3075 4.98798 13.7936C5.91754 14.2797 6.95098 14.5334 7.99996 14.5332C9.49135 14.5277 10.9364 14.0146 12.0973 13.0783C13.2582 12.1419 14.0656 10.8382 14.3867 9.3818C14.4256 9.20034 14.391 9.01082 14.2904 8.85486C14.1898 8.69891 14.0314 8.58926 13.85 8.55V8.55Z" fill="currentColor"/>
</svg>
