<svg width="16" height="16" viewBox="0 0 16 16" fill="none" xmlns="http://www.w3.org/2000/svg">
<path d="M9.33845 5.9619C9.33845 6.14755 9.4122 6.3256 9.54348 6.45688C9.67475 6.58815 9.8528 6.6619 10.0385 6.6619H14.0385C14.2241 6.6619 14.4022 6.58815 14.5334 6.45688C14.6647 6.3256 14.7385 6.14755 14.7385 5.9619V1.9619C14.7385 1.77625 14.6647 1.5982 14.5334 1.46693C14.4022 1.33565 14.2241 1.2619 14.0385 1.2619C13.8528 1.2619 13.6748 1.33565 13.5435 1.46693C13.4122 1.5982 13.3385 1.77625 13.3385 1.9619V4.2648C12.4759 3.04298 11.2192 2.15525 9.77932 1.75077C8.33946 1.34628 6.80427 1.4497 5.43167 2.04363C4.05907 2.63757 2.93272 3.68583 2.24186 5.01229C1.551 6.33875 1.33773 7.86257 1.63789 9.32773C1.93805 10.7929 2.73335 12.1101 3.89016 13.058C5.04696 14.006 6.49478 14.5269 7.99036 14.5332C9.48593 14.5396 10.9381 14.031 12.1029 13.0929C13.2677 12.1548 14.0742 10.8444 14.3868 9.3818C14.4088 9.29098 14.4125 9.19666 14.3975 9.1044C14.3826 9.01215 14.3493 8.92382 14.2996 8.84463C14.25 8.76545 14.185 8.69701 14.1084 8.64335C14.0319 8.58969 13.9454 8.55189 13.8541 8.5322C13.7627 8.51251 13.6683 8.51131 13.5765 8.52868C13.4846 8.54605 13.3972 8.58163 13.3193 8.63333C13.2415 8.68503 13.1748 8.7518 13.1231 8.8297C13.0715 8.9076 13.036 8.99505 13.0187 9.0869C12.7694 10.2532 12.1227 11.2966 11.1891 12.0388C10.2556 12.7809 9.09318 13.1757 7.90074 13.1555C6.7083 13.1353 5.55992 12.7015 4.652 11.9282C3.74408 11.1549 3.13304 10.0901 2.92338 8.91611C2.71372 7.74208 2.91848 6.53167 3.50262 5.49192C4.08677 4.45217 5.01401 3.64766 6.12576 3.21601C7.23751 2.78436 8.46469 2.75237 9.59742 3.12553C10.7301 3.49868 11.698 4.25379 12.3356 5.2617H10.0387C9.94669 5.26168 9.85563 5.27977 9.77067 5.31495C9.6857 5.35013 9.6085 5.4017 9.54348 5.46673C9.47845 5.53175 9.42688 5.60895 9.3917 5.69392C9.35652 5.77888 9.33843 5.86994 9.33845 5.9619V5.9619Z" fill="currentColor"/>
</svg>
