<svg width="16" height="16" viewBox="0 0 16 16" fill="none" xmlns="http://www.w3.org/2000/svg">
<path d="M8.62498 3.55H4.56498L5.86998 2.2451C6.00126 2.11382 6.07501 1.93576 6.07501 1.7501C6.07501 1.56444 6.00126 1.38638 5.86998 1.2551C5.7387 1.12382 5.56064 1.05006 5.37498 1.05006C5.18932 1.05006 5.01126 1.12382 4.87998 1.2551L2.37998 3.7551C2.31497 3.8201 2.2634 3.89727 2.22822 3.9822C2.19304 4.06714 2.17493 4.15817 2.17493 4.2501C2.17493 4.34203 2.19304 4.43306 2.22822 4.51799C2.2634 4.60293 2.31497 4.6801 2.37998 4.7451L4.87998 7.2451C5.01126 7.37638 5.18932 7.45014 5.37498 7.45014C5.56064 7.45014 5.7387 7.37638 5.86998 7.2451C6.00126 7.11382 6.07501 6.93576 6.07501 6.7501C6.07501 6.56444 6.00126 6.38638 5.86998 6.2551L4.56508 4.95H8.62508C9.6329 4.95 10.5994 5.35036 11.3121 6.06299C12.0247 6.77563 12.4251 7.74218 12.4251 8.75C12.4251 9.75782 12.0247 10.7244 11.3121 11.437C10.5994 12.1496 9.6329 12.55 8.62508 12.55H4.94338C4.75773 12.55 4.57968 12.6237 4.4484 12.755C4.31713 12.8863 4.24338 13.0643 4.24338 13.25C4.24338 13.4357 4.31713 13.6137 4.4484 13.745C4.57968 13.8763 4.75773 13.95 4.94338 13.95H8.62498C10.0041 13.95 11.3267 13.4021 12.3019 12.427C13.2771 11.4518 13.825 10.1291 13.825 8.75C13.825 7.37087 13.2771 6.04823 12.3019 5.07304C11.3267 4.09786 10.0041 3.55 8.62498 3.55V3.55Z" fill="currentColor"/>
</svg>
