<svg width="16" height="16" viewBox="0 0 16 16" fill="none" xmlns="http://www.w3.org/2000/svg">
<path d="M7.56493 1.8C6.64558 1.79797 5.73909 2.01583 4.92107 2.4354C4.10305 2.85497 3.39723 3.46409 2.8625 4.21193C2.32777 4.95977 1.97965 5.82464 1.84716 6.73439C1.71468 7.64414 1.80169 8.57239 2.10092 9.44167C2.40015 10.311 2.90293 11.0961 3.56732 11.7315C4.2317 12.367 5.03842 12.8343 5.92016 13.0946C6.8019 13.3548 7.73309 13.4004 8.63605 13.2276C9.539 13.0548 10.3875 12.6685 11.1108 12.101L13.0049 13.9951C13.1362 14.1264 13.3143 14.2001 13.4999 14.2001C13.6856 14.2001 13.8636 14.1264 13.9949 13.9951C14.1262 13.8638 14.2 13.6858 14.2 13.5001C14.2 13.3144 14.1262 13.1364 13.9949 13.0051L12.101 11.1108C12.7684 10.2609 13.1831 9.24039 13.2976 8.1659C13.4121 7.09141 13.2219 6.00638 12.7486 5.03496C12.2753 4.06353 11.5382 3.24495 10.6215 2.67286C9.70474 2.10077 8.6455 1.79828 7.56493 1.8V1.8ZM3.20003 7.5649C3.20009 6.70164 3.45613 5.85779 3.93577 5.14004C4.41541 4.42229 5.09711 3.86289 5.89468 3.53258C6.69224 3.20226 7.56984 3.11586 8.41651 3.2843C9.26317 3.45274 10.0409 3.86846 10.6513 4.47889C11.2617 5.08932 11.6774 5.86705 11.8458 6.71372C12.0142 7.56039 11.9277 8.43799 11.5974 9.23554C11.267 10.0331 10.7076 10.7148 9.98982 11.1944C9.27206 11.674 8.42819 11.93 7.56493 11.93C6.40766 11.9287 5.29819 11.4683 4.4799 10.65C3.66161 9.83166 3.20133 8.72217 3.20003 7.5649V7.5649Z" fill="currentColor"/>
</svg>
