<svg width="16" height="16" viewBox="0 0 16 16" fill="none" xmlns="http://www.w3.org/2000/svg">
<path d="M13.2 1.1H2.80005C2.13841 1.10198 1.50456 1.36629 1.03752 1.83495C0.570472 2.3036 0.308355 2.93836 0.308649 3.6V6.1982L1.00635 6.2012C1.48358 6.20203 1.94093 6.39241 2.27779 6.73046C2.61466 7.0685 2.80343 7.52652 2.8026 8.00375C2.80176 8.48098 2.61138 8.93833 2.27334 9.27519C1.9353 9.61206 1.47728 9.80083 1.00005 9.8H0.300049V12.4C0.300922 13.0628 0.564594 13.6981 1.03325 14.1668C1.5019 14.6355 2.13728 14.8991 2.80005 14.9H13.2C13.8628 14.8991 14.4982 14.6355 14.9669 14.1668C15.4355 13.6981 15.6992 13.0628 15.7 12.4V9.8H15C14.7637 9.8 14.5296 9.75344 14.3112 9.66298C14.0928 9.57252 13.8944 9.43994 13.7273 9.27279C13.5601 9.10564 13.4275 8.90722 13.3371 8.68883C13.2466 8.47044 13.2 8.23638 13.2 8C13.2 7.76362 13.2466 7.52955 13.3371 7.31117C13.4275 7.09278 13.5601 6.89435 13.7273 6.72721C13.8944 6.56006 14.0928 6.42747 14.3112 6.33702C14.5296 6.24656 14.7637 6.2 15 6.2H15.7V3.6C15.6992 2.93723 15.4355 2.30185 14.9669 1.8332C14.4982 1.36454 13.8628 1.10087 13.2 1.1V1.1ZM14.3 4.877C13.5906 5.03614 12.9564 5.43213 12.502 5.99977C12.0475 6.56742 11.8 7.27287 11.8 8C11.8 8.72713 12.0475 9.43258 12.502 10.0002C12.9564 10.5679 13.5906 10.9639 14.3 11.123V12.4C14.2999 12.6917 14.1839 12.9714 13.9777 13.1776C13.7714 13.3839 13.4917 13.4998 13.2 13.5H2.80005C2.50837 13.4998 2.22869 13.3839 2.02244 13.1776C1.81619 12.9714 1.70023 12.6917 1.70005 12.4V11.123C2.40874 10.9641 3.04232 10.5689 3.49666 10.0023C3.951 9.43569 4.19907 8.73137 4.20012 8.0051C4.20117 7.27882 3.95512 6.57379 3.50242 6.00586C3.04971 5.43793 2.41728 5.0409 1.70905 4.88V3.6C1.70806 3.30952 1.82241 3.03052 2.02696 2.82428C2.23152 2.61803 2.50957 2.5014 2.80005 2.5H13.2C13.4917 2.50018 13.7714 2.61614 13.9777 2.82239C14.1839 3.02864 14.2999 3.30832 14.3 3.6V4.877ZM10.0434 7.1849C10.1279 6.95547 10.1723 6.71326 10.1748 6.4688C10.1748 5.89195 9.9457 5.33873 9.53781 4.93084C9.12991 4.52295 8.57669 4.2938 7.99985 4.2938C7.423 4.2938 6.86978 4.52295 6.46189 4.93084C6.054 5.33873 5.82485 5.89195 5.82485 6.4688C5.82742 6.71336 5.8719 6.95567 5.95635 7.1852C5.34497 7.66816 4.92869 8.35577 4.7842 9.12138C4.63971 9.88699 4.77674 10.679 5.17005 11.3516C5.21485 11.4337 5.27563 11.5059 5.34882 11.5641C5.42201 11.6223 5.50612 11.6653 5.59618 11.6904C5.68624 11.7156 5.78042 11.7224 5.87317 11.7106C5.96593 11.6987 6.05536 11.6684 6.13621 11.6214C6.21705 11.5745 6.28766 11.5118 6.34388 11.437C6.40009 11.3623 6.44076 11.2771 6.46349 11.1864C6.48622 11.0957 6.49054 11.0013 6.47621 10.9089C6.46188 10.8165 6.42918 10.728 6.38005 10.6484C6.21602 10.3665 6.1294 10.0462 6.12895 9.72C6.13003 9.44447 6.19326 9.17273 6.31394 8.92504C6.43462 8.67734 6.60964 8.46007 6.82595 8.2894C7.17527 8.51686 7.58315 8.63795 8 8.63795C8.41685 8.63795 8.82473 8.51686 9.17405 8.2894C9.39035 8.46008 9.56536 8.67736 9.68606 8.92505C9.80675 9.17274 9.87002 9.44447 9.87115 9.72C9.87063 10.0463 9.78387 10.3667 9.61965 10.6487C9.57051 10.7283 9.53782 10.8168 9.52349 10.9092C9.50915 11.0016 9.51348 11.096 9.53621 11.1867C9.55894 11.2774 9.59961 11.3626 9.65582 11.4373C9.71203 11.5121 9.78264 11.5748 9.86349 11.6217C9.94433 11.6687 10.0338 11.699 10.1265 11.7109C10.2193 11.7227 10.3135 11.7159 10.4035 11.6907C10.4936 11.6656 10.5777 11.6226 10.6509 11.5644C10.7241 11.5062 10.7849 11.434 10.8296 11.3519C11.2229 10.6793 11.36 9.88722 11.2155 9.12157C11.071 8.35592 10.6548 7.66825 10.0434 7.1852V7.1849ZM7.22565 6.4688C7.22448 6.31539 7.2689 6.16509 7.35328 6.03697C7.43766 5.90885 7.55819 5.80867 7.69959 5.74915C7.84098 5.68964 7.99687 5.67346 8.14748 5.70267C8.29808 5.73188 8.43662 5.80516 8.54551 5.91323C8.6544 6.02129 8.72875 6.15926 8.75911 6.30964C8.78947 6.46002 8.77448 6.61602 8.71605 6.75787C8.65761 6.89972 8.55836 7.02101 8.43089 7.10637C8.30341 7.19172 8.15346 7.23729 8.00005 7.2373C7.79551 7.23788 7.59909 7.15729 7.4539 7.01321C7.30872 6.86913 7.22663 6.67334 7.22565 6.4688V6.4688Z" fill="currentColor"/>
</svg>
