<svg width="16" height="16" viewBox="0 0 16 16" fill="none" xmlns="http://www.w3.org/2000/svg">
<path d="M7.99999 2.75C6.37478 2.72744 4.77966 3.18925 3.41788 4.07658C2.0561 4.9639 0.989321 6.23657 0.353488 7.7324L0.242188 8L0.353488 8.2676C0.989321 9.76343 2.0561 11.0361 3.41788 11.9234C4.77966 12.8107 6.37478 13.2726 7.99999 13.25C9.62519 13.2726 11.2203 12.8107 12.5821 11.9234C13.9439 11.0361 15.0107 9.76343 15.6465 8.2676L15.7578 8L15.6465 7.7324C15.0107 6.23657 13.9439 4.9639 12.5821 4.07658C11.2203 3.18925 9.62519 2.72744 7.99999 2.75V2.75ZM7.99999 11.85C6.7017 11.8697 5.42485 11.5178 4.32004 10.8356C3.21523 10.1535 2.32855 9.16957 1.76459 8C2.32855 6.83043 3.21523 5.84655 4.32004 5.16439C5.42485 4.48223 6.7017 4.13027 7.99999 4.15C9.29827 4.13027 10.5751 4.48223 11.6799 5.16439C12.7847 5.84655 13.6714 6.83043 14.2354 8C13.6714 9.16957 12.7847 10.1535 11.6799 10.8356C10.5751 11.5178 9.29827 11.8697 7.99999 11.85V11.85ZM10.5 8C10.5 8.49445 10.3534 8.9778 10.0787 9.38892C9.80396 9.80005 9.41351 10.1205 8.9567 10.3097C8.49988 10.4989 7.99721 10.5484 7.51226 10.452C7.02731 10.3555 6.58185 10.1174 6.23222 9.76777C5.88259 9.41813 5.64449 8.97268 5.54802 8.48773C5.45156 8.00277 5.50107 7.50011 5.69029 7.04329C5.87951 6.58648 6.19994 6.19603 6.61106 5.92133C7.02218 5.64662 7.50553 5.5 7.99999 5.5C8.66303 5.5 9.29891 5.76339 9.76775 6.23223C10.2366 6.70107 10.5 7.33696 10.5 8Z" fill="currentColor"/>
</svg>
