<svg width="16" height="16" viewBox="0 0 16 16" fill="none" xmlns="http://www.w3.org/2000/svg">
<path d="M7.70005 13C7.70005 13.1857 7.6263 13.3637 7.49503 13.495C7.36375 13.6262 7.1857 13.7 7.00005 13.7H2.00005C1.86701 13.6999 1.73675 13.6619 1.62451 13.5905C1.51226 13.5191 1.42268 13.4172 1.36623 13.2967C1.30978 13.1762 1.28881 13.0422 1.30576 12.9102C1.32271 12.7783 1.37689 12.6539 1.46195 12.5516L5.50595 7.7H2.00005C1.8144 7.7 1.63635 7.62625 1.50508 7.49497C1.3738 7.3637 1.30005 7.18565 1.30005 7C1.30005 6.81435 1.3738 6.6363 1.50508 6.50502C1.63635 6.37375 1.8144 6.3 2.00005 6.3H7.00005C7.13309 6.30009 7.26335 6.33807 7.3756 6.40949C7.48784 6.48091 7.57743 6.58281 7.63388 6.70328C7.69032 6.82375 7.7113 6.9578 7.69435 7.08976C7.6774 7.22171 7.62322 7.34611 7.53815 7.4484L3.49415 12.3H7.00005C7.1857 12.3 7.36375 12.3737 7.49503 12.505C7.6263 12.6363 7.70005 12.8143 7.70005 13ZM14.0001 9.3H9.52155L14.5316 3.4553C14.6186 3.35365 14.6747 3.22917 14.6932 3.09663C14.7116 2.96408 14.6917 2.82902 14.6358 2.70744C14.5799 2.58586 14.4902 2.48286 14.3776 2.41065C14.2649 2.33844 14.1339 2.30004 14.0001 2.3H8.00005C7.8144 2.3 7.63635 2.37375 7.50508 2.50502C7.3738 2.6363 7.30005 2.81435 7.30005 3C7.30005 3.18565 7.3738 3.3637 7.50508 3.49497C7.63635 3.62625 7.8144 3.7 8.00005 3.7H12.4786L7.46855 9.5447C7.38151 9.64635 7.32543 9.77082 7.30695 9.90337C7.28848 10.0359 7.30839 10.171 7.36432 10.2926C7.42025 10.4141 7.50987 10.5171 7.62254 10.5893C7.73521 10.6616 7.86623 10.7 8.00005 10.7H14.0001C14.1857 10.7 14.3638 10.6262 14.495 10.495C14.6263 10.3637 14.7001 10.1857 14.7001 10C14.7001 9.81435 14.6263 9.6363 14.495 9.50502C14.3638 9.37375 14.1857 9.3 14.0001 9.3V9.3Z" fill="currentColor"/>
</svg>
