<svg width="16" height="16" viewBox="0 0 16 16" fill="none" xmlns="http://www.w3.org/2000/svg">
<path d="M1.30005 3C1.30005 2.81435 1.3738 2.6363 1.50507 2.50502C1.63635 2.37375 1.8144 2.3 2.00005 2.3H14C14.1857 2.3 14.3637 2.37375 14.495 2.50502C14.6263 2.6363 14.7 2.81435 14.7 3C14.7 3.18565 14.6263 3.3637 14.495 3.49497C14.3637 3.62625 14.1857 3.7 14 3.7H2.00005C1.8144 3.7 1.63635 3.62625 1.50507 3.49497C1.3738 3.3637 1.30005 3.18565 1.30005 3V3ZM2.00005 8.7388H10.93C11.1157 8.7388 11.2937 8.66505 11.425 8.53377C11.5563 8.4025 11.63 8.22445 11.63 8.0388C11.63 7.85315 11.5563 7.6751 11.425 7.54382C11.2937 7.41255 11.1157 7.3388 10.93 7.3388H2.00005C1.8144 7.3388 1.63635 7.41255 1.50507 7.54382C1.3738 7.6751 1.30005 7.85315 1.30005 8.0388C1.30005 8.22445 1.3738 8.4025 1.50507 8.53377C1.63635 8.66505 1.8144 8.7388 2.00005 8.7388V8.7388ZM2.00005 13.7H8.00005C8.1857 13.7 8.36375 13.6262 8.49502 13.495C8.6263 13.3637 8.70005 13.1857 8.70005 13C8.70005 12.8143 8.6263 12.6363 8.49502 12.505C8.36375 12.3737 8.1857 12.3 8.00005 12.3H2.00005C1.8144 12.3 1.63635 12.3737 1.50507 12.505C1.3738 12.6363 1.30005 12.8143 1.30005 13C1.30005 13.1857 1.3738 13.3637 1.50507 13.495C1.63635 13.6262 1.8144 13.7 2.00005 13.7V13.7Z" fill="currentColor"/>
</svg>
