<svg width="16" height="16" viewBox="0 0 16 16" fill="none" xmlns="http://www.w3.org/2000/svg">
<path d="M9.68001 5.4494C9.68001 5.27733 9.73103 5.10912 9.82663 4.96605C9.92222 4.82298 10.0581 4.71147 10.2171 4.64562C10.376 4.57978 10.551 4.56255 10.7197 4.59612C10.8885 4.62969 11.0435 4.71254 11.1652 4.83422C11.2869 4.95589 11.3697 5.11091 11.4033 5.27967C11.4369 5.44843 11.4196 5.62336 11.3538 5.78233C11.2879 5.94131 11.1764 6.07718 11.0334 6.17278C10.8903 6.26837 10.7221 6.3194 10.55 6.3194C10.3193 6.3194 10.098 6.22774 9.93482 6.06458C9.77167 5.90143 9.68001 5.68014 9.68001 5.4494ZM6.19341 15.4639L0.536105 9.8066C0.471097 9.7416 0.419529 9.66443 0.384346 9.57949C0.349163 9.49456 0.331055 9.40353 0.331055 9.3116C0.331055 9.21967 0.349163 9.12864 0.384346 9.0437C0.419529 8.95877 0.471097 8.8816 0.536105 8.8166L7.87941 1.4736C7.95764 1.39665 8.0526 1.33882 8.15687 1.30462C8.26113 1.27041 8.37189 1.26075 8.4805 1.2764L13.4905 2.0439C13.6403 2.067 13.7785 2.13801 13.8845 2.24629C13.9905 2.35457 14.0585 2.49429 14.0784 2.6445L14.7249 7.5332C14.7391 7.63971 14.7285 7.74806 14.694 7.84983C14.6596 7.95161 14.6021 8.04408 14.5262 8.1201L7.18361 15.4639C7.1186 15.5289 7.04143 15.5805 6.9565 15.6157C6.87157 15.6508 6.78054 15.6689 6.68861 15.6689C6.59667 15.6689 6.50564 15.6508 6.42071 15.6157C6.33578 15.5805 6.25861 15.5289 6.19361 15.4639H6.19341ZM2.02101 9.3115L6.68851 13.9785L13.292 7.374L12.76 3.3486L8.6187 2.7139L2.02101 9.3115Z" fill="currentColor"/>
</svg>
