<svg width="16" height="16" viewBox="0 0 16 16" fill="none" xmlns="http://www.w3.org/2000/svg">
<path d="M2.00005 3.7H2.30005V13.5C2.30005 13.6857 2.3738 13.8637 2.50507 13.995C2.63635 14.1262 2.8144 14.2 3.00005 14.2H13C13.1857 14.2 13.3637 14.1262 13.495 13.995C13.6263 13.8637 13.7 13.6857 13.7 13.5V3.7H14C14.1857 3.7 14.3637 3.62625 14.495 3.49497C14.6263 3.3637 14.7 3.18565 14.7 3C14.7 2.81435 14.6263 2.6363 14.495 2.50502C14.3637 2.37375 14.1857 2.3 14 2.3H11.6268C11.6737 2.20685 11.6987 2.10426 11.7 2C11.7 1.81435 11.6263 1.6363 11.495 1.50502C11.3637 1.37375 11.1857 1.3 11 1.3H5.00005C4.90812 1.3 4.8171 1.31811 4.73217 1.35328C4.64724 1.38846 4.57008 1.44002 4.50507 1.50502C4.44007 1.57003 4.38851 1.64719 4.35333 1.73212C4.31815 1.81705 4.30005 1.90807 4.30005 2C4.30147 2.10427 4.32657 2.20685 4.37345 2.3H2.00005C1.8144 2.3 1.63635 2.37375 1.50507 2.50502C1.3738 2.6363 1.30005 2.81435 1.30005 3C1.30005 3.18565 1.3738 3.3637 1.50507 3.49497C1.63635 3.62625 1.8144 3.7 2.00005 3.7V3.7ZM12.3 12.8H3.70005V3.7H12.3V12.8Z" fill="currentColor"/>
</svg>
