<svg width="16" height="16" viewBox="0 0 16 16" fill="none" xmlns="http://www.w3.org/2000/svg">
<path d="M2.00005 5.7H3.46425C3.61204 6.20506 3.91954 6.64861 4.34067 6.96417C4.7618 7.27973 5.27386 7.45029 5.8001 7.45029C6.32634 7.45029 6.8384 7.27973 7.25953 6.96417C7.68065 6.64861 7.98816 6.20506 8.13595 5.7H14C14.1857 5.7 14.3637 5.62625 14.495 5.49497C14.6263 5.3637 14.7 5.18565 14.7 5C14.7 4.81435 14.6263 4.6363 14.495 4.50502C14.3637 4.37375 14.1857 4.3 14 4.3H8.13575C7.98776 3.7952 7.6802 3.35193 7.25914 3.03659C6.83809 2.72125 6.3262 2.55082 5.80015 2.55082C5.2741 2.55082 4.76221 2.72125 4.34115 3.03659C3.9201 3.35193 3.61254 3.7952 3.46455 4.3H2.00005C1.8144 4.3 1.63635 4.37375 1.50507 4.50502C1.3738 4.6363 1.30005 4.81435 1.30005 5C1.30005 5.18565 1.3738 5.3637 1.50507 5.49497C1.63635 5.62625 1.8144 5.7 2.00005 5.7V5.7ZM5.80005 3.8C6.03739 3.8 6.26939 3.87038 6.46673 4.00224C6.66407 4.13409 6.81788 4.32151 6.9087 4.54078C6.99953 4.76005 7.02329 5.00133 6.97699 5.23411C6.93069 5.46688 6.8164 5.6807 6.64858 5.84853C6.48075 6.01635 6.26693 6.13064 6.03416 6.17694C5.80138 6.22324 5.5601 6.19948 5.34083 6.10865C5.12156 6.01783 4.93414 5.86402 4.80229 5.66668C4.67043 5.46934 4.60005 5.23734 4.60005 5C4.60005 4.68174 4.72648 4.37651 4.95152 4.15147C5.17656 3.92643 5.48179 3.8 5.80005 3.8V3.8ZM2.00005 11.7H7.86435C8.01214 12.2051 8.31964 12.6486 8.74077 12.9642C9.1619 13.2797 9.67396 13.4503 10.2002 13.4503C10.7264 13.4503 11.2385 13.2797 11.6596 12.9642C12.0808 12.6486 12.3883 12.2051 12.536 11.7H14C14.1857 11.7 14.3637 11.6262 14.495 11.495C14.6263 11.3637 14.7 11.1857 14.7 11C14.7 10.8143 14.6263 10.6363 14.495 10.505C14.3637 10.3737 14.1857 10.3 14 10.3H12.5358C12.3879 9.79516 12.0803 9.35184 11.6593 9.03647C11.2382 8.7211 10.7263 8.55065 10.2002 8.55065C9.67412 8.55065 9.1622 8.7211 8.74113 9.03647C8.32006 9.35184 8.01251 9.79516 7.86455 10.3H2.00005C1.8144 10.3 1.63635 10.3737 1.50507 10.505C1.3738 10.6363 1.30005 10.8143 1.30005 11C1.30005 11.1857 1.3738 11.3637 1.50507 11.495C1.63635 11.6262 1.8144 11.7 2.00005 11.7V11.7ZM10.2 9.8C10.4374 9.8 10.6694 9.87038 10.8667 10.0022C11.0641 10.1341 11.2179 10.3215 11.3087 10.5408C11.3995 10.7601 11.4233 11.0013 11.377 11.2341C11.3307 11.4669 11.2164 11.6807 11.0486 11.8485C10.8808 12.0163 10.6669 12.1306 10.4342 12.1769C10.2014 12.2232 9.9601 12.1995 9.74083 12.1087C9.52156 12.0178 9.33414 11.864 9.20228 11.6667C9.07043 11.4693 9.00005 11.2373 9.00005 11C9.00005 10.6817 9.12648 10.3765 9.35152 10.1515C9.57656 9.92643 9.88179 9.8 10.2 9.8V9.8Z" fill="currentColor"/>
</svg>
