<svg width="16" height="16" viewBox="0 0 16 16" fill="none" xmlns="http://www.w3.org/2000/svg">
<path d="M7.30005 11V4.69L4.49515 7.4951C4.36387 7.62638 4.18581 7.70014 4.00015 7.70014C3.81449 7.70014 3.63643 7.62638 3.50515 7.4951C3.37387 7.36382 3.30011 7.18576 3.30011 7.0001C3.30011 6.81444 3.37387 6.63638 3.50515 6.5051L7.50515 2.5051C7.63677 2.37447 7.8147 2.30116 8.00015 2.30116C8.1856 2.30116 8.36352 2.37447 8.49515 2.5051L12.4951 6.5051C12.5602 6.5701 12.6117 6.64728 12.6469 6.73221C12.6821 6.81714 12.7002 6.90817 12.7002 7.0001C12.7002 7.09203 12.6821 7.18306 12.6469 7.26799C12.6117 7.35292 12.5602 7.4301 12.4951 7.4951C12.4301 7.5601 12.353 7.61167 12.268 7.64685C12.1831 7.68203 12.0921 7.70014 12.0001 7.70014C11.9082 7.70014 11.8172 7.68203 11.7323 7.64685C11.6473 7.61167 11.5702 7.5601 11.5051 7.4951L8.70005 4.69V11C8.70005 11.1857 8.6263 11.3637 8.49502 11.495C8.36375 11.6263 8.1857 11.7 8.00005 11.7C7.8144 11.7 7.63635 11.6263 7.50507 11.495C7.3738 11.3637 7.30005 11.1857 7.30005 11V11ZM2.30005 14C2.30005 14.1857 2.3738 14.3637 2.50507 14.495C2.63635 14.6263 2.8144 14.7 3.00005 14.7H13C13.1857 14.7 13.3637 14.6263 13.495 14.495C13.6263 14.3637 13.7 14.1857 13.7 14C13.7 13.8143 13.6263 13.6363 13.495 13.505C13.3637 13.3737 13.1857 13.3 13 13.3H3.00005C2.8144 13.3 2.63635 13.3737 2.50507 13.505C2.3738 13.6363 2.30005 13.8143 2.30005 14V14Z" fill="currentColor"/>
</svg>
