<svg width="16" height="16" viewBox="0 0 16 16" fill="none" xmlns="http://www.w3.org/2000/svg">
<path d="M2.30006 11.3438C2.30152 12.3424 2.56717 13.3228 3.07006 14.1855C3.11586 14.2658 3.17711 14.3362 3.25027 14.3927C3.32343 14.4492 3.40705 14.4906 3.49631 14.5146C3.58556 14.5386 3.67869 14.5447 3.77032 14.5325C3.86194 14.5203 3.95024 14.4901 4.03013 14.4436C4.11002 14.3972 4.17991 14.3353 4.23577 14.2617C4.29163 14.188 4.33235 14.1041 4.35559 14.0146C4.37882 13.9251 4.38411 13.832 4.37115 13.7404C4.35818 13.6489 4.32722 13.5609 4.28006 13.4814C3.72113 12.5253 3.5587 11.3883 3.82754 10.314C4.09637 9.23958 4.7751 8.31312 5.71846 7.7329C6.35351 8.27819 7.16287 8.57799 7.99991 8.57799C8.83695 8.57799 9.6463 8.27819 10.2814 7.7329C11.2249 8.31287 11.9039 9.23922 12.1729 10.3136C12.442 11.388 12.2797 12.525 11.7208 13.4812C11.6736 13.5607 11.6426 13.6487 11.6297 13.7402C11.6167 13.8318 11.622 13.9249 11.6452 14.0144C11.6685 14.1039 11.7092 14.1878 11.765 14.2615C11.8209 14.3351 11.8908 14.397 11.9707 14.4434C12.0506 14.4899 12.1389 14.5201 12.2305 14.5323C12.3221 14.5445 12.4152 14.5384 12.5045 14.5144C12.5938 14.4904 12.6774 14.449 12.7505 14.3925C12.8237 14.336 12.885 14.2656 12.9308 14.1853C13.6583 12.939 13.8806 11.4614 13.5519 10.0562C13.2233 8.65109 12.3687 7.4253 11.1639 6.631C11.4255 6.13478 11.5641 5.58296 11.568 5.022C11.568 4.07573 11.1921 3.16822 10.5229 2.49911C9.85383 1.83 8.94632 1.4541 8.00006 1.4541C7.05379 1.4541 6.14628 1.83 5.47717 2.49911C4.80806 3.16822 4.43216 4.07573 4.43216 5.022C4.43604 5.58305 4.5747 6.13494 4.83646 6.6312C4.05578 7.1445 3.41515 7.84405 2.97235 8.66677C2.52955 9.48949 2.2985 10.4095 2.30006 11.3438V11.3438ZM8.00006 2.8667C8.42586 2.86907 8.84143 2.99751 9.19432 3.2358C9.54721 3.47409 9.82162 3.81157 9.98292 4.20565C10.1442 4.59973 10.1852 5.03276 10.1007 5.4501C10.0161 5.86744 9.80986 6.25039 9.50792 6.55063C9.20597 6.85087 8.82187 7.05496 8.40406 7.13714C7.98625 7.21932 7.55346 7.17591 7.1603 7.01239C6.76713 6.84887 6.43121 6.57256 6.19491 6.21833C5.95861 5.8641 5.83252 5.44781 5.83256 5.022C5.83478 4.44895 6.06424 3.90018 6.4706 3.49612C6.87695 3.09205 7.427 2.86569 8.00006 2.8667V2.8667Z" fill="currentColor"/>
</svg>
