<svg width="16" height="16" viewBox="0 0 16 16" fill="none" xmlns="http://www.w3.org/2000/svg">
<path d="M11 8C10.9993 7.65035 10.9065 7.30707 10.7309 7.00468C10.5554 6.70229 10.3033 6.45145 10 6.2774V4.6631C10.7215 4.87433 11.355 5.31366 11.8057 5.91526C12.2564 6.51685 12.5 7.2483 12.5 8C12.5 8.7517 12.2564 9.48315 11.8057 10.0847C11.355 10.6863 10.7215 11.1257 10 11.3369V9.7226C10.3033 9.54853 10.5553 9.29769 10.7309 8.99531C10.9064 8.69292 10.9993 8.34965 11 8V8ZM2.00005 4.3H4.24125L7.54445 1.469C7.64606 1.38189 7.77052 1.32573 7.90307 1.30719C8.03562 1.28865 8.1707 1.30849 8.29232 1.36438C8.41394 1.42026 8.51698 1.50984 8.58925 1.62249C8.66151 1.73515 8.69996 1.86616 8.70005 2V14C8.70004 14.1339 8.66162 14.265 8.58936 14.3777C8.5171 14.4904 8.41403 14.5801 8.29237 14.636C8.17071 14.6919 8.03556 14.7117 7.90296 14.6932C7.77036 14.6746 7.64587 14.6184 7.54425 14.5312L4.24125 11.7H2.00005C1.8144 11.7 1.63635 11.6263 1.50507 11.495C1.3738 11.3637 1.30005 11.1857 1.30005 11V5C1.30005 4.90807 1.31815 4.81705 1.35333 4.73212C1.38851 4.64719 1.44007 4.57003 1.50507 4.50503C1.57008 4.44002 1.64724 4.38846 1.73217 4.35328C1.8171 4.31811 1.90812 4.3 2.00005 4.3V4.3ZM2.70005 10.3H4.50005C4.66722 10.3001 4.82883 10.3601 4.95565 10.469L7.30005 12.478V3.522L4.95565 5.5312C4.82881 5.64006 4.6672 5.69993 4.50005 5.7H2.70005V10.3ZM10 1.5851V3.1008C11.1295 3.33108 12.1447 3.94452 12.8738 4.8373C13.6029 5.73007 14.0011 6.84733 14.0011 8C14.0011 9.15267 13.6029 10.2699 12.8738 11.1627C12.1447 12.0555 11.1295 12.6689 10 12.8992V14.4149C11.5318 14.1784 12.9284 13.4017 13.9372 12.2251C14.9461 11.0485 15.5007 9.54979 15.5007 7.9999C15.5007 6.45001 14.9461 4.95128 13.9372 3.77471C12.9284 2.59813 11.5318 1.82138 10 1.5849V1.5851Z" fill="currentColor"/>
</svg>
