<svg width="16" height="16" viewBox="0 0 16 16" fill="none" xmlns="http://www.w3.org/2000/svg">
<path d="M11 8C10.9993 7.65035 10.9065 7.30707 10.7309 7.00468C10.5554 6.70229 10.3033 6.45145 10 6.2774V4.6631C10.7215 4.87433 11.355 5.31366 11.8057 5.91525C12.2564 6.51685 12.5 7.2483 12.5 8C12.5 8.7517 12.2564 9.48315 11.8057 10.0847C11.355 10.6863 10.7215 11.1257 10 11.3369V9.7226C10.3033 9.54853 10.5553 9.29769 10.7309 8.99531C10.9064 8.69292 10.9993 8.34964 11 8V8ZM1.30005 11V5C1.30005 4.90807 1.31815 4.81705 1.35333 4.73212C1.38851 4.64719 1.44007 4.57003 1.50507 4.50502C1.57008 4.44002 1.64724 4.38846 1.73217 4.35328C1.8171 4.31811 1.90812 4.3 2.00005 4.3H4.24125L7.54495 1.469C7.64657 1.38204 7.77098 1.32602 7.90345 1.30756C8.03592 1.28911 8.1709 1.30899 8.29243 1.36485C8.41395 1.42072 8.51692 1.51023 8.58916 1.62279C8.6614 1.73535 8.69988 1.86625 8.70005 2V14C8.7002 14.1339 8.66191 14.265 8.58973 14.3778C8.51754 14.4906 8.41449 14.5803 8.29282 14.6363C8.17116 14.6922 8.03599 14.712 7.90338 14.6934C7.77077 14.6748 7.6463 14.6185 7.54475 14.5312L4.24125 11.7H2.00005C1.8144 11.7 1.63635 11.6263 1.50507 11.495C1.3738 11.3637 1.30005 11.1857 1.30005 11ZM2.70005 10.3H4.50005C4.6671 10.3 4.82861 10.3599 4.95515 10.469L7.30005 12.478V3.522L4.95515 5.5312C4.82858 5.64019 4.66708 5.70009 4.50005 5.7H2.70005V10.3ZM15.5 8C15.4973 6.45097 14.9418 4.95378 13.9336 3.7778C12.9253 2.60183 11.5305 1.8243 10 1.5851V3.1008C11.1295 3.33108 12.1447 3.94452 12.8738 4.83729C13.6029 5.73007 14.0011 6.84733 14.0011 8C14.0011 9.15267 13.6029 10.2699 12.8738 11.1627C12.1447 12.0555 11.1295 12.6689 10 12.8992V14.4149C11.5305 14.1757 12.9253 13.3982 13.9336 12.2222C14.9418 11.0462 15.4973 9.54902 15.5 8Z" fill="currentColor"/>
</svg>
