<svg width="16" height="16" viewBox="0 0 16 16" fill="none" xmlns="http://www.w3.org/2000/svg">
<path d="M10 11.3369V9.7226C10.3038 9.54913 10.5563 9.29843 10.7319 8.9959C10.9075 8.69338 11 8.3498 11 8C11 7.6502 10.9075 7.30662 10.7319 7.0041C10.5563 6.70157 10.3038 6.45087 10 6.2774V4.6631C10.7215 4.87433 11.355 5.31366 11.8057 5.91526C12.2564 6.51685 12.5 7.2483 12.5 8C12.5 8.7517 12.2564 9.48315 11.8057 10.0847C11.355 10.6863 10.7215 11.1257 10 11.3369V11.3369ZM1.30005 11V5C1.30005 4.90807 1.31815 4.81705 1.35333 4.73212C1.38851 4.64719 1.44007 4.57003 1.50507 4.50503C1.57008 4.44002 1.64724 4.38846 1.73217 4.35328C1.8171 4.31811 1.90812 4.3 2.00005 4.3H4.24125L7.54445 1.469C7.64606 1.38189 7.77052 1.32573 7.90307 1.30719C8.03562 1.28865 8.1707 1.30849 8.29232 1.36438C8.41394 1.42026 8.51698 1.50984 8.58925 1.62249C8.66151 1.73515 8.69996 1.86616 8.70005 2V14C8.70004 14.1339 8.66162 14.265 8.58936 14.3777C8.5171 14.4904 8.41403 14.5801 8.29237 14.636C8.17071 14.6919 8.03556 14.7117 7.90296 14.6932C7.77036 14.6746 7.64587 14.6184 7.54425 14.5312L4.24125 11.7H2.00005C1.8144 11.7 1.63635 11.6263 1.50507 11.495C1.3738 11.3637 1.30005 11.1857 1.30005 11ZM2.70005 10.3H4.50005C4.66722 10.3001 4.82883 10.3601 4.95565 10.469L7.30005 12.478V3.522L4.95565 5.5312C4.82881 5.64006 4.6672 5.69993 4.50005 5.7H2.70005V10.3Z" fill="currentColor"/>
</svg>
