<svg width="16" height="16" viewBox="0 0 16 16" fill="none" xmlns="http://www.w3.org/2000/svg">
<path d="M8.00005 15.7C9.52296 15.7 11.0117 15.2484 12.2779 14.4023C13.5442 13.5562 14.5311 12.3537 15.1139 10.9467C15.6967 9.53967 15.8492 7.99146 15.5521 6.49781C15.255 5.00415 14.5216 3.63214 13.4448 2.55528C12.3679 1.47841 10.9959 0.74506 9.50224 0.447954C8.00859 0.150848 6.46038 0.303334 5.05339 0.886128C3.6464 1.46892 2.44382 2.45585 1.59773 3.72211C0.751646 4.98837 0.300049 6.47708 0.300049 8C0.302352 10.0415 1.11434 11.9986 2.55787 13.4422C4.0014 14.8857 5.95859 15.6977 8.00005 15.7V15.7ZM8.00005 1.7C9.24607 1.7 10.4641 2.06949 11.5001 2.76174C12.5362 3.45399 13.3437 4.43792 13.8205 5.5891C14.2973 6.74027 14.4221 8.00699 14.179 9.22907C13.9359 10.4512 13.3359 11.5737 12.4548 12.4548C11.5738 13.3358 10.4512 13.9359 9.22912 14.1789C8.00704 14.422 6.74032 14.2973 5.58914 13.8204C4.43797 13.3436 3.45404 12.5361 2.76179 11.5001C2.06954 10.4641 1.70005 9.24602 1.70005 8C1.70193 6.32971 2.36628 4.72838 3.54735 3.5473C4.72842 2.36623 6.32976 1.70188 8.00005 1.7V1.7ZM7.00005 8V5C7.00005 4.73478 7.10541 4.48043 7.29294 4.29289C7.48048 4.10536 7.73483 4 8.00005 4C8.26527 4 8.51962 4.10536 8.70716 4.29289C8.89469 4.48043 9.00005 4.73478 9.00005 5V8C9.00005 8.26522 8.89469 8.51957 8.70716 8.70711C8.51962 8.89464 8.26527 9 8.00005 9C7.73483 9 7.48048 8.89464 7.29294 8.70711C7.10541 8.51957 7.00005 8.26522 7.00005 8V8ZM7.00005 11C7.00005 10.8022 7.0587 10.6089 7.16858 10.4444C7.27846 10.28 7.43464 10.1518 7.61737 10.0761C7.80009 10.0004 8.00116 9.98063 8.19514 10.0192C8.38912 10.0578 8.5673 10.153 8.70716 10.2929C8.84701 10.4327 8.94225 10.6109 8.98083 10.8049C9.01942 10.9989 8.99962 11.2 8.92393 11.3827C8.84824 11.5654 8.72007 11.7216 8.55562 11.8315C8.39117 11.9414 8.19783 12 8.00005 12C7.73483 12 7.48048 11.8946 7.29294 11.7071C7.10541 11.5196 7.00005 11.2652 7.00005 11Z" fill="currentColor"/>
</svg>
