<?xml version="1.0" standalone="no"?>
<!DOCTYPE svg PUBLIC "-//W3C//DTD SVG 20010904//EN"
 "http://www.w3.org/TR/2001/REC-SVG-20010904/DTD/svg10.dtd">
<svg version="1.0" xmlns="http://www.w3.org/2000/svg"
 width="700.000000pt" height="700.000000pt" viewBox="0 0 700.000000 700.000000"
 preserveAspectRatio="xMidYMid meet">
<metadata>
Created by potrace 1.14, written by Peter Selinger 2001-2017
</metadata>
<g transform="translate(0.000000,700.000000) scale(0.100000,-0.100000)"
fill="#000000" stroke="none">
<path d="M4987 6957 c-22 -23 -127 -133 -234 -244 l-195 -202 -52 30 c-90 52
-290 140 -366 159 -167 43 -169 44 -242 55 -143 23 -385 27 -508 10 -426 -61
-800 -250 -1090 -551 -280 -291 -456 -645 -525 -1059 -18 -108 -21 -163 -19
-325 1 -107 5 -213 8 -235 41 -265 102 -462 207 -666 50 -98 151 -256 199
-313 92 -109 118 -137 169 -186 302 -290 670 -466 1081 -515 25 -3 102 -7 172
-10 70 -2 138 -7 150 -10 13 -2 36 -7 51 -9 103 -17 261 -87 357 -159 201
-150 333 -370 381 -631 11 -62 14 -239 4 -291 -37 -200 -81 -312 -180 -450
-257 -362 -748 -488 -1140 -292 -205 102 -373 284 -458 495 -53 130 -71 225
-71 382 1 148 8 196 55 333 21 64 71 167 100 207 l17 26 -136 104 c-75 57
-244 184 -376 283 l-239 180 -18 -24 c-32 -41 -116 -190 -157 -279 -67 -148
-120 -315 -146 -460 -8 -47 -18 -101 -21 -120 -11 -57 -14 -400 -5 -460 5 -30
11 -73 14 -95 17 -119 43 -224 84 -347 47 -136 141 -336 178 -379 8 -8 14 -19
14 -23 0 -6 45 -76 72 -111 211 -278 449 -474 739 -609 139 -64 347 -129 461
-142 29 -3 76 -10 103 -14 53 -9 380 -5 430 4 250 49 389 92 555 175 100 49
144 76 280 168 85 57 261 226 342 329 27 32 52 64 58 71 33 40 128 197 170
280 171 345 238 695 206 1079 -4 43 -9 88 -11 99 -2 11 -7 38 -10 60 -3 22
-13 69 -21 105 -9 36 -17 72 -19 81 -2 9 -19 64 -38 121 -90 269 -240 516
-442 726 -108 114 -293 260 -405 321 -157 85 -286 139 -417 174 -186 50 -274
63 -478 72 -153 6 -177 9 -270 37 -251 76 -463 261 -576 505 -45 95 -46 98
-70 193 -30 114 -32 327 -5 445 87 381 365 658 741 740 77 17 260 14 350 -5
204 -44 396 -161 521 -316 21 -27 41 -51 44 -54 3 -3 24 -36 46 -75 90 -154
134 -318 135 -500 0 -60 -3 -121 -6 -135 -3 -14 -8 -41 -11 -60 -13 -90 -85
-270 -137 -343 -25 -36 -39 -21 208 -208 105 -78 263 -198 352 -266 89 -68
166 -123 170 -123 23 0 159 250 216 395 36 90 83 241 93 298 2 17 6 33 8 36 2
3 7 30 11 60 4 30 9 63 11 75 17 85 23 349 10 461 -31 265 -93 482 -201 697
-38 76 -43 93 -33 107 13 15 69 74 331 346 l125 130 -63 65 c-35 36 -86 90
-115 120 -29 30 -139 144 -244 253 -105 110 -193 202 -196 205 -3 4 -14 14
-25 24 -19 15 -22 14 -58 -25z"/>
</g>
</svg>
