<svg xmlns="http://www.w3.org/2000/svg" width="24" height="24" viewBox="0 0 24 24">
  <title>edit</title>
  <path d="M24,24H0V0H24Z" style="fill: none"/>
  <g>
    <path d="M14.176,15.555a.875.875,0,0,0,0,1.75h2.8a.875.875,0,0,0,0-1.75Z"/>
    <path d="M6.146,13.332v3.055a.875.875,0,0,0,.875.875h3.055a.873.873,0,0,0,.618-.256l6.9-6.9a.875.875,0,0,0,0-1.238L14.543,5.811a.873.873,0,0,0-1.237,0l-6.9,6.9A.877.877,0,0,0,6.146,13.332Zm1.75.362,6.028-6.027,1.817,1.817L9.713,15.512H7.9Z"/>
  </g>
</svg>
