<svg xmlns="http://www.w3.org/2000/svg" width="24" height="24" viewBox="0 0 24 24">
  <path d="M0,24V0H24V24Z" style="fill: none"/>
  <g>
    <path d="M15.054,8.946a1,1,0,0,0-1.414,0L8.946,13.64a1,1,0,1,0,1.414,1.414l4.694-4.694A1,1,0,0,0,15.054,8.946Z"/>
    <path d="M15.52,14.173a1,1,0,0,0,.707-.293l1.508-1.508a4.318,4.318,0,0,0-6.107-6.107L10.12,7.773a1,1,0,0,0,1.414,1.415l1.508-1.509a2.319,2.319,0,0,1,3.279,3.279l-1.509,1.508a1,1,0,0,0,.708,1.707Z"/>
    <path d="M6.265,17.735a4.323,4.323,0,0,0,6.107,0l1.508-1.508a1,1,0,0,0-1.414-1.415l-1.508,1.509a2.319,2.319,0,0,1-3.279-3.279l1.509-1.508A1,1,0,0,0,7.773,10.12L6.265,11.628a4.318,4.318,0,0,0,0,6.107Z"/>
  </g>
</svg>
