<svg xmlns="http://www.w3.org/2000/svg" width="24" height="24" viewBox="0 0 24 24">
  <path d="M0,0H24V24H0Z" style="fill: none"/>
  <g>
    <path d="M5,18a1,1,0,0,0,1,1h6a1,1,0,0,0,0-2H7V7h5a1,1,0,0,0,0-2H6A1,1,0,0,0,5,6Z"/>
    <path d="M14.36,5.231a1,1,0,0,0-.128,1.41L17.862,11,10,10.982h0a1,1,0,0,0,0,2L17.868,13l-3.636,4.363a1,1,0,0,0,1.536,1.282l5-6a.951.951,0,0,0,.088-.155.83.83,0,0,0,.07-.123A.99.99,0,0,0,21,12.017L21,12h0a.992.992,0,0,0-.073-.363.967.967,0,0,0-.069-.121.989.989,0,0,0-.09-.158l-5-6A1,1,0,0,0,14.36,5.231Z"/>
  </g>
</svg>
