<svg xmlns="http://www.w3.org/2000/svg" width="24" height="24" viewBox="0 0 24 24">
  <path d="M0,0H24V24H0Z" style="fill: none"/>
  <path d="M19.16,9.674l.39-2.751a.476.476,0,0,0-.389-.535l-2.735-.48-1.3-2.452a.479.479,0,0,0-.629-.205L12,4.471,9.505,3.251a.479.479,0,0,0-.629.205l-1.3,2.452-2.735.48a.476.476,0,0,0-.389.535l.39,2.751-1.932,2a.475.475,0,0,0,0,.662l1.932,2-.39,2.751a.476.476,0,0,0,.389.535l2.735.48,1.3,2.452a.477.477,0,0,0,.629.2L12,19.529l2.495,1.22a.487.487,0,0,0,.209.048.475.475,0,0,0,.42-.253l1.3-2.452,2.735-.48a.476.476,0,0,0,.389-.535l-.39-2.751,1.932-2a.475.475,0,0,0,0-.662ZM12,16a1,1,0,1,1,1-1A1,1,0,0,1,12,16Zm1-4a1,1,0,0,1-2,0V9a1,1,0,0,1,2,0Z"/>
</svg>
