<svg xmlns="http://www.w3.org/2000/svg" width="24" height="24" viewBox="0 0 24 24">
  <title>process</title>
  <path d="M24,24H0V0H24Z" style="fill: none"/>
  <g>
    <path d="M7,8v8a1,1,0,0,0,1,1h8a1,1,0,0,0,1-1V8a1,1,0,0,0-1-1H8A1,1,0,0,0,7,8ZM9,9h6v6H9Z"/>
    <path d="M4,11H5A1,1,0,0,0,5,9H4a1,1,0,0,0,0,2Z"/>
    <path d="M4,15H5a1,1,0,0,0,0-2H4a1,1,0,0,0,0,2Z"/>
    <path d="M19,11h1a1,1,0,0,0,0-2H19a1,1,0,0,0,0,2Z"/>
    <path d="M19,15h1a1,1,0,0,0,0-2H19a1,1,0,0,0,0,2Z"/>
    <path d="M9,19v1a1,1,0,0,0,2,0V19a1,1,0,0,0-2,0Z"/>
    <path d="M13,19v1a1,1,0,0,0,2,0V19a1,1,0,0,0-2,0Z"/>
    <path d="M11,5V4A1,1,0,0,0,9,4V5a1,1,0,0,0,2,0Z"/>
    <path d="M15,5V4a1,1,0,0,0-2,0V5a1,1,0,0,0,2,0Z"/>
  </g>
</svg>
