<svg xmlns="http://www.w3.org/2000/svg" width="24" height="24" viewBox="0 0 24 24">
  <path d="M24,24H0V0H24Z" style="fill: none"/>
  <g>
    <path d="M19.2,3.8H4.8A2.8,2.8,0,0,0,2.009,6.6v3.9l1,0a1.5,1.5,0,0,1,0,3H2v3.9a2.8,2.8,0,0,0,2.8,2.8H19.2A2.8,2.8,0,0,0,22,17.4V13.5H21a1.5,1.5,0,0,1,0-3h1V6.6A2.8,2.8,0,0,0,19.2,3.8ZM20,8.646a3.5,3.5,0,0,0,0,6.708V17.4a.81.81,0,0,1-.8.8H4.8a.81.81,0,0,1-.8-.8V15.354a3.5,3.5,0,0,0,.009-6.7V6.6A.8.8,0,0,1,4.8,5.8H19.2a.81.81,0,0,1,.8.8Z"/>
    <path d="M14.836,10.874a2.96,2.96,0,0,0,.171-.958,3.007,3.007,0,0,0-6.014,0,2.96,2.96,0,0,0,.171.958,4.446,4.446,0,0,0-1.056,5.712A1,1,0,0,0,9.836,15.58a2.441,2.441,0,0,1,.569-3.133,2.96,2.96,0,0,0,3.19,0,2.44,2.44,0,0,1,.569,3.132,1,1,0,1,0,1.728,1.006,4.446,4.446,0,0,0-1.056-5.712ZM12,10.914a1,1,0,1,1,1.007-1A1,1,0,0,1,12,10.914Z"/>
  </g>
</svg>
