<svg xmlns="http://www.w3.org/2000/svg" width="24" height="24" viewBox="0 0 24 24">
  <title>settings</title>
  <path d="M24,24H0V0H24Z" style="fill: none"/>
  <g>
    <path d="M19.262,12.425c.009-.139.013-.28.013-.425s0-.287-.014-.429l1.407-1.1a1.342,1.342,0,0,0,.324-1.7L19.3,5.847a1.343,1.343,0,0,0-1.643-.589L16,5.924a7.244,7.244,0,0,0-.733-.425l-.251-1.77A1.318,1.318,0,0,0,13.7,2.6H10.3A1.313,1.313,0,0,0,8.995,3.735L8.745,5.5a7.442,7.442,0,0,0-.731.425L6.343,5.254a1.322,1.322,0,0,0-1.625.58L3.01,8.791a1.3,1.3,0,0,0,.34,1.687l1.394,1.088c-.013.152-.019.295-.019.434s.005.286.015.429l-1.408,1.1a1.342,1.342,0,0,0-.324,1.7L4.7,18.153a1.342,1.342,0,0,0,1.643.589L8,18.076a7.355,7.355,0,0,0,.733.425l.258,1.813A1.328,1.328,0,0,0,10.3,21.4h3.4a1.294,1.294,0,0,0,1.305-1.135l.25-1.765a7.442,7.442,0,0,0,.731-.425l1.671.671a1.319,1.319,0,0,0,1.625-.58l1.708-2.957a1.3,1.3,0,0,0-.336-1.684Zm-1.84-1.112a4.251,4.251,0,0,1,.053.687,6.015,6.015,0,0,1-.047.723.9.9,0,0,0,.336.812l1.452,1.148-1.29,2.232L16.2,16.223a.9.9,0,0,0-.877.116,5.56,5.56,0,0,1-1.234.715.9.9,0,0,0-.55.707l-.26,1.839H10.708l-.261-1.839a.9.9,0,0,0-.55-.707,5.379,5.379,0,0,1-1.23-.712.9.9,0,0,0-.88-.119l-1.723.693L4.775,14.685l1.468-1.147a.9.9,0,0,0,.335-.851A4.332,4.332,0,0,1,6.525,12a4.453,4.453,0,0,1,.063-.687.9.9,0,0,0-.335-.851L4.786,9.315l1.288-2.23L7.8,7.777a.9.9,0,0,0,.877-.116,5.56,5.56,0,0,1,1.234-.715.9.9,0,0,0,.55-.707l.26-1.839h2.574l.261,1.839a.9.9,0,0,0,.55.707,5.379,5.379,0,0,1,1.23.712.892.892,0,0,0,.88.119l1.723-.693,1.289,2.231-1.468,1.147A.9.9,0,0,0,17.422,11.313Z"/>
    <path d="M12,8a4,4,0,1,0,4,4A4,4,0,0,0,12,8Zm0,6a2,2,0,1,1,2-2A2,2,0,0,1,12,14Z"/>
  </g>
</svg>
