<svg xmlns="http://www.w3.org/2000/svg" width="24" height="24" viewBox="0 0 24 24">
  <title>settings</title>
  <path d="M24,24H0V0H24Z" style="fill: none"/>
  <g>
    <path d="M19.365,12.378c.006-.124.01-.25.01-.378s0-.256-.011-.382l1.364-1.066a1.441,1.441,0,0,0,.351-1.825L19.389,5.8a1.447,1.447,0,0,0-1.77-.637l-1.609.647a6.937,6.937,0,0,0-.653-.378l-.244-1.722A1.418,1.418,0,0,0,13.7,2.5H10.3A1.415,1.415,0,0,0,8.9,3.721L8.652,5.435c-.218.113-.435.239-.649.377L6.38,5.16a1.424,1.424,0,0,0-1.749.624L2.924,8.74a1.4,1.4,0,0,0,.364,1.817L4.64,11.612c-.01.135-.015.264-.015.388s0,.255.012.382L3.272,13.448a1.441,1.441,0,0,0-.351,1.825L4.611,18.2a1.444,1.444,0,0,0,1.77.637l1.609-.647a7.092,7.092,0,0,0,.654.379l.251,1.77A1.426,1.426,0,0,0,10.3,21.5h3.4a1.4,1.4,0,0,0,1.4-1.221l.244-1.714c.218-.113.435-.239.649-.377l1.623.652a1.425,1.425,0,0,0,1.749-.624l1.707-2.956a1.4,1.4,0,0,0-.359-1.813Zm-2.041-1.051a4.446,4.446,0,0,1,.051.673,6.027,6.027,0,0,1-.046.712,1,1,0,0,0,.373.9l1.384,1.094-1.2,2.083-1.643-.66a1,1,0,0,0-.975.13,5.445,5.445,0,0,1-1.21.7,1,1,0,0,0-.612.785L13.2,19.5H10.8l-.248-1.753a1,1,0,0,0-.612-.786,5.223,5.223,0,0,1-1.207-.7,1,1,0,0,0-.979-.132l-1.642.661-1.2-2.081,1.4-1.093a1,1,0,0,0,.372-.944A4.527,4.527,0,0,1,6.625,12a4.4,4.4,0,0,1,.062-.673,1,1,0,0,0-.373-.944L4.916,9.29l1.2-2.08,1.643.66a.992.992,0,0,0,.975-.13,5.445,5.445,0,0,1,1.21-.7,1,1,0,0,0,.612-.785L10.805,4.5h2.4l.248,1.753a1,1,0,0,0,.612.786,5.223,5.223,0,0,1,1.207.7,1,1,0,0,0,.979.132l1.642-.661L19.1,9.29l-1.4,1.093A1,1,0,0,0,17.324,11.327Z"/>
    <path d="M12,8a4,4,0,1,0,4,4A4,4,0,0,0,12,8Zm0,6a2,2,0,1,1,2-2A2,2,0,0,1,12,14Z"/>
  </g>
</svg>
