<svg xmlns="http://www.w3.org/2000/svg" width="24" height="24" viewBox="0 0 24 24">
  <title>tune</title>
  <path d="M24,24H0V0H24Z" style="fill: none"/>
  <g>
    <path d="M4,9H6c.012,0,.022-.007.034-.007a2.933,2.933,0,0,0,5.532,0c.012,0,.022.007.034.007H20a1,1,0,0,0,0-2H11.6c-.012,0-.022.006-.034.007a2.933,2.933,0,0,0-5.532,0C6.022,7.006,6.012,7,6,7H4A1,1,0,0,0,4,9ZM8.8,6.8A1.2,1.2,0,1,1,7.6,8,1.2,1.2,0,0,1,8.8,6.8Z"/>
    <path d="M4,17h8.4c.012,0,.022-.007.034-.007a2.933,2.933,0,0,0,5.532,0c.012,0,.022.007.034.007h2a1,1,0,0,0,0-2H18c-.012,0-.022.006-.034.007a2.933,2.933,0,0,0-5.532,0c-.012,0-.022-.007-.034-.007H4a1,1,0,0,0,0,2Zm11.2-2.2A1.2,1.2,0,1,1,14,16,1.2,1.2,0,0,1,15.2,14.8Z"/>
  </g>
</svg>
