<svg xmlns="http://www.w3.org/2000/svg" width="203.328" height="203.328" viewBox="0 0 203.328 203.328">
  <g>
    <circle cx="101.664" cy="101.664" r="101.664" style="fill: #d4213a;opacity: 0.1"/>
    <polygon points="160.978 68.303 101.825 34.802 35.978 68.303 35.978 77.814 38.981 79.342 38.981 136.634 101.664 168.526 157.975 136.634 157.975 79.515 160.978 77.814 160.978 68.303" style="fill: #fff"/>
    <path d="M81.575,111.813l-21.6-10.989a1,1,0,0,0-1.454.891v8.012a1,1,0,0,0,.547.892l21.6,10.988a1,1,0,0,0,1.453-.892v-8.01A1,1,0,0,0,81.575,111.813Z" style="fill: #1b1464"/>
    <path d="M162.977,68.3a2,2,0,0,0-1.014-1.74l-59.152-33.5a2,2,0,0,0-1.893-.042L35.07,66.521c-.033.017-.061.041-.093.06a1.818,1.818,0,0,0-.182.117c-.051.038-.1.078-.146.12s-.095.088-.139.136-.085.1-.124.15a1.913,1.913,0,0,0-.108.158c-.033.054-.063.109-.091.166s-.055.119-.079.181-.04.12-.056.182-.031.124-.042.188-.017.14-.021.211c0,.038-.011.074-.011.113v9.511L35.07,79.6l1.91.972v56.066l1.093,1.782,62.684,31.892.01-.006a2.013,2.013,0,0,0,.9.224,1.977,1.977,0,0,0,.983-.26l56.312-31.892,1.015-1.74V80.68l1.987-1.126,1.015-1.74V68.3Zm-4,3.406v4.939l-55.153,31.237v-5.406l34.256-19.112Zm-57.2-34.637L156.9,68.29l-28.67,16L101.773,99.043,51.429,73.921l-.048-.025-.005,0-.01-.005c-.044-.022-.091-.033-.136-.052a2.059,2.059,0,0,0-.237-.09,1.517,1.517,0,0,0-.15-.026,1.935,1.935,0,0,0-.238-.039c-.044,0-.088,0-.132,0a1.97,1.97,0,0,0-.255.009c-.039,0-.076.018-.114.025a2.045,2.045,0,0,0-.26.06c-.037.013-.07.032-.106.047a1.967,1.967,0,0,0-.244.108c-.041.023-.078.055-.117.081a1.967,1.967,0,0,0-.2.139c-.049.042-.09.093-.135.139s-.095.091-.137.143a2.131,2.131,0,0,0-.128.2c-.028.046-.062.086-.087.135l0,.006-.005.009a1.863,1.863,0,0,0-.09.235c-.015.045-.038.088-.05.133a1.844,1.844,0,0,0-.045.264c-.006.041-.018.082-.02.123a1.711,1.711,0,0,0,.007.268c0,.039,0,.079,0,.118a1.845,1.845,0,0,0,.056.253c.01.04.015.082.028.122a2.073,2.073,0,0,0,.094.216c.021.045.036.093.061.136a1.933,1.933,0,0,0,.115.169c.036.05.066.1.106.15s.083.08.124.121a1.934,1.934,0,0,0,.16.153c.039.03.085.053.127.082a1.879,1.879,0,0,0,.205.131l50.259,25.571v5.023L37.978,76.587V69.529Zm54.2,98.4L103.664,165.1v-5.482a2,2,0,0,0-4,0v5.651L40.98,135.408V82.6L99.664,112.46v30.9a2,2,0,0,0,4,0V112.573l52.312-29.628Z" style="fill: #1b1464"/>
  </g>
</svg>
