<svg xmlns="http://www.w3.org/2000/svg" width="203.328" height="203.328" viewBox="0 0 203.328 203.328">
  <g>
    <circle cx="101.664" cy="101.664" r="101.664" style="fill: #fceaec"/>
    <polygon points="101.664 49.554 38.981 81.445 38.981 143.831 101.664 175.723 157.975 143.831 157.975 81.445 101.664 49.554" style="fill: #fff"/>
    <polygon points="101.664 49.554 38.981 81.445 101.664 113.337 157.975 81.445 101.664 49.554" style="fill: #1b1464;fill-opacity: 0.1"/>
    <path d="M81.575,119.009l-21.6-10.988a1,1,0,0,0-1.453.892v8.011a1,1,0,0,0,.547.891l21.6,10.989a1,1,0,0,0,1.453-.891V119.9A1,1,0,0,0,81.575,119.009Z" style="fill: #1b1464"/>
    <path d="M158.961,79.705,102.649,47.813a2,2,0,0,0-1.892-.042L38.074,79.663c-.034.017-.061.041-.093.06a1.818,1.818,0,0,0-.182.117c-.052.038-.1.078-.146.12s-.095.088-.139.135a1.947,1.947,0,0,0-.124.151c-.039.051-.075.1-.109.157s-.062.11-.09.167a1.942,1.942,0,0,0-.079.181c-.022.06-.04.12-.056.182a1.7,1.7,0,0,0-.042.188,1.861,1.861,0,0,0-.021.211c0,.038-.012.074-.012.113v62.387l1.093,1.782,62.683,31.892.01-.007a1.957,1.957,0,0,0,1.882-.035l56.312-31.892,1.014-1.74V81.445A2,2,0,0,0,158.961,79.705Zm-2.986,62.961-52.311,29.626v-5.483a2,2,0,0,0-4,0v5.653L40.981,142.6V82.671l60.632-30.848,52.3,29.622L107.739,107.6V62.565h-4v47.3l-2.126,1.2L53.687,86.684a2,2,0,0,0-1.814,3.565l47.791,24.314v35.995a2,2,0,0,0,4,0V114.5l52.311-29.625Z" style="fill: #1b1464"/>
    <polygon points="157.864 47.248 136.883 47.248 136.883 16.205 107.533 16.205 107.533 47.248 86.553 47.248 122.208 90.98 157.864 47.248" style="fill: #fff"/>
    <polygon points="122.208 90.98 144.241 47.248 157.864 47.248 122.208 90.98" style="fill: #1b1464;opacity: 0.1"/>
    <path d="M159.671,46.39a2,2,0,0,0-1.807-1.141H138.883V16.2a2,2,0,0,0-2-2h-29.35a2,2,0,0,0-2,2V45.249H86.552A2,2,0,0,0,85,48.512l35.656,43.731.01.01a2.021,2.021,0,0,0,.306.3c.012.009.026.015.039.024a1.945,1.945,0,0,0,.3.188.2.2,0,0,0,.022.008,1.969,1.969,0,0,0,.312.114c.04.012.078.032.118.041a2.076,2.076,0,0,0,.379.044c.022,0,.045.007.067.007h0a2.011,2.011,0,0,0,.5-.068c.048-.012.093-.033.14-.049a1.941,1.941,0,0,0,.321-.138c.053-.029.1-.06.152-.094a1.943,1.943,0,0,0,.261-.211c.042-.04.086-.078.125-.123.017-.019.038-.033.054-.053l35.656-43.731A2,2,0,0,0,159.671,46.39Zm-52.138,2.859a2,2,0,0,0,2-2V18.2h25.35V47.249a2,2,0,0,0,2,2h4.111L121.81,87.325,90.763,49.249Zm24.71,26.259,13.23-26.259h8.18Z" style="fill: #1b1464"/>
  </g>
</svg>
