<svg xmlns="http://www.w3.org/2000/svg" width="203.328" height="203.328" viewBox="0 0 203.328 203.328">
  <g>
    <circle cx="101.664" cy="101.664" r="101.664" style="fill: #fceaec"/>
    <polygon points="101.664 49.554 38.981 81.445 38.981 143.831 101.664 175.723 157.975 143.831 157.975 81.445 101.664 49.554" style="fill: #fff"/>
    <polygon points="101.664 49.554 38.981 81.445 101.664 113.337 157.975 81.445 101.664 49.554" style="fill: #1b1464;fill-opacity: 0.1"/>
    <path d="M81.575,119.009l-21.6-10.988a1,1,0,0,0-1.454.892v8.01a1,1,0,0,0,.547.892l21.6,10.989a1.012,1.012,0,0,0,.454.109,1,1,0,0,0,1-1V119.9A1,1,0,0,0,81.575,119.009Z" style="fill: #1b1464"/>
    <path d="M158.961,79.706,102.65,47.814a2,2,0,0,0-1.892-.042L38.074,79.664c-.033.016-.059.04-.091.058a2.1,2.1,0,0,0-.186.119c-.05.038-.1.077-.143.118s-.1.089-.142.138-.083.1-.122.148-.076.1-.11.16-.061.108-.089.164a1.979,1.979,0,0,0-.079.183c-.022.06-.04.12-.057.181s-.031.124-.042.188-.017.141-.021.213c0,.037-.011.073-.011.112v62.386l1.093,1.782,62.684,31.891.01-.006a2.009,2.009,0,0,0,.9.224,1.983,1.983,0,0,0,.984-.26l56.311-31.891,1.014-1.74V81.446A2,2,0,0,0,158.961,79.706Zm-2.986,62.959-52.311,29.627V166.81a2,2,0,0,0-4,0v5.651L40.981,142.6V82.672l60.633-30.848,52.3,29.622-2.119,1.2L107.739,107.6V62.565h-4v47.3l-2.126,1.2L53.687,86.684a2,2,0,1,0-1.814,3.565l47.791,24.315v35.994a2,2,0,0,0,4,0V114.5l52.311-29.626Z" style="fill: #1b1464"/>
    <g>
      <polygon points="189.032 83.485 151.721 30.609 81.422 32.694 76.615 42.878 119.689 98.474 184.225 93.669 189.032 83.485 189.032 83.485" style="fill: #fff"/>
      <path d="M118.789,100.5,74.341,43.127,80.169,30.78l72.541-2.152L191.281,83.29,185.5,95.53Zm-39.9-57.868,41.7,53.823,62.358-4.643,3.836-8.129L150.732,32.589,82.675,34.608Z" style="fill: #fff"/>
    </g>
    <path d="M191.009,83.654a1.99,1.99,0,0,0,.015-.336,2.057,2.057,0,0,0-.044-.207,1.911,1.911,0,0,0-.066-.3,2.235,2.235,0,0,0-.1-.207,1.87,1.87,0,0,0-.129-.252l-.008-.009-.006-.011L153.355,29.456a1.977,1.977,0,0,0-1.693-.846L81.363,30.7a2,2,0,1,0,.118,4l69.225-2.053,34.656,49.112-59.943,4.463L97.828,50.6a2,2,0,0,0-3.162,2.449l27.5,35.492-2.892,6.126L78.2,41.654A2,2,0,1,0,75.034,44.1l43.074,55.6a1.9,1.9,0,0,0,.147.151,1.984,1.984,0,0,0,.144.146,1.908,1.908,0,0,0,.229.159c.053.033.1.072.157.1a1.988,1.988,0,0,0,.29.11c.049.016.1.04.146.052a1.971,1.971,0,0,0,.467.057c.05,0,.1,0,.149-.006l64.536-4.8a2,2,0,0,0,1.66-1.141l4.808-10.185a1.981,1.981,0,0,0,.159-.5C191.011,83.776,191,83.715,191.009,83.654Zm-8.095,8.107-59.952,4.464,2.845-6.027,59.952-4.464Z" style="fill: #1b1464"/>
  </g>
</svg>
