<svg xmlns="http://www.w3.org/2000/svg" width="203.328" height="203.328" viewBox="0 0 203.328 203.328">
  <g>
    <circle cx="101.664" cy="101.664" r="101.664" style="fill: #d4213a;opacity: 0.1"/>
    <polygon points="157.975 76.445 101.664 44.554 38.981 76.445 38.981 76.446 101.664 108.337 157.975 76.445" style="fill: #fff"/>
    <polygon points="101.664 44.554 38.981 76.445 101.664 108.337 157.975 76.445 101.664 44.554" style="fill: #1b1464;fill-opacity: 0.1"/>
    <path d="M101.664,110.337a1.987,1.987,0,0,1-.907-.218L51.873,85.248a2,2,0,0,1,1.814-3.564l47.926,24.384,52.3-29.622-52.3-29.623-61.726,31.4a2,2,0,0,1-1.814-3.565l62.684-31.891a2,2,0,0,1,1.892.042l56.312,31.891a2,2,0,0,1,0,3.481l-56.312,31.891A1.993,1.993,0,0,1,101.664,110.337Z" style="fill: #1b1464"/>
    <g>
      <polyline points="142.664 115.217 142.664 77.659 96.664 54.16 96.664 92.733" style="fill: #fff"/>
      <path d="M142.664,117.217a2,2,0,0,1-2-2V78.884l-42-21.456V92.733a2,2,0,0,1-4,0V54.16a2,2,0,0,1,2.91-1.781l46,23.5a2,2,0,0,1,1.09,1.781v37.558A2,2,0,0,1,142.664,117.217Z" style="fill: #1b1464"/>
    </g>
    <g>
      <polyline points="132.664 95.423 132.664 57.865 86.664 34.366 86.664 72.939" style="fill: #fff"/>
      <path d="M132.664,97.423a2,2,0,0,1-2-2V59.09l-42-21.456v35.3a2,2,0,0,1-4,0V34.366a2,2,0,0,1,2.91-1.781l46,23.5a2,2,0,0,1,1.09,1.781V95.423A2,2,0,0,1,132.664,97.423Z" style="fill: #1b1464"/>
    </g>
    <g>
      <polyline points="122.664 110.697 122.664 73.139 76.664 49.64 76.664 88.212" style="fill: #fff"/>
      <path d="M122.664,112.7a2,2,0,0,1-2-2V74.364l-42-21.457V88.212a2,2,0,0,1-4,0V49.64a2,2,0,0,1,2.91-1.781l46,23.5a2,2,0,0,1,1.09,1.781V110.7A2,2,0,0,1,122.664,112.7Z" style="fill: #1b1464"/>
    </g>
    <g>
      <polyline points="112.664 131.227 112.664 93.669 66.664 70.17 66.664 108.742" style="fill: #fff"/>
      <path d="M112.664,133.227a2,2,0,0,1-2-2V94.894l-42-21.456v35.3a2,2,0,0,1-4,0V70.17a2,2,0,0,1,2.91-1.781l46,23.5a2,2,0,0,1,1.09,1.781v37.558A2,2,0,0,1,112.664,133.227Z" style="fill: #1b1464"/>
    </g>
    <g>
      <polyline points="102.664 136.403 102.664 98.844 56.664 75.346 56.664 113.918" style="fill: #fff"/>
      <path d="M102.664,138.4a2,2,0,0,1-2-2V100.07l-42-21.456v35.3a2,2,0,0,1-4,0V75.346a2,2,0,0,1,2.91-1.781l46,23.5a2,2,0,0,1,1.09,1.781V136.4A2,2,0,0,1,102.664,138.4Z" style="fill: #1b1464"/>
    </g>
    <polygon points="101.664 108.337 38.981 76.446 38.981 138.831 101.664 170.723 157.975 138.831 157.975 76.445 157.975 76.445 101.664 108.337" style="fill: #fff"/>
    <path d="M81.575,114.01l-21.6-10.989a1,1,0,0,0-1.453.891v8.012a1,1,0,0,0,.547.892l21.6,10.988a1,1,0,0,0,1.453-.892V114.9A1,1,0,0,0,81.575,114.01Z" style="fill: #1b1464"/>
    <path d="M156.99,74.705l-55.377,31.363-61.726-31.4c-.019-.01-.04-.014-.06-.023a1.742,1.742,0,0,0-.2-.078,1.78,1.78,0,0,0-.184-.058c-.057-.013-.114-.021-.172-.029a2.051,2.051,0,0,0-.232-.024c-.02,0-.038,0-.058,0s-.065.008-.1.01a2.05,2.05,0,0,0-.236.023c-.056.01-.109.023-.163.037a1.836,1.836,0,0,0-.207.064c-.055.021-.107.044-.159.07a1.846,1.846,0,0,0-.186.1c-.049.031-.1.064-.142.1a1.881,1.881,0,0,0-.163.135c-.044.041-.085.084-.126.129a1.722,1.722,0,0,0-.126.154,1.907,1.907,0,0,0-.114.177c-.019.033-.044.061-.061.095s-.014.041-.023.06a1.975,1.975,0,0,0-.08.2c-.02.059-.04.117-.054.176s-.024.124-.033.188a1.9,1.9,0,0,0-.021.212c0,.023-.007.044-.007.067v62.385l1.093,1.783,62.684,31.891.01-.006a2.01,2.01,0,0,0,.9.224,1.977,1.977,0,0,0,.983-.26l56.312-31.891,1.014-1.741V76.446Zm-1.015,62.96-52.311,29.627V161.81a2,2,0,0,0-4,0v5.651L40.98,137.6v-57.9l58.684,29.857v36a2,2,0,0,0,4,0V109.5l52.311-29.626Z" style="fill: #1b1464"/>
  </g>
</svg>
